<?xml version="1.0" encoding="utf-8" standalone="no"?>
<!DOCTYPE svg PUBLIC "-//W3C//DTD SVG 1.1//EN"
  "http://www.w3.org/Graphics/SVG/1.1/DTD/svg11.dtd">
<svg xmlns:xlink="http://www.w3.org/1999/xlink" width="1008pt" height="504pt" viewBox="0 0 1008 504" xmlns="http://www.w3.org/2000/svg" version="1.1">
 <metadata>
  <rdf:RDF xmlns:dc="http://purl.org/dc/elements/1.1/" xmlns:cc="http://creativecommons.org/ns#" xmlns:rdf="http://www.w3.org/1999/02/22-rdf-syntax-ns#">
   <cc:Work>
    <dc:type rdf:resource="http://purl.org/dc/dcmitype/StillImage"/>
    <dc:date>2024-10-27T18:05:56.460362</dc:date>
    <dc:format>image/svg+xml</dc:format>
    <dc:creator>
     <cc:Agent>
      <dc:title>Matplotlib v3.9.2, https://matplotlib.org/</dc:title>
     </cc:Agent>
    </dc:creator>
   </cc:Work>
  </rdf:RDF>
 </metadata>
 <defs>
  <style type="text/css">*{stroke-linejoin: round; stroke-linecap: butt}</style>
 </defs>
 <g id="figure_1">
  <g id="patch_1">
   <path d="M 0 504 
L 1008 504 
L 1008 0 
L 0 0 
z
" style="fill: #ffffff"/>
  </g>
  <g id="axes_1">
   <g id="patch_2">
    <path d="M 126 448.56 
L 907.2 448.56 
L 907.2 60.48 
L 126 60.48 
z
" style="fill: #ffffff"/>
   </g>
   <g id="matplotlib.axis_1">
    <g id="xtick_1">
     <g id="line2d_1">
      <defs>
       <path id="m2c6ae93b65" d="M 0 0 
L 0 3.5 
" style="stroke: #000000; stroke-width: 0.8"/>
      </defs>
      <g>
       <use xlink:href="#m2c6ae93b65" x="245.90751" y="448.56" style="stroke: #000000; stroke-width: 0.8"/>
      </g>
     </g>
     <g id="text_1">
      <!-- 2022-03 -->
      <g transform="translate(225.016104 463.158437) scale(0.1 -0.1)">
       <defs>
        <path id="DejaVuSans-32" d="M 1228 531 
L 3431 531 
L 3431 0 
L 469 0 
L 469 531 
Q 828 903 1448 1529 
Q 2069 2156 2228 2338 
Q 2531 2678 2651 2914 
Q 2772 3150 2772 3378 
Q 2772 3750 2511 3984 
Q 2250 4219 1831 4219 
Q 1534 4219 1204 4116 
Q 875 4013 500 3803 
L 500 4441 
Q 881 4594 1212 4672 
Q 1544 4750 1819 4750 
Q 2544 4750 2975 4387 
Q 3406 4025 3406 3419 
Q 3406 3131 3298 2873 
Q 3191 2616 2906 2266 
Q 2828 2175 2409 1742 
Q 1991 1309 1228 531 
z
" transform="scale(0.015625)"/>
        <path id="DejaVuSans-30" d="M 2034 4250 
Q 1547 4250 1301 3770 
Q 1056 3291 1056 2328 
Q 1056 1369 1301 889 
Q 1547 409 2034 409 
Q 2525 409 2770 889 
Q 3016 1369 3016 2328 
Q 3016 3291 2770 3770 
Q 2525 4250 2034 4250 
z
M 2034 4750 
Q 2819 4750 3233 4129 
Q 3647 3509 3647 2328 
Q 3647 1150 3233 529 
Q 2819 -91 2034 -91 
Q 1250 -91 836 529 
Q 422 1150 422 2328 
Q 422 3509 836 4129 
Q 1250 4750 2034 4750 
z
" transform="scale(0.015625)"/>
        <path id="DejaVuSans-2d" d="M 313 2009 
L 1997 2009 
L 1997 1497 
L 313 1497 
L 313 2009 
z
" transform="scale(0.015625)"/>
        <path id="DejaVuSans-33" d="M 2597 2516 
Q 3050 2419 3304 2112 
Q 3559 1806 3559 1356 
Q 3559 666 3084 287 
Q 2609 -91 1734 -91 
Q 1441 -91 1130 -33 
Q 819 25 488 141 
L 488 750 
Q 750 597 1062 519 
Q 1375 441 1716 441 
Q 2309 441 2620 675 
Q 2931 909 2931 1356 
Q 2931 1769 2642 2001 
Q 2353 2234 1838 2234 
L 1294 2234 
L 1294 2753 
L 1863 2753 
Q 2328 2753 2575 2939 
Q 2822 3125 2822 3475 
Q 2822 3834 2567 4026 
Q 2313 4219 1838 4219 
Q 1578 4219 1281 4162 
Q 984 4106 628 3988 
L 628 4550 
Q 988 4650 1302 4700 
Q 1616 4750 1894 4750 
Q 2613 4750 3031 4423 
Q 3450 4097 3450 3541 
Q 3450 3153 3228 2886 
Q 3006 2619 2597 2516 
z
" transform="scale(0.015625)"/>
       </defs>
       <use xlink:href="#DejaVuSans-32"/>
       <use xlink:href="#DejaVuSans-30" x="63.623047"/>
       <use xlink:href="#DejaVuSans-32" x="127.246094"/>
       <use xlink:href="#DejaVuSans-32" x="190.869141"/>
       <use xlink:href="#DejaVuSans-2d" x="254.492188"/>
       <use xlink:href="#DejaVuSans-30" x="290.576172"/>
       <use xlink:href="#DejaVuSans-33" x="354.199219"/>
      </g>
     </g>
    </g>
    <g id="xtick_2">
     <g id="line2d_2">
      <g>
       <use xlink:href="#m2c6ae93b65" x="371.475889" y="448.56" style="stroke: #000000; stroke-width: 0.8"/>
      </g>
     </g>
     <g id="text_2">
      <!-- 2022-05 -->
      <g transform="translate(350.584483 463.158437) scale(0.1 -0.1)">
       <defs>
        <path id="DejaVuSans-35" d="M 691 4666 
L 3169 4666 
L 3169 4134 
L 1269 4134 
L 1269 2991 
Q 1406 3038 1543 3061 
Q 1681 3084 1819 3084 
Q 2600 3084 3056 2656 
Q 3513 2228 3513 1497 
Q 3513 744 3044 326 
Q 2575 -91 1722 -91 
Q 1428 -91 1123 -41 
Q 819 9 494 109 
L 494 744 
Q 775 591 1075 516 
Q 1375 441 1709 441 
Q 2250 441 2565 725 
Q 2881 1009 2881 1497 
Q 2881 1984 2565 2268 
Q 2250 2553 1709 2553 
Q 1456 2553 1204 2497 
Q 953 2441 691 2322 
L 691 4666 
z
" transform="scale(0.015625)"/>
       </defs>
       <use xlink:href="#DejaVuSans-32"/>
       <use xlink:href="#DejaVuSans-30" x="63.623047"/>
       <use xlink:href="#DejaVuSans-32" x="127.246094"/>
       <use xlink:href="#DejaVuSans-32" x="190.869141"/>
       <use xlink:href="#DejaVuSans-2d" x="254.492188"/>
       <use xlink:href="#DejaVuSans-30" x="290.576172"/>
       <use xlink:href="#DejaVuSans-35" x="354.199219"/>
      </g>
     </g>
    </g>
    <g id="xtick_3">
     <g id="line2d_3">
      <g>
       <use xlink:href="#m2c6ae93b65" x="497.044269" y="448.56" style="stroke: #000000; stroke-width: 0.8"/>
      </g>
     </g>
     <g id="text_3">
      <!-- 2022-07 -->
      <g transform="translate(476.152863 463.158437) scale(0.1 -0.1)">
       <defs>
        <path id="DejaVuSans-37" d="M 525 4666 
L 3525 4666 
L 3525 4397 
L 1831 0 
L 1172 0 
L 2766 4134 
L 525 4134 
L 525 4666 
z
" transform="scale(0.015625)"/>
       </defs>
       <use xlink:href="#DejaVuSans-32"/>
       <use xlink:href="#DejaVuSans-30" x="63.623047"/>
       <use xlink:href="#DejaVuSans-32" x="127.246094"/>
       <use xlink:href="#DejaVuSans-32" x="190.869141"/>
       <use xlink:href="#DejaVuSans-2d" x="254.492188"/>
       <use xlink:href="#DejaVuSans-30" x="290.576172"/>
       <use xlink:href="#DejaVuSans-37" x="354.199219"/>
      </g>
     </g>
    </g>
    <g id="xtick_4">
     <g id="line2d_4">
      <g>
       <use xlink:href="#m2c6ae93b65" x="624.671146" y="448.56" style="stroke: #000000; stroke-width: 0.8"/>
      </g>
     </g>
     <g id="text_4">
      <!-- 2022-09 -->
      <g transform="translate(603.77974 463.158437) scale(0.1 -0.1)">
       <defs>
        <path id="DejaVuSans-39" d="M 703 97 
L 703 672 
Q 941 559 1184 500 
Q 1428 441 1663 441 
Q 2288 441 2617 861 
Q 2947 1281 2994 2138 
Q 2813 1869 2534 1725 
Q 2256 1581 1919 1581 
Q 1219 1581 811 2004 
Q 403 2428 403 3163 
Q 403 3881 828 4315 
Q 1253 4750 1959 4750 
Q 2769 4750 3195 4129 
Q 3622 3509 3622 2328 
Q 3622 1225 3098 567 
Q 2575 -91 1691 -91 
Q 1453 -91 1209 -44 
Q 966 3 703 97 
z
M 1959 2075 
Q 2384 2075 2632 2365 
Q 2881 2656 2881 3163 
Q 2881 3666 2632 3958 
Q 2384 4250 1959 4250 
Q 1534 4250 1286 3958 
Q 1038 3666 1038 3163 
Q 1038 2656 1286 2365 
Q 1534 2075 1959 2075 
z
" transform="scale(0.015625)"/>
       </defs>
       <use xlink:href="#DejaVuSans-32"/>
       <use xlink:href="#DejaVuSans-30" x="63.623047"/>
       <use xlink:href="#DejaVuSans-32" x="127.246094"/>
       <use xlink:href="#DejaVuSans-32" x="190.869141"/>
       <use xlink:href="#DejaVuSans-2d" x="254.492188"/>
       <use xlink:href="#DejaVuSans-30" x="290.576172"/>
       <use xlink:href="#DejaVuSans-39" x="354.199219"/>
      </g>
     </g>
    </g>
    <g id="xtick_5">
     <g id="line2d_5">
      <g>
       <use xlink:href="#m2c6ae93b65" x="750.239526" y="448.56" style="stroke: #000000; stroke-width: 0.8"/>
      </g>
     </g>
     <g id="text_5">
      <!-- 2022-11 -->
      <g transform="translate(729.348119 463.158437) scale(0.1 -0.1)">
       <defs>
        <path id="DejaVuSans-31" d="M 794 531 
L 1825 531 
L 1825 4091 
L 703 3866 
L 703 4441 
L 1819 4666 
L 2450 4666 
L 2450 531 
L 3481 531 
L 3481 0 
L 794 0 
L 794 531 
z
" transform="scale(0.015625)"/>
       </defs>
       <use xlink:href="#DejaVuSans-32"/>
       <use xlink:href="#DejaVuSans-30" x="63.623047"/>
       <use xlink:href="#DejaVuSans-32" x="127.246094"/>
       <use xlink:href="#DejaVuSans-32" x="190.869141"/>
       <use xlink:href="#DejaVuSans-2d" x="254.492188"/>
       <use xlink:href="#DejaVuSans-31" x="290.576172"/>
       <use xlink:href="#DejaVuSans-31" x="354.199219"/>
      </g>
     </g>
    </g>
    <g id="xtick_6">
     <g id="line2d_6">
      <g>
       <use xlink:href="#m2c6ae93b65" x="875.807905" y="448.56" style="stroke: #000000; stroke-width: 0.8"/>
      </g>
     </g>
     <g id="text_6">
      <!-- 2023-01 -->
      <g transform="translate(854.916499 463.158437) scale(0.1 -0.1)">
       <use xlink:href="#DejaVuSans-32"/>
       <use xlink:href="#DejaVuSans-30" x="63.623047"/>
       <use xlink:href="#DejaVuSans-32" x="127.246094"/>
       <use xlink:href="#DejaVuSans-33" x="190.869141"/>
       <use xlink:href="#DejaVuSans-2d" x="254.492188"/>
       <use xlink:href="#DejaVuSans-30" x="290.576172"/>
       <use xlink:href="#DejaVuSans-31" x="354.199219"/>
      </g>
     </g>
    </g>
    <g id="text_7">
     <!-- Datum -->
     <g transform="translate(499.686719 476.836563) scale(0.1 -0.1)">
      <defs>
       <path id="DejaVuSans-44" d="M 1259 4147 
L 1259 519 
L 2022 519 
Q 2988 519 3436 956 
Q 3884 1394 3884 2338 
Q 3884 3275 3436 3711 
Q 2988 4147 2022 4147 
L 1259 4147 
z
M 628 4666 
L 1925 4666 
Q 3281 4666 3915 4102 
Q 4550 3538 4550 2338 
Q 4550 1131 3912 565 
Q 3275 0 1925 0 
L 628 0 
L 628 4666 
z
" transform="scale(0.015625)"/>
       <path id="DejaVuSans-61" d="M 2194 1759 
Q 1497 1759 1228 1600 
Q 959 1441 959 1056 
Q 959 750 1161 570 
Q 1363 391 1709 391 
Q 2188 391 2477 730 
Q 2766 1069 2766 1631 
L 2766 1759 
L 2194 1759 
z
M 3341 1997 
L 3341 0 
L 2766 0 
L 2766 531 
Q 2569 213 2275 61 
Q 1981 -91 1556 -91 
Q 1019 -91 701 211 
Q 384 513 384 1019 
Q 384 1609 779 1909 
Q 1175 2209 1959 2209 
L 2766 2209 
L 2766 2266 
Q 2766 2663 2505 2880 
Q 2244 3097 1772 3097 
Q 1472 3097 1187 3025 
Q 903 2953 641 2809 
L 641 3341 
Q 956 3463 1253 3523 
Q 1550 3584 1831 3584 
Q 2591 3584 2966 3190 
Q 3341 2797 3341 1997 
z
" transform="scale(0.015625)"/>
       <path id="DejaVuSans-74" d="M 1172 4494 
L 1172 3500 
L 2356 3500 
L 2356 3053 
L 1172 3053 
L 1172 1153 
Q 1172 725 1289 603 
Q 1406 481 1766 481 
L 2356 481 
L 2356 0 
L 1766 0 
Q 1100 0 847 248 
Q 594 497 594 1153 
L 594 3053 
L 172 3053 
L 172 3500 
L 594 3500 
L 594 4494 
L 1172 4494 
z
" transform="scale(0.015625)"/>
       <path id="DejaVuSans-75" d="M 544 1381 
L 544 3500 
L 1119 3500 
L 1119 1403 
Q 1119 906 1312 657 
Q 1506 409 1894 409 
Q 2359 409 2629 706 
Q 2900 1003 2900 1516 
L 2900 3500 
L 3475 3500 
L 3475 0 
L 2900 0 
L 2900 538 
Q 2691 219 2414 64 
Q 2138 -91 1772 -91 
Q 1169 -91 856 284 
Q 544 659 544 1381 
z
M 1991 3584 
L 1991 3584 
z
" transform="scale(0.015625)"/>
       <path id="DejaVuSans-6d" d="M 3328 2828 
Q 3544 3216 3844 3400 
Q 4144 3584 4550 3584 
Q 5097 3584 5394 3201 
Q 5691 2819 5691 2113 
L 5691 0 
L 5113 0 
L 5113 2094 
Q 5113 2597 4934 2840 
Q 4756 3084 4391 3084 
Q 3944 3084 3684 2787 
Q 3425 2491 3425 1978 
L 3425 0 
L 2847 0 
L 2847 2094 
Q 2847 2600 2669 2842 
Q 2491 3084 2119 3084 
Q 1678 3084 1418 2786 
Q 1159 2488 1159 1978 
L 1159 0 
L 581 0 
L 581 3500 
L 1159 3500 
L 1159 2956 
Q 1356 3278 1631 3431 
Q 1906 3584 2284 3584 
Q 2666 3584 2933 3390 
Q 3200 3197 3328 2828 
z
" transform="scale(0.015625)"/>
      </defs>
      <use xlink:href="#DejaVuSans-44"/>
      <use xlink:href="#DejaVuSans-61" x="77.001953"/>
      <use xlink:href="#DejaVuSans-74" x="138.28125"/>
      <use xlink:href="#DejaVuSans-75" x="177.490234"/>
      <use xlink:href="#DejaVuSans-6d" x="240.869141"/>
     </g>
    </g>
   </g>
   <g id="matplotlib.axis_2">
    <g id="ytick_1">
     <g id="line2d_7">
      <defs>
       <path id="me00c1cbc68" d="M 0 0 
L -3.5 0 
" style="stroke: #000000; stroke-width: 0.8"/>
      </defs>
      <g>
       <use xlink:href="#me00c1cbc68" x="126" y="404.520009" style="stroke: #000000; stroke-width: 0.8"/>
      </g>
     </g>
     <g id="text_8">
      <!-- 130 -->
      <g transform="translate(99.9125 408.319228) scale(0.1 -0.1)">
       <use xlink:href="#DejaVuSans-31"/>
       <use xlink:href="#DejaVuSans-33" x="63.623047"/>
       <use xlink:href="#DejaVuSans-30" x="127.246094"/>
      </g>
     </g>
    </g>
    <g id="ytick_2">
     <g id="line2d_8">
      <g>
       <use xlink:href="#me00c1cbc68" x="126" y="337.85335" style="stroke: #000000; stroke-width: 0.8"/>
      </g>
     </g>
     <g id="text_9">
      <!-- 140 -->
      <g transform="translate(99.9125 341.652568) scale(0.1 -0.1)">
       <defs>
        <path id="DejaVuSans-34" d="M 2419 4116 
L 825 1625 
L 2419 1625 
L 2419 4116 
z
M 2253 4666 
L 3047 4666 
L 3047 1625 
L 3713 1625 
L 3713 1100 
L 3047 1100 
L 3047 0 
L 2419 0 
L 2419 1100 
L 313 1100 
L 313 1709 
L 2253 4666 
z
" transform="scale(0.015625)"/>
       </defs>
       <use xlink:href="#DejaVuSans-31"/>
       <use xlink:href="#DejaVuSans-34" x="63.623047"/>
       <use xlink:href="#DejaVuSans-30" x="127.246094"/>
      </g>
     </g>
    </g>
    <g id="ytick_3">
     <g id="line2d_9">
      <g>
       <use xlink:href="#me00c1cbc68" x="126" y="271.18669" style="stroke: #000000; stroke-width: 0.8"/>
      </g>
     </g>
     <g id="text_10">
      <!-- 150 -->
      <g transform="translate(99.9125 274.985909) scale(0.1 -0.1)">
       <use xlink:href="#DejaVuSans-31"/>
       <use xlink:href="#DejaVuSans-35" x="63.623047"/>
       <use xlink:href="#DejaVuSans-30" x="127.246094"/>
      </g>
     </g>
    </g>
    <g id="ytick_4">
     <g id="line2d_10">
      <g>
       <use xlink:href="#me00c1cbc68" x="126" y="204.520031" style="stroke: #000000; stroke-width: 0.8"/>
      </g>
     </g>
     <g id="text_11">
      <!-- 160 -->
      <g transform="translate(99.9125 208.31925) scale(0.1 -0.1)">
       <defs>
        <path id="DejaVuSans-36" d="M 2113 2584 
Q 1688 2584 1439 2293 
Q 1191 2003 1191 1497 
Q 1191 994 1439 701 
Q 1688 409 2113 409 
Q 2538 409 2786 701 
Q 3034 994 3034 1497 
Q 3034 2003 2786 2293 
Q 2538 2584 2113 2584 
z
M 3366 4563 
L 3366 3988 
Q 3128 4100 2886 4159 
Q 2644 4219 2406 4219 
Q 1781 4219 1451 3797 
Q 1122 3375 1075 2522 
Q 1259 2794 1537 2939 
Q 1816 3084 2150 3084 
Q 2853 3084 3261 2657 
Q 3669 2231 3669 1497 
Q 3669 778 3244 343 
Q 2819 -91 2113 -91 
Q 1303 -91 875 529 
Q 447 1150 447 2328 
Q 447 3434 972 4092 
Q 1497 4750 2381 4750 
Q 2619 4750 2861 4703 
Q 3103 4656 3366 4563 
z
" transform="scale(0.015625)"/>
       </defs>
       <use xlink:href="#DejaVuSans-31"/>
       <use xlink:href="#DejaVuSans-36" x="63.623047"/>
       <use xlink:href="#DejaVuSans-30" x="127.246094"/>
      </g>
     </g>
    </g>
    <g id="ytick_5">
     <g id="line2d_11">
      <g>
       <use xlink:href="#me00c1cbc68" x="126" y="137.853372" style="stroke: #000000; stroke-width: 0.8"/>
      </g>
     </g>
     <g id="text_12">
      <!-- 170 -->
      <g transform="translate(99.9125 141.65259) scale(0.1 -0.1)">
       <use xlink:href="#DejaVuSans-31"/>
       <use xlink:href="#DejaVuSans-37" x="63.623047"/>
       <use xlink:href="#DejaVuSans-30" x="127.246094"/>
      </g>
     </g>
    </g>
    <g id="ytick_6">
     <g id="line2d_12">
      <g>
       <use xlink:href="#me00c1cbc68" x="126" y="71.186712" style="stroke: #000000; stroke-width: 0.8"/>
      </g>
     </g>
     <g id="text_13">
      <!-- 180 -->
      <g transform="translate(99.9125 74.985931) scale(0.1 -0.1)">
       <defs>
        <path id="DejaVuSans-38" d="M 2034 2216 
Q 1584 2216 1326 1975 
Q 1069 1734 1069 1313 
Q 1069 891 1326 650 
Q 1584 409 2034 409 
Q 2484 409 2743 651 
Q 3003 894 3003 1313 
Q 3003 1734 2745 1975 
Q 2488 2216 2034 2216 
z
M 1403 2484 
Q 997 2584 770 2862 
Q 544 3141 544 3541 
Q 544 4100 942 4425 
Q 1341 4750 2034 4750 
Q 2731 4750 3128 4425 
Q 3525 4100 3525 3541 
Q 3525 3141 3298 2862 
Q 3072 2584 2669 2484 
Q 3125 2378 3379 2068 
Q 3634 1759 3634 1313 
Q 3634 634 3220 271 
Q 2806 -91 2034 -91 
Q 1263 -91 848 271 
Q 434 634 434 1313 
Q 434 1759 690 2068 
Q 947 2378 1403 2484 
z
M 1172 3481 
Q 1172 3119 1398 2916 
Q 1625 2713 2034 2713 
Q 2441 2713 2670 2916 
Q 2900 3119 2900 3481 
Q 2900 3844 2670 4047 
Q 2441 4250 2034 4250 
Q 1625 4250 1398 4047 
Q 1172 3844 1172 3481 
z
" transform="scale(0.015625)"/>
       </defs>
       <use xlink:href="#DejaVuSans-31"/>
       <use xlink:href="#DejaVuSans-38" x="63.623047"/>
       <use xlink:href="#DejaVuSans-30" x="127.246094"/>
      </g>
     </g>
    </g>
    <g id="text_14">
     <!-- Preis -->
     <g transform="translate(93.832812 266.460625) rotate(-90) scale(0.1 -0.1)">
      <defs>
       <path id="DejaVuSans-50" d="M 1259 4147 
L 1259 2394 
L 2053 2394 
Q 2494 2394 2734 2622 
Q 2975 2850 2975 3272 
Q 2975 3691 2734 3919 
Q 2494 4147 2053 4147 
L 1259 4147 
z
M 628 4666 
L 2053 4666 
Q 2838 4666 3239 4311 
Q 3641 3956 3641 3272 
Q 3641 2581 3239 2228 
Q 2838 1875 2053 1875 
L 1259 1875 
L 1259 0 
L 628 0 
L 628 4666 
z
" transform="scale(0.015625)"/>
       <path id="DejaVuSans-72" d="M 2631 2963 
Q 2534 3019 2420 3045 
Q 2306 3072 2169 3072 
Q 1681 3072 1420 2755 
Q 1159 2438 1159 1844 
L 1159 0 
L 581 0 
L 581 3500 
L 1159 3500 
L 1159 2956 
Q 1341 3275 1631 3429 
Q 1922 3584 2338 3584 
Q 2397 3584 2469 3576 
Q 2541 3569 2628 3553 
L 2631 2963 
z
" transform="scale(0.015625)"/>
       <path id="DejaVuSans-65" d="M 3597 1894 
L 3597 1613 
L 953 1613 
Q 991 1019 1311 708 
Q 1631 397 2203 397 
Q 2534 397 2845 478 
Q 3156 559 3463 722 
L 3463 178 
Q 3153 47 2828 -22 
Q 2503 -91 2169 -91 
Q 1331 -91 842 396 
Q 353 884 353 1716 
Q 353 2575 817 3079 
Q 1281 3584 2069 3584 
Q 2775 3584 3186 3129 
Q 3597 2675 3597 1894 
z
M 3022 2063 
Q 3016 2534 2758 2815 
Q 2500 3097 2075 3097 
Q 1594 3097 1305 2825 
Q 1016 2553 972 2059 
L 3022 2063 
z
" transform="scale(0.015625)"/>
       <path id="DejaVuSans-69" d="M 603 3500 
L 1178 3500 
L 1178 0 
L 603 0 
L 603 3500 
z
M 603 4863 
L 1178 4863 
L 1178 4134 
L 603 4134 
L 603 4863 
z
" transform="scale(0.015625)"/>
       <path id="DejaVuSans-73" d="M 2834 3397 
L 2834 2853 
Q 2591 2978 2328 3040 
Q 2066 3103 1784 3103 
Q 1356 3103 1142 2972 
Q 928 2841 928 2578 
Q 928 2378 1081 2264 
Q 1234 2150 1697 2047 
L 1894 2003 
Q 2506 1872 2764 1633 
Q 3022 1394 3022 966 
Q 3022 478 2636 193 
Q 2250 -91 1575 -91 
Q 1294 -91 989 -36 
Q 684 19 347 128 
L 347 722 
Q 666 556 975 473 
Q 1284 391 1588 391 
Q 1994 391 2212 530 
Q 2431 669 2431 922 
Q 2431 1156 2273 1281 
Q 2116 1406 1581 1522 
L 1381 1569 
Q 847 1681 609 1914 
Q 372 2147 372 2553 
Q 372 3047 722 3315 
Q 1072 3584 1716 3584 
Q 2034 3584 2315 3537 
Q 2597 3491 2834 3397 
z
" transform="scale(0.015625)"/>
      </defs>
      <use xlink:href="#DejaVuSans-50"/>
      <use xlink:href="#DejaVuSans-72" x="58.552734"/>
      <use xlink:href="#DejaVuSans-65" x="97.416016"/>
      <use xlink:href="#DejaVuSans-69" x="158.939453"/>
      <use xlink:href="#DejaVuSans-73" x="186.722656"/>
     </g>
    </g>
   </g>
   <g id="line2d_13">
    <path d="M 161.509091 162.986731 
L 163.567589 174.453404 
L 165.626087 188.453342 
L 171.801581 193.720065 
L 173.860079 205.986706 
L 175.918577 206.586681 
L 177.977075 209.720022 
L 180.035573 135.65336 
L 186.211067 105.986717 
L 188.269565 107.120038 
L 190.328063 98.920067 
L 192.386561 118.520081 
L 194.445059 121.920044 
L 200.620553 126.786682 
L 202.679051 105.653363 
L 204.737549 95.986718 
L 206.796047 123.720072 
L 208.854545 146.920041 
L 215.03004 145.320005 
L 217.088538 119.253418 
L 219.147036 120.853353 
L 221.205534 145.320005 
L 223.264032 155.853349 
L 231.498024 175.719985 
L 233.556522 204.053315 
L 235.61502 186.25333 
L 237.673518 172.18666 
L 243.849012 170.386734 
L 245.90751 183.18672 
L 247.966008 160.786719 
L 250.024506 162.986731 
L 252.083004 183.386712 
L 258.258498 209.186677 
L 260.316996 221.586679 
L 262.375494 184.853387 
L 264.433992 214.386668 
L 266.49249 239.653389 
L 272.667984 267.05339 
L 276.78498 207.253388 
L 278.843478 200.386731 
L 280.901976 177.986729 
L 287.07747 168.653336 
L 289.135968 145.719989 
L 291.194466 136.453327 
L 293.252964 110.719992 
L 295.311462 106.3867 
L 301.486957 100.520002 
L 303.545455 78.12 
L 305.603953 86.053349 
L 307.662451 107.120038 
L 309.720949 109.120058 
L 315.896443 81.586695 
L 320.013439 125.653361 
L 322.071937 123.586711 
L 324.130435 137.253396 
L 330.305929 166.186702 
L 332.364427 153.453345 
L 334.422925 135.186746 
L 336.481423 169.253413 
L 344.715415 170.719986 
L 346.773913 155.186744 
L 348.832411 156.320065 
L 350.890909 161.720048 
L 352.949407 192.586744 
L 359.124901 185.32 
L 361.183399 225.853342 
L 363.241897 227.386646 
L 365.300395 180.253371 
L 367.358893 220.186737 
L 373.534387 218.119985 
L 375.592885 207.986726 
L 377.651383 164.386673 
L 379.709881 226.053333 
L 381.768379 222.65337 
L 387.943874 257.453375 
L 390.002372 241.120064 
L 392.06087 294.520021 
L 394.119368 320.786701 
L 396.177866 290.453351 
L 402.35336 300.920065 
L 404.411858 276.25332 
L 406.470356 332.386635 
L 408.528854 355.519974 
L 410.587352 353.920039 
L 416.762846 317.120015 
L 418.821344 335.453346 
L 420.879842 334.386655 
L 422.93834 312.653361 
L 424.996838 273.586694 
L 433.23083 278.920047 
L 435.289328 279.786645 
L 437.347826 263.11998 
L 439.406324 301.986654 
L 445.581818 296.920025 
L 447.640316 279.786645 
L 449.698814 284.786644 
L 453.81581 356.986648 
L 459.991304 391.986644 
L 462.049802 386.120048 
L 464.1083 368.320062 
L 466.166798 404.120025 
L 468.225296 394.120026 
L 476.459289 365.386713 
L 478.517787 368.853306 
L 480.576285 349.386653 
L 482.634783 326.78666 
L 488.810277 326.78666 
L 490.868775 354.919998 
L 492.927273 342.986711 
L 494.985771 359.720006 
L 497.044269 344.986731 
L 505.278261 327.453367 
L 507.336759 318.386697 
L 509.395257 295.51998 
L 511.453755 290.920066 
L 517.629249 305.386719 
L 519.687747 298.786683 
L 521.746245 301.253317 
L 523.804743 281.386681 
L 525.863241 270.053369 
L 532.038735 290.719973 
L 534.097233 264.520024 
L 536.155731 250.920071 
L 538.214229 235.519987 
L 540.272727 243.920051 
L 546.448221 251.520046 
L 548.506719 260.519984 
L 550.565217 225.920073 
L 552.623715 222.186655 
L 554.682213 187.786736 
L 560.857708 194.453402 
L 562.916206 204.453401 
L 564.974704 163.653336 
L 567.033202 165.786718 
L 569.0917 168.853327 
L 575.267194 172.0534 
L 577.325692 171.720047 
L 579.38419 142.920001 
L 581.442688 147.92 
L 583.501186 123.853332 
L 589.67668 116.586691 
L 591.735178 117.653382 
L 593.793676 107.520021 
L 595.852174 110.186749 
L 597.910672 127.720011 
L 604.086166 154.053321 
L 606.144664 156.320065 
L 608.203162 154.320045 
L 610.26166 137.65338 
L 612.320158 180.386733 
L 618.495652 195.319999 
L 620.55415 211.786672 
L 622.612648 223.053354 
L 624.671146 218.119985 
L 626.729644 232.453377 
L 634.963636 240.986702 
L 637.022134 231.453317 
L 639.080632 241.453315 
L 641.13913 222.053395 
L 647.314625 181.653416 
L 649.373123 245.586717 
L 651.431621 235.78671 
L 653.490119 255.386725 
L 655.548617 266.520044 
L 661.724111 241.320055 
L 663.782609 225.186736 
L 665.841107 246.386685 
L 667.899605 252.919989 
L 669.958103 268.320073 
L 676.133597 266.053329 
L 678.192095 259.453395 
L 680.250593 272.253381 
L 682.309091 321.320047 
L 684.367589 349.853369 
L 690.543083 321.520038 
L 692.601581 297.186647 
L 694.660079 295.186728 
L 696.718577 301.653402 
L 698.777075 337.253374 
L 704.952569 335.053362 
L 707.011067 344.653377 
L 709.069565 348.92004 
L 711.128063 317.919982 
L 713.186561 348.653316 
L 721.420553 312.853352 
L 723.479051 312.120015 
L 725.537549 315.253356 
L 727.596047 289.38666 
L 733.771542 274.853377 
L 735.83004 255.586716 
L 737.888538 275.519982 
L 739.947036 305.853333 
L 742.005534 232.919991 
L 748.181028 248.92005 
L 750.239526 266.853398 
L 752.298024 304.320028 
L 754.356522 345.319983 
L 756.41502 348.653316 
L 762.590514 345.053361 
L 764.649012 341.186683 
L 766.70751 372.053378 
L 768.766008 292.053387 
L 770.824506 273.18671 
L 777 282.653364 
L 779.058498 270.920068 
L 781.116996 279.253401 
L 783.175494 266.386683 
L 785.233992 262.586736 
L 791.409486 284.453392 
L 793.467984 269.986739 
L 795.526482 264.053309 
L 799.643478 283.786685 
L 805.818972 309.720011 
L 807.87747 330.053363 
L 809.935968 284.32003 
L 811.994466 282.453372 
L 814.052964 285.786705 
L 820.228458 293.653322 
L 822.286957 318.453327 
L 824.345455 331.586667 
L 826.403953 320.186726 
L 828.462451 323.453327 
L 834.637945 307.919983 
L 836.696443 301.386679 
L 838.754941 316.453307 
L 840.813439 361.18668 
L 842.871937 374.453382 
L 849.047431 388.720043 
L 851.105929 389.186657 
L 853.164427 368.1867 
L 855.222925 389.653372 
L 857.281423 392.120006 
L 865.515415 404.320017 
L 867.573913 430.92 
L 869.632411 407.120005 
L 871.690909 404.986724 
L 871.690909 404.986724 
" clip-path="url(#p3a7cb8f991)" style="fill: none; stroke: #0000ff; stroke-width: 1.5; stroke-linecap: square"/>
   </g>
   <g id="line2d_14">
    <path d="M 161.509091 112.515443 
L 163.567589 118.221212 
L 165.626087 125.412374 
L 171.801581 133.97825 
L 173.860079 143.221922 
L 177.977075 162.755713 
L 180.035573 171.902949 
L 186.211067 175.661798 
L 188.269565 173.990961 
L 190.328063 168.917007 
L 194.445059 153.903174 
L 200.620553 147.089617 
L 204.737549 135.666991 
L 206.796047 129.621154 
L 208.854545 125.462117 
L 215.03004 124.125956 
L 217.088538 124.592366 
L 221.205534 124.628581 
L 223.264032 125.972168 
L 231.498024 128.709594 
L 233.556522 133.382242 
L 237.673518 148.230568 
L 243.849012 154.611386 
L 245.90751 159.762447 
L 247.966008 164.543941 
L 250.024506 167.398249 
L 252.083004 168.990962 
L 258.258498 170.869522 
L 260.316996 174.338048 
L 262.375494 179.355137 
L 264.433992 182.864353 
L 266.49249 187.036614 
L 272.667984 192.834038 
L 274.726482 200.965344 
L 276.78498 208.30065 
L 278.843478 212.921418 
L 280.901976 215.084503 
L 287.07747 214.115774 
L 289.135968 210.599742 
L 291.194466 204.233267 
L 293.252964 195.85955 
L 295.311462 185.136285 
L 301.486957 173.322728 
L 303.545455 161.174902 
L 305.603953 148.22833 
L 307.662451 136.097797 
L 309.720949 126.508056 
L 315.896443 119.265117 
L 317.954941 112.368043 
L 320.013439 107.556439 
L 322.071937 105.640647 
L 324.130435 105.576967 
L 330.305929 107.577903 
L 332.364427 112.525005 
L 334.422925 118.275127 
L 336.481423 123.145426 
L 344.715415 129.224731 
L 346.773913 135.71826 
L 348.832411 141.160358 
L 350.890909 145.682859 
L 352.949407 149.634681 
L 359.124901 154.817074 
L 361.183399 159.991329 
L 363.241897 167.330399 
L 365.300395 175.657526 
L 367.358893 181.302769 
L 373.534387 187.344842 
L 375.592885 193.03698 
L 377.651383 197.553479 
L 379.709881 198.401461 
L 381.768379 200.581534 
L 387.943874 203.149283 
L 392.06087 212.916128 
L 394.119368 220.948659 
L 396.177866 232.007719 
L 402.35336 242.536486 
L 404.411858 252.775234 
L 406.470356 260.659856 
L 408.528854 269.934249 
L 410.587352 280.847334 
L 416.762846 292.074444 
L 418.821344 300.620586 
L 420.879842 308.032491 
L 422.93834 314.119628 
L 424.996838 317.64095 
L 433.23083 316.9069 
L 435.289328 313.760436 
L 437.347826 309.229187 
L 439.406324 303.049683 
L 445.581818 298.553834 
L 449.698814 291.502036 
L 451.757312 288.40084 
L 453.81581 287.942772 
L 459.991304 291.434999 
L 462.049802 299.414837 
L 466.166798 319.295612 
L 468.225296 330.500445 
L 476.459289 341.27142 
L 478.517787 349.374751 
L 480.576285 355.44724 
L 482.634783 358.591466 
L 488.810277 358.247635 
L 490.868775 355.628108 
L 492.927273 353.360143 
L 494.985771 350.713863 
L 497.044269 349.039974 
L 505.278261 347.205257 
L 507.336759 344.343726 
L 509.395257 340.441545 
L 511.453755 334.696001 
L 517.629249 327.8209 
L 521.746245 315.486002 
L 523.804743 310.237589 
L 525.863241 304.603638 
L 532.038735 298.403281 
L 534.097233 293.471335 
L 536.155731 288.048769 
L 538.214229 281.859602 
L 540.272727 274.617781 
L 546.448221 267.651026 
L 548.506719 261.734889 
L 550.565217 257.419704 
L 552.623715 252.323065 
L 554.682213 246.866726 
L 560.857708 239.410266 
L 562.916206 231.551787 
L 564.974704 224.489715 
L 569.0917 207.05889 
L 575.267194 198.76228 
L 577.325692 191.531242 
L 579.38419 185.432814 
L 581.442688 178.725051 
L 583.501186 172.398045 
L 589.67668 165.233231 
L 595.852174 142.6841 
L 597.910672 135.878681 
L 604.086166 130.9741 
L 606.144664 129.182006 
L 608.203162 129.642516 
L 610.26166 131.455159 
L 612.320158 133.051838 
L 618.495652 137.022988 
L 620.55415 143.103819 
L 622.612648 151.184567 
L 626.729644 170.393448 
L 634.963636 180.38541 
L 637.022134 190.474114 
L 639.080632 199.419934 
L 641.13913 207.689179 
L 649.373123 215.719777 
L 651.431621 218.672048 
L 653.490119 221.387908 
L 655.548617 225.024789 
L 661.724111 229.694385 
L 663.782609 233.231169 
L 669.958103 238.270841 
L 676.133597 241.022 
L 678.192095 244.076403 
L 680.250593 246.757982 
L 682.309091 249.814521 
L 684.367589 255.87582 
L 690.543083 265.204127 
L 692.601581 274.390425 
L 694.660079 281.513736 
L 696.718577 286.729596 
L 698.777075 290.72628 
L 704.952569 295.805421 
L 707.011067 301.105103 
L 711.128063 312.758748 
L 713.186561 316.563272 
L 719.362055 320.64042 
L 721.420553 322.954568 
L 723.479051 323.464008 
L 725.537549 322.699644 
L 727.596047 321.32025 
L 733.771542 318.042866 
L 735.83004 312.86739 
L 739.947036 298.602764 
L 742.005534 294.04059 
L 748.181028 286.904564 
L 750.239526 279.613203 
L 752.298024 273.696557 
L 754.356522 271.30164 
L 756.41502 273.826562 
L 762.590514 279.613915 
L 766.70751 294.792034 
L 768.766008 304.216472 
L 770.824506 309.240784 
L 777 310.014506 
L 779.058498 308.470113 
L 781.116996 304.733338 
L 783.175494 300.305441 
L 785.233992 294.906679 
L 791.409486 289.004987 
L 793.467984 284.47506 
L 795.526482 280.22508 
L 799.643478 276.103072 
L 805.818972 273.524642 
L 807.87747 273.664107 
L 809.935968 276.795617 
L 811.994466 278.92259 
L 814.052964 280.223148 
L 820.228458 281.068993 
L 822.286957 282.017581 
L 824.345455 284.465599 
L 828.462451 292.697613 
L 834.637945 296.928163 
L 836.696443 299.981751 
L 840.813439 303.318441 
L 842.871937 307.476868 
L 849.047431 313.809061 
L 851.105929 322.074746 
L 853.164427 331.143349 
L 857.281423 346.70426 
L 865.515415 354.106298 
L 867.573913 361.546991 
L 869.632411 370.159559 
L 871.690909 377.55997 
L 871.690909 377.55997 
" clip-path="url(#p3a7cb8f991)" style="fill: none; stroke: #ff0000; stroke-width: 1.5; stroke-linecap: square"/>
   </g>
   <g id="line2d_15">
    <path d="M 161.509091 137.442096 
L 163.567589 147.155637 
L 165.626087 158.577246 
L 171.801581 170.900345 
L 175.918577 193.174919 
L 177.977075 202.18625 
L 180.035573 209.41271 
L 186.211067 201.548942 
L 190.328063 168.380407 
L 192.386561 154.051693 
L 194.445059 146.53023 
L 200.620553 143.290484 
L 202.679051 142.845335 
L 204.737549 139.635394 
L 206.796047 134.301024 
L 208.854545 134.101032 
L 215.03004 139.820534 
L 217.088538 146.190163 
L 219.147036 146.918515 
L 221.205534 145.799029 
L 223.264032 148.634315 
L 231.498024 154.23073 
L 233.556522 163.212561 
L 235.61502 176.688308 
L 237.673518 186.055372 
L 243.849012 189.669365 
L 245.90751 190.335971 
L 247.966008 192.237623 
L 250.024506 190.327833 
L 252.083004 187.829562 
L 258.258498 189.263583 
L 260.316996 196.410901 
L 262.375494 206.395845 
L 264.433992 208.885163 
L 266.49249 213.463308 
L 272.667984 222.558562 
L 274.726482 236.485359 
L 276.78498 244.138557 
L 278.843478 242.661811 
L 280.901976 237.099983 
L 287.07747 227.325713 
L 289.135968 216.360748 
L 293.252964 189.813917 
L 295.311462 174.575576 
L 301.486957 160.736161 
L 303.545455 148.949765 
L 305.603953 136.116515 
L 307.662451 126.645182 
L 309.720949 123.747436 
L 315.896443 123.928202 
L 317.954941 120.204143 
L 320.013439 119.666525 
L 322.071937 124.132873 
L 324.130435 129.111409 
L 330.305929 135.655699 
L 332.364427 146.60276 
L 334.422925 154.818397 
L 336.481423 157.279334 
L 344.715415 163.319169 
L 346.773913 169.87058 
L 348.832411 172.62235 
L 350.890909 173.724136 
L 352.949407 175.065078 
L 359.124901 181.749546 
L 361.183399 187.794162 
L 365.300395 211.573558 
L 367.358893 212.874726 
L 373.534387 217.279327 
L 375.592885 221.77304 
L 377.651383 223.653126 
L 379.709881 216.485565 
L 381.768379 218.521901 
L 387.943874 222.959258 
L 390.002372 233.536955 
L 392.06087 241.335823 
L 394.119368 256.188726 
L 396.177866 275.596988 
L 402.35336 287.466189 
L 404.411858 296.213543 
L 406.470356 297.850506 
L 408.528854 306.920634 
L 410.587352 321.327574 
L 416.762846 334.605669 
L 418.821344 338.151608 
L 420.879842 340.864315 
L 422.93834 342.741248 
L 433.23083 329.130613 
L 435.289328 318.403279 
L 437.347826 310.079 
L 439.406324 301.180685 
L 445.581818 300.761781 
L 447.640316 302.50881 
L 451.757312 300.420798 
L 453.81581 306.07072 
L 459.991304 319.759276 
L 462.049802 340.10219 
L 464.1083 357.858535 
L 466.166798 367.934828 
L 468.225296 379.927727 
L 476.459289 388.673962 
L 478.517787 389.298962 
L 480.576285 387.553662 
L 482.634783 381.846977 
L 488.810277 371.718092 
L 490.868775 362.008824 
L 492.927273 359.534459 
L 494.985771 357.940933 
L 497.044269 359.911249 
L 505.278261 360.042983 
L 507.336759 356.20316 
L 509.395257 350.019283 
L 511.453755 340.060482 
L 517.629249 329.862933 
L 519.687747 324.216978 
L 521.746245 320.069436 
L 523.804743 317.610737 
L 525.863241 312.557027 
L 532.038735 305.436463 
L 534.097233 302.707479 
L 536.155731 297.342083 
L 538.214229 289.526939 
L 540.272727 279.562544 
L 546.448221 272.278507 
L 548.506719 268.71792 
L 550.565217 268.722701 
L 552.623715 263.681198 
L 554.682213 257.055527 
L 560.857708 245.013903 
L 562.916206 234.579232 
L 564.974704 228.5396 
L 567.033202 217.88032 
L 569.0917 207.907482 
L 575.267194 200.63199 
L 577.325692 196.215283 
L 579.38419 193.505221 
L 581.442688 186.729709 
L 583.501186 180.64308 
L 589.67668 171.736424 
L 591.735178 162.236609 
L 595.852174 147.101926 
L 597.910672 141.584959 
L 604.086166 140.797707 
L 606.144664 146.373065 
L 608.203162 153.446733 
L 610.26166 159.264095 
L 612.320158 160.584896 
L 618.495652 167.649206 
L 620.55415 178.15305 
L 624.671146 203.796459 
L 626.729644 213.615082 
L 634.963636 223.046742 
L 637.022134 232.189197 
L 639.080632 237.858955 
L 641.13913 243.055997 
L 647.314625 243.706225 
L 649.373123 235.425891 
L 651.431621 237.081368 
L 653.490119 240.329964 
L 655.548617 246.92888 
L 663.782609 258.429123 
L 665.841107 255.967983 
L 667.899605 255.934718 
L 669.958103 258.054774 
L 676.133597 263.30278 
L 678.192095 268.23503 
L 680.250593 270.883142 
L 682.309091 274.527653 
L 684.367589 286.765505 
L 690.543083 304.99823 
L 692.601581 316.716572 
L 694.660079 319.32318 
L 696.718577 317.89038 
L 698.777075 316.64272 
L 704.952569 322.291523 
L 707.011067 328.977008 
L 711.128063 343.484147 
L 713.186561 343.38822 
L 719.362055 346.361853 
L 721.420553 345.086218 
L 723.479051 340.87286 
L 725.537549 336.331845 
L 727.596047 333.16524 
L 733.771542 326.387897 
L 735.83004 316.938944 
L 737.888538 304.883586 
L 739.947036 297.851828 
L 742.005534 299.46926 
L 748.181028 290.57125 
L 750.239526 282.35124 
L 752.298024 279.285343 
L 754.356522 285.417035 
L 756.41502 301.048442 
L 762.590514 317.640848 
L 764.649012 330.6393 
L 766.70751 339.144955 
L 768.766008 350.14471 
L 770.824506 345.437272 
L 777 332.523862 
L 779.058498 321.125955 
L 781.116996 310.481832 
L 785.233992 297.076377 
L 791.409486 291.086692 
L 793.467984 290.356508 
L 795.526482 288.994306 
L 799.643478 286.498375 
L 805.818972 287.626406 
L 807.87747 294.550844 
L 809.935968 305.899821 
L 811.994466 308.300232 
L 814.052964 306.603963 
L 820.228458 304.502727 
L 822.286957 304.185242 
L 824.345455 309.099487 
L 826.403953 317.333943 
L 828.462451 323.051309 
L 834.637945 327.308917 
L 836.696443 327.437396 
L 838.754941 324.907082 
L 840.813439 324.726723 
L 842.871937 333.648536 
L 849.047431 346.588599 
L 851.105929 361.029718 
L 853.164427 373.298394 
L 855.222925 378.561658 
L 857.281423 384.273327 
L 865.515415 389.659578 
L 867.573913 396.192984 
L 869.632411 406.843312 
L 871.690909 412.571156 
L 871.690909 412.571156 
" clip-path="url(#p3a7cb8f991)" style="fill: none; stroke: #008000; stroke-width: 1.5; stroke-linecap: square"/>
   </g>
   <g id="line2d_16">
    <path d="M 161.509091 101.799298 
L 163.567589 108.717531 
L 165.626087 116.39087 
L 171.801581 127.224609 
L 180.035573 168.574092 
L 186.211067 167.159907 
L 188.269565 162.42775 
L 190.328063 151.361569 
L 192.386561 145.667193 
L 194.445059 137.87982 
L 200.620553 135.615823 
L 202.679051 131.855854 
L 204.737549 129.908121 
L 206.796047 124.088114 
L 208.854545 120.718058 
L 215.03004 119.110596 
L 217.088538 122.056864 
L 219.147036 123.05662 
L 221.205534 122.711263 
L 223.264032 122.192464 
L 231.498024 124.843628 
L 233.556522 129.253824 
L 235.61502 136.861957 
L 237.673518 145.757525 
L 243.849012 152.10752 
L 245.90751 155.64878 
L 247.966008 159.515255 
L 250.024506 161.095862 
L 252.083004 162.820613 
L 258.258498 163.660355 
L 260.316996 167.051265 
L 262.375494 173.654149 
L 264.433992 178.822402 
L 266.49249 182.568027 
L 272.667984 188.202284 
L 274.726482 195.855888 
L 276.78498 206.469087 
L 278.843478 209.501211 
L 280.901976 210.030895 
L 287.07747 206.312735 
L 289.135968 202.5194 
L 291.194466 194.09065 
L 293.252964 186.456373 
L 295.311462 174.060643 
L 301.486957 163.890153 
L 303.545455 151.306637 
L 305.603953 140.195392 
L 307.662451 128.465352 
L 309.720949 120.076172 
L 315.896443 114.520549 
L 317.954941 108.993715 
L 320.013439 103.866457 
L 322.071937 101.397687 
L 324.130435 101.783022 
L 330.305929 104.431337 
L 332.364427 108.268109 
L 334.422925 114.7535 
L 336.481423 118.757101 
L 344.715415 122.500285 
L 348.832411 133.391092 
L 350.890909 137.953164 
L 352.949407 141.077655 
L 359.124901 144.731321 
L 361.183399 151.815162 
L 363.241897 157.813697 
L 365.300395 169.462763 
L 367.358893 173.591791 
L 373.534387 179.80639 
L 375.592885 183.960748 
L 377.651383 190.747246 
L 379.709881 189.110385 
L 381.768379 190.121839 
L 387.943874 192.701083 
L 390.002372 198.748954 
L 392.06087 208.239106 
L 394.119368 214.649323 
L 396.177866 229.007028 
L 402.35336 240.167915 
L 404.411858 253.325466 
L 406.470356 258.395351 
L 408.528854 266.025253 
L 410.587352 276.41842 
L 416.762846 289.280153 
L 418.821344 299.576173 
L 420.879842 306.07723 
L 422.93834 312.199768 
L 424.996838 315.915384 
L 433.23083 313.490356 
L 435.289328 309.516052 
L 437.347826 304.699565 
L 439.406324 300.689861 
L 445.581818 295.664837 
L 447.640316 295.842042 
L 449.698814 293.619346 
L 451.757312 293.266359 
L 453.81581 290.663922 
L 459.991304 294.843304 
L 462.049802 302.245443 
L 464.1083 315.824645 
L 466.166798 325.801858 
L 468.225296 335.20534 
L 476.459289 344.675045 
L 478.517787 351.253617 
L 480.576285 355.52567 
L 482.634783 356.034907 
L 488.810277 354.564062 
L 490.868775 350.333512 
L 492.927273 348.119157 
L 494.985771 347.034664 
L 497.044269 347.38053 
L 505.278261 347.847652 
L 507.336759 345.69067 
L 509.395257 341.724809 
L 511.453755 334.674639 
L 517.629249 327.720701 
L 519.687747 320.919758 
L 523.804743 312.061116 
L 525.863241 306.717794 
L 532.038735 300.045431 
L 534.097233 294.331524 
L 538.214229 281.846377 
L 540.272727 272.107202 
L 546.448221 265.197006 
L 548.506719 258.534205 
L 550.565217 255.039333 
L 552.623715 249.067043 
L 554.682213 243.490872 
L 560.857708 232.168547 
L 562.916206 224.319223 
L 569.0917 196.854932 
L 575.267194 187.75571 
L 579.38419 177.124607 
L 581.442688 170.075149 
L 583.501186 163.646622 
L 589.67668 154.471208 
L 591.735178 146.838051 
L 593.793676 137.851439 
L 595.852174 131.417113 
L 597.910672 124.448527 
L 604.086166 119.879232 
L 606.144664 117.565084 
L 608.203162 120.283081 
L 610.26166 123.361796 
L 612.320158 125.568725 
L 618.495652 126.474487 
L 620.55415 133.158141 
L 622.612648 140.418475 
L 624.671146 152.802202 
L 626.729644 162.396317 
L 634.963636 173.261795 
L 639.080632 192.473727 
L 641.13913 200.444612 
L 647.314625 206.207449 
L 649.373123 205.615612 
L 651.431621 205.969412 
L 653.490119 209.308645 
L 655.548617 214.181488 
L 661.724111 223.560658 
L 663.782609 227.809925 
L 665.841107 231.18466 
L 667.899605 231.553312 
L 669.958103 235.028756 
L 676.133597 237.930163 
L 678.192095 244.295926 
L 680.250593 247.698635 
L 682.309091 251.961127 
L 684.367589 255.030178 
L 690.543083 265.735845 
L 692.601581 276.528487 
L 694.660079 284.423485 
L 696.718577 286.621869 
L 698.777075 290.325075 
L 704.952569 292.577679 
L 707.011067 300.386211 
L 709.069565 306.007447 
L 711.128063 315.39862 
L 713.186561 317.089395 
L 719.362055 321.89337 
L 721.420553 322.414712 
L 723.479051 324.446572 
L 725.537549 321.901712 
L 727.596047 322.776549 
L 733.771542 317.626911 
L 735.83004 313.649556 
L 737.888538 303.621684 
L 739.947036 298.05538 
L 742.005534 291.772422 
L 748.181028 285.264651 
L 750.239526 277.147892 
L 752.298024 270.220504 
L 754.356522 267.292139 
L 756.41502 270.52395 
L 762.590514 279.115258 
L 766.70751 298.08895 
L 768.766008 304.240988 
L 770.824506 305.563416 
L 777 302.774313 
L 779.058498 296.033082 
L 781.116996 293.620159 
L 783.175494 288.879153 
L 785.233992 286.085981 
L 791.409486 281.315677 
L 793.467984 278.288537 
L 795.526482 275.802067 
L 799.643478 273.764612 
L 805.818972 271.6236 
L 807.87747 271.841801 
L 809.935968 275.683557 
L 811.994466 279.002343 
L 814.052964 279.43203 
L 820.228458 278.037174 
L 822.286957 279.655521 
L 824.345455 280.233625 
L 826.403953 285.828107 
L 828.462451 290.711428 
L 834.637945 296.697043 
L 836.696443 298.378968 
L 838.754941 300.336162 
L 840.813439 300.526388 
L 842.871937 302.779196 
L 849.047431 310.368408 
L 851.105929 319.777485 
L 853.164427 332.056028 
L 855.222925 339.127051 
L 857.281423 346.914831 
L 865.515415 353.193822 
L 869.632411 368.945265 
L 871.690909 377.868604 
L 871.690909 377.868604 
" clip-path="url(#p3a7cb8f991)" style="fill: none; stroke: #ffa500; stroke-width: 1.5; stroke-linecap: square"/>
   </g>
   <g id="patch_3">
    <path d="M 126 448.56 
L 126 60.48 
" style="fill: none; stroke: #000000; stroke-width: 0.8; stroke-linejoin: miter; stroke-linecap: square"/>
   </g>
   <g id="patch_4">
    <path d="M 907.2 448.56 
L 907.2 60.48 
" style="fill: none; stroke: #000000; stroke-width: 0.8; stroke-linejoin: miter; stroke-linecap: square"/>
   </g>
   <g id="patch_5">
    <path d="M 126 448.56 
L 907.2 448.56 
" style="fill: none; stroke: #000000; stroke-width: 0.8; stroke-linejoin: miter; stroke-linecap: square"/>
   </g>
   <g id="patch_6">
    <path d="M 126 60.48 
L 907.2 60.48 
" style="fill: none; stroke: #000000; stroke-width: 0.8; stroke-linejoin: miter; stroke-linecap: square"/>
   </g>
   <g id="text_15">
    <!-- Vergleich der Aktienkursvorhersage mit LSTM, GRU und CNN-LSTM -->
    <g transform="translate(316.32 54.48) scale(0.12 -0.12)">
     <defs>
      <path id="DejaVuSans-56" d="M 1831 0 
L 50 4666 
L 709 4666 
L 2188 738 
L 3669 4666 
L 4325 4666 
L 2547 0 
L 1831 0 
z
" transform="scale(0.015625)"/>
      <path id="DejaVuSans-67" d="M 2906 1791 
Q 2906 2416 2648 2759 
Q 2391 3103 1925 3103 
Q 1463 3103 1205 2759 
Q 947 2416 947 1791 
Q 947 1169 1205 825 
Q 1463 481 1925 481 
Q 2391 481 2648 825 
Q 2906 1169 2906 1791 
z
M 3481 434 
Q 3481 -459 3084 -895 
Q 2688 -1331 1869 -1331 
Q 1566 -1331 1297 -1286 
Q 1028 -1241 775 -1147 
L 775 -588 
Q 1028 -725 1275 -790 
Q 1522 -856 1778 -856 
Q 2344 -856 2625 -561 
Q 2906 -266 2906 331 
L 2906 616 
Q 2728 306 2450 153 
Q 2172 0 1784 0 
Q 1141 0 747 490 
Q 353 981 353 1791 
Q 353 2603 747 3093 
Q 1141 3584 1784 3584 
Q 2172 3584 2450 3431 
Q 2728 3278 2906 2969 
L 2906 3500 
L 3481 3500 
L 3481 434 
z
" transform="scale(0.015625)"/>
      <path id="DejaVuSans-6c" d="M 603 4863 
L 1178 4863 
L 1178 0 
L 603 0 
L 603 4863 
z
" transform="scale(0.015625)"/>
      <path id="DejaVuSans-63" d="M 3122 3366 
L 3122 2828 
Q 2878 2963 2633 3030 
Q 2388 3097 2138 3097 
Q 1578 3097 1268 2742 
Q 959 2388 959 1747 
Q 959 1106 1268 751 
Q 1578 397 2138 397 
Q 2388 397 2633 464 
Q 2878 531 3122 666 
L 3122 134 
Q 2881 22 2623 -34 
Q 2366 -91 2075 -91 
Q 1284 -91 818 406 
Q 353 903 353 1747 
Q 353 2603 823 3093 
Q 1294 3584 2113 3584 
Q 2378 3584 2631 3529 
Q 2884 3475 3122 3366 
z
" transform="scale(0.015625)"/>
      <path id="DejaVuSans-68" d="M 3513 2113 
L 3513 0 
L 2938 0 
L 2938 2094 
Q 2938 2591 2744 2837 
Q 2550 3084 2163 3084 
Q 1697 3084 1428 2787 
Q 1159 2491 1159 1978 
L 1159 0 
L 581 0 
L 581 4863 
L 1159 4863 
L 1159 2956 
Q 1366 3272 1645 3428 
Q 1925 3584 2291 3584 
Q 2894 3584 3203 3211 
Q 3513 2838 3513 2113 
z
" transform="scale(0.015625)"/>
      <path id="DejaVuSans-20" transform="scale(0.015625)"/>
      <path id="DejaVuSans-64" d="M 2906 2969 
L 2906 4863 
L 3481 4863 
L 3481 0 
L 2906 0 
L 2906 525 
Q 2725 213 2448 61 
Q 2172 -91 1784 -91 
Q 1150 -91 751 415 
Q 353 922 353 1747 
Q 353 2572 751 3078 
Q 1150 3584 1784 3584 
Q 2172 3584 2448 3432 
Q 2725 3281 2906 2969 
z
M 947 1747 
Q 947 1113 1208 752 
Q 1469 391 1925 391 
Q 2381 391 2643 752 
Q 2906 1113 2906 1747 
Q 2906 2381 2643 2742 
Q 2381 3103 1925 3103 
Q 1469 3103 1208 2742 
Q 947 2381 947 1747 
z
" transform="scale(0.015625)"/>
      <path id="DejaVuSans-41" d="M 2188 4044 
L 1331 1722 
L 3047 1722 
L 2188 4044 
z
M 1831 4666 
L 2547 4666 
L 4325 0 
L 3669 0 
L 3244 1197 
L 1141 1197 
L 716 0 
L 50 0 
L 1831 4666 
z
" transform="scale(0.015625)"/>
      <path id="DejaVuSans-6b" d="M 581 4863 
L 1159 4863 
L 1159 1991 
L 2875 3500 
L 3609 3500 
L 1753 1863 
L 3688 0 
L 2938 0 
L 1159 1709 
L 1159 0 
L 581 0 
L 581 4863 
z
" transform="scale(0.015625)"/>
      <path id="DejaVuSans-6e" d="M 3513 2113 
L 3513 0 
L 2938 0 
L 2938 2094 
Q 2938 2591 2744 2837 
Q 2550 3084 2163 3084 
Q 1697 3084 1428 2787 
Q 1159 2491 1159 1978 
L 1159 0 
L 581 0 
L 581 3500 
L 1159 3500 
L 1159 2956 
Q 1366 3272 1645 3428 
Q 1925 3584 2291 3584 
Q 2894 3584 3203 3211 
Q 3513 2838 3513 2113 
z
" transform="scale(0.015625)"/>
      <path id="DejaVuSans-76" d="M 191 3500 
L 800 3500 
L 1894 563 
L 2988 3500 
L 3597 3500 
L 2284 0 
L 1503 0 
L 191 3500 
z
" transform="scale(0.015625)"/>
      <path id="DejaVuSans-6f" d="M 1959 3097 
Q 1497 3097 1228 2736 
Q 959 2375 959 1747 
Q 959 1119 1226 758 
Q 1494 397 1959 397 
Q 2419 397 2687 759 
Q 2956 1122 2956 1747 
Q 2956 2369 2687 2733 
Q 2419 3097 1959 3097 
z
M 1959 3584 
Q 2709 3584 3137 3096 
Q 3566 2609 3566 1747 
Q 3566 888 3137 398 
Q 2709 -91 1959 -91 
Q 1206 -91 779 398 
Q 353 888 353 1747 
Q 353 2609 779 3096 
Q 1206 3584 1959 3584 
z
" transform="scale(0.015625)"/>
      <path id="DejaVuSans-4c" d="M 628 4666 
L 1259 4666 
L 1259 531 
L 3531 531 
L 3531 0 
L 628 0 
L 628 4666 
z
" transform="scale(0.015625)"/>
      <path id="DejaVuSans-53" d="M 3425 4513 
L 3425 3897 
Q 3066 4069 2747 4153 
Q 2428 4238 2131 4238 
Q 1616 4238 1336 4038 
Q 1056 3838 1056 3469 
Q 1056 3159 1242 3001 
Q 1428 2844 1947 2747 
L 2328 2669 
Q 3034 2534 3370 2195 
Q 3706 1856 3706 1288 
Q 3706 609 3251 259 
Q 2797 -91 1919 -91 
Q 1588 -91 1214 -16 
Q 841 59 441 206 
L 441 856 
Q 825 641 1194 531 
Q 1563 422 1919 422 
Q 2459 422 2753 634 
Q 3047 847 3047 1241 
Q 3047 1584 2836 1778 
Q 2625 1972 2144 2069 
L 1759 2144 
Q 1053 2284 737 2584 
Q 422 2884 422 3419 
Q 422 4038 858 4394 
Q 1294 4750 2059 4750 
Q 2388 4750 2728 4690 
Q 3069 4631 3425 4513 
z
" transform="scale(0.015625)"/>
      <path id="DejaVuSans-54" d="M -19 4666 
L 3928 4666 
L 3928 4134 
L 2272 4134 
L 2272 0 
L 1638 0 
L 1638 4134 
L -19 4134 
L -19 4666 
z
" transform="scale(0.015625)"/>
      <path id="DejaVuSans-4d" d="M 628 4666 
L 1569 4666 
L 2759 1491 
L 3956 4666 
L 4897 4666 
L 4897 0 
L 4281 0 
L 4281 4097 
L 3078 897 
L 2444 897 
L 1241 4097 
L 1241 0 
L 628 0 
L 628 4666 
z
" transform="scale(0.015625)"/>
      <path id="DejaVuSans-2c" d="M 750 794 
L 1409 794 
L 1409 256 
L 897 -744 
L 494 -744 
L 750 256 
L 750 794 
z
" transform="scale(0.015625)"/>
      <path id="DejaVuSans-47" d="M 3809 666 
L 3809 1919 
L 2778 1919 
L 2778 2438 
L 4434 2438 
L 4434 434 
Q 4069 175 3628 42 
Q 3188 -91 2688 -91 
Q 1594 -91 976 548 
Q 359 1188 359 2328 
Q 359 3472 976 4111 
Q 1594 4750 2688 4750 
Q 3144 4750 3555 4637 
Q 3966 4525 4313 4306 
L 4313 3634 
Q 3963 3931 3569 4081 
Q 3175 4231 2741 4231 
Q 1884 4231 1454 3753 
Q 1025 3275 1025 2328 
Q 1025 1384 1454 906 
Q 1884 428 2741 428 
Q 3075 428 3337 486 
Q 3600 544 3809 666 
z
" transform="scale(0.015625)"/>
      <path id="DejaVuSans-52" d="M 2841 2188 
Q 3044 2119 3236 1894 
Q 3428 1669 3622 1275 
L 4263 0 
L 3584 0 
L 2988 1197 
Q 2756 1666 2539 1819 
Q 2322 1972 1947 1972 
L 1259 1972 
L 1259 0 
L 628 0 
L 628 4666 
L 2053 4666 
Q 2853 4666 3247 4331 
Q 3641 3997 3641 3322 
Q 3641 2881 3436 2590 
Q 3231 2300 2841 2188 
z
M 1259 4147 
L 1259 2491 
L 2053 2491 
Q 2509 2491 2742 2702 
Q 2975 2913 2975 3322 
Q 2975 3731 2742 3939 
Q 2509 4147 2053 4147 
L 1259 4147 
z
" transform="scale(0.015625)"/>
      <path id="DejaVuSans-55" d="M 556 4666 
L 1191 4666 
L 1191 1831 
Q 1191 1081 1462 751 
Q 1734 422 2344 422 
Q 2950 422 3222 751 
Q 3494 1081 3494 1831 
L 3494 4666 
L 4128 4666 
L 4128 1753 
Q 4128 841 3676 375 
Q 3225 -91 2344 -91 
Q 1459 -91 1007 375 
Q 556 841 556 1753 
L 556 4666 
z
" transform="scale(0.015625)"/>
      <path id="DejaVuSans-43" d="M 4122 4306 
L 4122 3641 
Q 3803 3938 3442 4084 
Q 3081 4231 2675 4231 
Q 1875 4231 1450 3742 
Q 1025 3253 1025 2328 
Q 1025 1406 1450 917 
Q 1875 428 2675 428 
Q 3081 428 3442 575 
Q 3803 722 4122 1019 
L 4122 359 
Q 3791 134 3420 21 
Q 3050 -91 2638 -91 
Q 1578 -91 968 557 
Q 359 1206 359 2328 
Q 359 3453 968 4101 
Q 1578 4750 2638 4750 
Q 3056 4750 3426 4639 
Q 3797 4528 4122 4306 
z
" transform="scale(0.015625)"/>
      <path id="DejaVuSans-4e" d="M 628 4666 
L 1478 4666 
L 3547 763 
L 3547 4666 
L 4159 4666 
L 4159 0 
L 3309 0 
L 1241 3903 
L 1241 0 
L 628 0 
L 628 4666 
z
" transform="scale(0.015625)"/>
     </defs>
     <use xlink:href="#DejaVuSans-56"/>
     <use xlink:href="#DejaVuSans-65" x="60.658203"/>
     <use xlink:href="#DejaVuSans-72" x="122.181641"/>
     <use xlink:href="#DejaVuSans-67" x="161.544922"/>
     <use xlink:href="#DejaVuSans-6c" x="225.021484"/>
     <use xlink:href="#DejaVuSans-65" x="252.804688"/>
     <use xlink:href="#DejaVuSans-69" x="314.328125"/>
     <use xlink:href="#DejaVuSans-63" x="342.111328"/>
     <use xlink:href="#DejaVuSans-68" x="397.091797"/>
     <use xlink:href="#DejaVuSans-20" x="460.470703"/>
     <use xlink:href="#DejaVuSans-64" x="492.257812"/>
     <use xlink:href="#DejaVuSans-65" x="555.734375"/>
     <use xlink:href="#DejaVuSans-72" x="617.257812"/>
     <use xlink:href="#DejaVuSans-20" x="658.371094"/>
     <use xlink:href="#DejaVuSans-41" x="690.158203"/>
     <use xlink:href="#DejaVuSans-6b" x="758.566406"/>
     <use xlink:href="#DejaVuSans-74" x="816.476562"/>
     <use xlink:href="#DejaVuSans-69" x="855.685547"/>
     <use xlink:href="#DejaVuSans-65" x="883.46875"/>
     <use xlink:href="#DejaVuSans-6e" x="944.992188"/>
     <use xlink:href="#DejaVuSans-6b" x="1008.371094"/>
     <use xlink:href="#DejaVuSans-75" x="1063.15625"/>
     <use xlink:href="#DejaVuSans-72" x="1126.535156"/>
     <use xlink:href="#DejaVuSans-73" x="1167.648438"/>
     <use xlink:href="#DejaVuSans-76" x="1219.748047"/>
     <use xlink:href="#DejaVuSans-6f" x="1278.927734"/>
     <use xlink:href="#DejaVuSans-72" x="1340.109375"/>
     <use xlink:href="#DejaVuSans-68" x="1379.472656"/>
     <use xlink:href="#DejaVuSans-65" x="1442.851562"/>
     <use xlink:href="#DejaVuSans-72" x="1504.375"/>
     <use xlink:href="#DejaVuSans-73" x="1545.488281"/>
     <use xlink:href="#DejaVuSans-61" x="1597.587891"/>
     <use xlink:href="#DejaVuSans-67" x="1658.867188"/>
     <use xlink:href="#DejaVuSans-65" x="1722.34375"/>
     <use xlink:href="#DejaVuSans-20" x="1783.867188"/>
     <use xlink:href="#DejaVuSans-6d" x="1815.654297"/>
     <use xlink:href="#DejaVuSans-69" x="1913.066406"/>
     <use xlink:href="#DejaVuSans-74" x="1940.849609"/>
     <use xlink:href="#DejaVuSans-20" x="1980.058594"/>
     <use xlink:href="#DejaVuSans-4c" x="2011.845703"/>
     <use xlink:href="#DejaVuSans-53" x="2067.558594"/>
     <use xlink:href="#DejaVuSans-54" x="2131.035156"/>
     <use xlink:href="#DejaVuSans-4d" x="2192.119141"/>
     <use xlink:href="#DejaVuSans-2c" x="2278.398438"/>
     <use xlink:href="#DejaVuSans-20" x="2310.185547"/>
     <use xlink:href="#DejaVuSans-47" x="2341.972656"/>
     <use xlink:href="#DejaVuSans-52" x="2419.462891"/>
     <use xlink:href="#DejaVuSans-55" x="2488.945312"/>
     <use xlink:href="#DejaVuSans-20" x="2562.138672"/>
     <use xlink:href="#DejaVuSans-75" x="2593.925781"/>
     <use xlink:href="#DejaVuSans-6e" x="2657.304688"/>
     <use xlink:href="#DejaVuSans-64" x="2720.683594"/>
     <use xlink:href="#DejaVuSans-20" x="2784.160156"/>
     <use xlink:href="#DejaVuSans-43" x="2815.947266"/>
     <use xlink:href="#DejaVuSans-4e" x="2885.771484"/>
     <use xlink:href="#DejaVuSans-4e" x="2960.576172"/>
     <use xlink:href="#DejaVuSans-2d" x="3035.380859"/>
     <use xlink:href="#DejaVuSans-4c" x="3071.464844"/>
     <use xlink:href="#DejaVuSans-53" x="3127.177734"/>
     <use xlink:href="#DejaVuSans-54" x="3190.654297"/>
     <use xlink:href="#DejaVuSans-4d" x="3251.738281"/>
    </g>
   </g>
   <g id="legend_1">
    <g id="patch_7">
     <path d="M 756.251563 127.1925 
L 900.2 127.1925 
Q 902.2 127.1925 902.2 125.1925 
L 902.2 67.48 
Q 902.2 65.48 900.2 65.48 
L 756.251563 65.48 
Q 754.251563 65.48 754.251563 67.48 
L 754.251563 125.1925 
Q 754.251563 127.1925 756.251563 127.1925 
z
" style="fill: #ffffff; opacity: 0.8; stroke: #cccccc; stroke-linejoin: miter"/>
    </g>
    <g id="line2d_17">
     <path d="M 758.251563 73.578438 
L 768.251563 73.578438 
L 778.251563 73.578438 
" style="fill: none; stroke: #0000ff; stroke-width: 1.5; stroke-linecap: square"/>
    </g>
    <g id="text_16">
     <!-- Tatschlicher Kurs -->
     <g transform="translate(786.251563 77.078438) scale(0.1 -0.1)">
      <defs>
       <path id="DejaVuSans-e4" d="M 2194 1759 
Q 1497 1759 1228 1600 
Q 959 1441 959 1056 
Q 959 750 1161 570 
Q 1363 391 1709 391 
Q 2188 391 2477 730 
Q 2766 1069 2766 1631 
L 2766 1759 
L 2194 1759 
z
M 3341 1997 
L 3341 0 
L 2766 0 
L 2766 531 
Q 2569 213 2275 61 
Q 1981 -91 1556 -91 
Q 1019 -91 701 211 
Q 384 513 384 1019 
Q 384 1609 779 1909 
Q 1175 2209 1959 2209 
L 2766 2209 
L 2766 2266 
Q 2766 2663 2505 2880 
Q 2244 3097 1772 3097 
Q 1472 3097 1187 3025 
Q 903 2953 641 2809 
L 641 3341 
Q 956 3463 1253 3523 
Q 1550 3584 1831 3584 
Q 2591 3584 2966 3190 
Q 3341 2797 3341 1997 
z
M 2150 4850 
L 2784 4850 
L 2784 4219 
L 2150 4219 
L 2150 4850 
z
M 928 4850 
L 1562 4850 
L 1562 4219 
L 928 4219 
L 928 4850 
z
" transform="scale(0.015625)"/>
       <path id="DejaVuSans-4b" d="M 628 4666 
L 1259 4666 
L 1259 2694 
L 3353 4666 
L 4166 4666 
L 1850 2491 
L 4331 0 
L 3500 0 
L 1259 2247 
L 1259 0 
L 628 0 
L 628 4666 
z
" transform="scale(0.015625)"/>
      </defs>
      <use xlink:href="#DejaVuSans-54"/>
      <use xlink:href="#DejaVuSans-61" x="44.583984"/>
      <use xlink:href="#DejaVuSans-74" x="105.863281"/>
      <use xlink:href="#DejaVuSans-73" x="145.072266"/>
      <use xlink:href="#DejaVuSans-e4" x="197.171875"/>
      <use xlink:href="#DejaVuSans-63" x="258.451172"/>
      <use xlink:href="#DejaVuSans-68" x="313.431641"/>
      <use xlink:href="#DejaVuSans-6c" x="376.810547"/>
      <use xlink:href="#DejaVuSans-69" x="404.59375"/>
      <use xlink:href="#DejaVuSans-63" x="432.376953"/>
      <use xlink:href="#DejaVuSans-68" x="487.357422"/>
      <use xlink:href="#DejaVuSans-65" x="550.736328"/>
      <use xlink:href="#DejaVuSans-72" x="612.259766"/>
      <use xlink:href="#DejaVuSans-20" x="653.373047"/>
      <use xlink:href="#DejaVuSans-4b" x="685.160156"/>
      <use xlink:href="#DejaVuSans-75" x="745.736328"/>
      <use xlink:href="#DejaVuSans-72" x="809.115234"/>
      <use xlink:href="#DejaVuSans-73" x="850.228516"/>
     </g>
    </g>
    <g id="line2d_18">
     <path d="M 758.251563 88.256563 
L 768.251563 88.256563 
L 778.251563 88.256563 
" style="fill: none; stroke: #ff0000; stroke-width: 1.5; stroke-linecap: square"/>
    </g>
    <g id="text_17">
     <!-- LSTM Vorhersage -->
     <g transform="translate(786.251563 91.756563) scale(0.1 -0.1)">
      <use xlink:href="#DejaVuSans-4c"/>
      <use xlink:href="#DejaVuSans-53" x="55.712891"/>
      <use xlink:href="#DejaVuSans-54" x="119.189453"/>
      <use xlink:href="#DejaVuSans-4d" x="180.273438"/>
      <use xlink:href="#DejaVuSans-20" x="266.552734"/>
      <use xlink:href="#DejaVuSans-56" x="298.339844"/>
      <use xlink:href="#DejaVuSans-6f" x="358.998047"/>
      <use xlink:href="#DejaVuSans-72" x="420.179688"/>
      <use xlink:href="#DejaVuSans-68" x="459.542969"/>
      <use xlink:href="#DejaVuSans-65" x="522.921875"/>
      <use xlink:href="#DejaVuSans-72" x="584.445312"/>
      <use xlink:href="#DejaVuSans-73" x="625.558594"/>
      <use xlink:href="#DejaVuSans-61" x="677.658203"/>
      <use xlink:href="#DejaVuSans-67" x="738.9375"/>
      <use xlink:href="#DejaVuSans-65" x="802.414062"/>
     </g>
    </g>
    <g id="line2d_19">
     <path d="M 758.251563 102.934688 
L 768.251563 102.934688 
L 778.251563 102.934688 
" style="fill: none; stroke: #008000; stroke-width: 1.5; stroke-linecap: square"/>
    </g>
    <g id="text_18">
     <!-- GRU Vorhersage -->
     <g transform="translate(786.251563 106.434688) scale(0.1 -0.1)">
      <use xlink:href="#DejaVuSans-47"/>
      <use xlink:href="#DejaVuSans-52" x="77.490234"/>
      <use xlink:href="#DejaVuSans-55" x="146.972656"/>
      <use xlink:href="#DejaVuSans-20" x="220.166016"/>
      <use xlink:href="#DejaVuSans-56" x="251.953125"/>
      <use xlink:href="#DejaVuSans-6f" x="312.611328"/>
      <use xlink:href="#DejaVuSans-72" x="373.792969"/>
      <use xlink:href="#DejaVuSans-68" x="413.15625"/>
      <use xlink:href="#DejaVuSans-65" x="476.535156"/>
      <use xlink:href="#DejaVuSans-72" x="538.058594"/>
      <use xlink:href="#DejaVuSans-73" x="579.171875"/>
      <use xlink:href="#DejaVuSans-61" x="631.271484"/>
      <use xlink:href="#DejaVuSans-67" x="692.550781"/>
      <use xlink:href="#DejaVuSans-65" x="756.027344"/>
     </g>
    </g>
    <g id="line2d_20">
     <path d="M 758.251563 117.612813 
L 768.251563 117.612813 
L 778.251563 117.612813 
" style="fill: none; stroke: #ffa500; stroke-width: 1.5; stroke-linecap: square"/>
    </g>
    <g id="text_19">
     <!-- CNN-LSTM Vorhersage -->
     <g transform="translate(786.251563 121.112813) scale(0.1 -0.1)">
      <use xlink:href="#DejaVuSans-43"/>
      <use xlink:href="#DejaVuSans-4e" x="69.824219"/>
      <use xlink:href="#DejaVuSans-4e" x="144.628906"/>
      <use xlink:href="#DejaVuSans-2d" x="219.433594"/>
      <use xlink:href="#DejaVuSans-4c" x="255.517578"/>
      <use xlink:href="#DejaVuSans-53" x="311.230469"/>
      <use xlink:href="#DejaVuSans-54" x="374.707031"/>
      <use xlink:href="#DejaVuSans-4d" x="435.791016"/>
      <use xlink:href="#DejaVuSans-20" x="522.070312"/>
      <use xlink:href="#DejaVuSans-56" x="553.857422"/>
      <use xlink:href="#DejaVuSans-6f" x="614.515625"/>
      <use xlink:href="#DejaVuSans-72" x="675.697266"/>
      <use xlink:href="#DejaVuSans-68" x="715.060547"/>
      <use xlink:href="#DejaVuSans-65" x="778.439453"/>
      <use xlink:href="#DejaVuSans-72" x="839.962891"/>
      <use xlink:href="#DejaVuSans-73" x="881.076172"/>
      <use xlink:href="#DejaVuSans-61" x="933.175781"/>
      <use xlink:href="#DejaVuSans-67" x="994.455078"/>
      <use xlink:href="#DejaVuSans-65" x="1057.931641"/>
     </g>
    </g>
   </g>
  </g>
 </g>
 <defs>
  <clipPath id="p3a7cb8f991">
   <rect x="126" y="60.48" width="781.2" height="388.08"/>
  </clipPath>
 </defs>
</svg>
