<?xml version="1.0" encoding="utf-8" standalone="no"?>
<!DOCTYPE svg PUBLIC "-//W3C//DTD SVG 1.1//EN"
  "http://www.w3.org/Graphics/SVG/1.1/DTD/svg11.dtd">
<svg xmlns:xlink="http://www.w3.org/1999/xlink" width="460.8pt" height="345.6pt" viewBox="0 0 460.8 345.6" xmlns="http://www.w3.org/2000/svg" version="1.1">
 <metadata>
  <rdf:RDF xmlns:dc="http://purl.org/dc/elements/1.1/" xmlns:cc="http://creativecommons.org/ns#" xmlns:rdf="http://www.w3.org/1999/02/22-rdf-syntax-ns#">
   <cc:Work>
    <dc:type rdf:resource="http://purl.org/dc/dcmitype/StillImage"/>
    <dc:date>2024-10-27T14:47:24.890431</dc:date>
    <dc:format>image/svg+xml</dc:format>
    <dc:creator>
     <cc:Agent>
      <dc:title>Matplotlib v3.9.2, https://matplotlib.org/</dc:title>
     </cc:Agent>
    </dc:creator>
   </cc:Work>
  </rdf:RDF>
 </metadata>
 <defs>
  <style type="text/css">*{stroke-linejoin: round; stroke-linecap: butt}</style>
 </defs>
 <g id="figure_1">
  <g id="patch_1">
   <path d="M 0 345.6 
L 460.8 345.6 
L 460.8 0 
L 0 0 
z
" style="fill: #ffffff"/>
  </g>
  <g id="axes_1">
   <g id="patch_2">
    <path d="M 57.6 307.584 
L 414.72 307.584 
L 414.72 41.472 
L 57.6 41.472 
z
" style="fill: #ffffff"/>
   </g>
   <g id="PolyCollection_1">
    <defs>
     <path id="m3257aecdbd" d="M 312.042719 -50.112 
L 312.042719 -103.320307 
L 312.367699 -102.755014 
L 312.692678 -102.194068 
L 313.017658 -101.637461 
L 313.342637 -101.085184 
L 313.667617 -100.537228 
L 313.992596 -99.993584 
L 314.317576 -99.454243 
L 314.642555 -98.919193 
L 314.967535 -98.388425 
L 315.292514 -97.861928 
L 315.617494 -97.33969 
L 315.942473 -96.8217 
L 316.267453 -96.307946 
L 316.592432 -95.798415 
L 316.917412 -95.293095 
L 317.242391 -94.791973 
L 317.567371 -94.295035 
L 317.892351 -93.802268 
L 318.21733 -93.313658 
L 318.54231 -92.829191 
L 318.867289 -92.348852 
L 319.192269 -91.872626 
L 319.517248 -91.400498 
L 319.842228 -90.932452 
L 320.167207 -90.468474 
L 320.492187 -90.008547 
L 320.817166 -89.552654 
L 321.142146 -89.10078 
L 321.467125 -88.652908 
L 321.792105 -88.20902 
L 322.117084 -87.769099 
L 322.442064 -87.333129 
L 322.767043 -86.901091 
L 323.092023 -86.472967 
L 323.417002 -86.04874 
L 323.741982 -85.628391 
L 324.066962 -85.211902 
L 324.391941 -84.799253 
L 324.716921 -84.390427 
L 325.0419 -83.985404 
L 325.36688 -83.584164 
L 325.691859 -83.186689 
L 326.016839 -82.792959 
L 326.341818 -82.402954 
L 326.666798 -82.016655 
L 326.991777 -81.634041 
L 327.316757 -81.255091 
L 327.641736 -80.879787 
L 327.966716 -80.508107 
L 328.291695 -80.140031 
L 328.616675 -79.775538 
L 328.941654 -79.414607 
L 329.266634 -79.057218 
L 329.591613 -78.703349 
L 329.916593 -78.35298 
L 330.241572 -78.006088 
L 330.566552 -77.662653 
L 330.891532 -77.322654 
L 331.216511 -76.986068 
L 331.541491 -76.652875 
L 331.86647 -76.323052 
L 332.19145 -75.996579 
L 332.516429 -75.673432 
L 332.841409 -75.353591 
L 333.166388 -75.037033 
L 333.491368 -74.723737 
L 333.816347 -74.41368 
L 334.141327 -74.106841 
L 334.466306 -73.803197 
L 334.791286 -73.502726 
L 335.116265 -73.205406 
L 335.441245 -72.911216 
L 335.766224 -72.620132 
L 336.091204 -72.332132 
L 336.416183 -72.047195 
L 336.741163 -71.765298 
L 337.066143 -71.486419 
L 337.391122 -71.210535 
L 337.716102 -70.937624 
L 338.041081 -70.667664 
L 338.366061 -70.400633 
L 338.69104 -70.136508 
L 339.01602 -69.875268 
L 339.340999 -69.616889 
L 339.665979 -69.36135 
L 339.990958 -69.108629 
L 340.315938 -68.858703 
L 340.640917 -68.61155 
L 340.965897 -68.367148 
L 341.290876 -68.125475 
L 341.615856 -67.886509 
L 341.940835 -67.650228 
L 342.265815 -67.416609 
L 342.590794 -67.185632 
L 342.915774 -66.957274 
L 343.240753 -66.731513 
L 343.565733 -66.508327 
L 343.890713 -66.287695 
L 344.215692 -66.069595 
L 344.540672 -65.854006 
L 344.865651 -65.640905 
L 345.190631 -65.430271 
L 345.51561 -65.222083 
L 345.84059 -65.01632 
L 346.165569 -64.81296 
L 346.490549 -64.611982 
L 346.815528 -64.413364 
L 347.140508 -64.217086 
L 347.465487 -64.023127 
L 347.790467 -63.831465 
L 348.115446 -63.642081 
L 348.440426 -63.454952 
L 348.765405 -63.270058 
L 349.090385 -63.08738 
L 349.415364 -62.906895 
L 349.740344 -62.728584 
L 350.065324 -62.552427 
L 350.390303 -62.378402 
L 350.715283 -62.206491 
L 351.040262 -62.036673 
L 351.365242 -61.868927 
L 351.690221 -61.703235 
L 352.015201 -61.539576 
L 352.34018 -61.37793 
L 352.66516 -61.218278 
L 352.990139 -61.060601 
L 353.315119 -60.904879 
L 353.640098 -60.751093 
L 353.965078 -60.599224 
L 354.290057 -60.449252 
L 354.615037 -60.301159 
L 354.940016 -60.154925 
L 355.264996 -60.010533 
L 355.589975 -59.867963 
L 355.914955 -59.727197 
L 356.239934 -59.588217 
L 356.564914 -59.451003 
L 356.889894 -59.315539 
L 357.214873 -59.181806 
L 357.539853 -59.049785 
L 357.864832 -58.91946 
L 358.189812 -58.790812 
L 358.514791 -58.663823 
L 358.839771 -58.538477 
L 359.16475 -58.414756 
L 359.48973 -58.292643 
L 359.814709 -58.172119 
L 360.139689 -58.05317 
L 360.464668 -57.935776 
L 360.789648 -57.819923 
L 361.114627 -57.705592 
L 361.439607 -57.592768 
L 361.764586 -57.481434 
L 362.089566 -57.371573 
L 362.414545 -57.26317 
L 362.739525 -57.156208 
L 363.064505 -57.050672 
L 363.389484 -56.946545 
L 363.714464 -56.843812 
L 364.039443 -56.742458 
L 364.364423 -56.642466 
L 364.689402 -56.543822 
L 365.014382 -56.446509 
L 365.339361 -56.350514 
L 365.664341 -56.255821 
L 365.98932 -56.162415 
L 366.3143 -56.070282 
L 366.639279 -55.979406 
L 366.964259 -55.889774 
L 367.289238 -55.80137 
L 367.614218 -55.714181 
L 367.939197 -55.628192 
L 368.264177 -55.54339 
L 368.589156 -55.459761 
L 368.914136 -55.37729 
L 369.239115 -55.295964 
L 369.564095 -55.215769 
L 369.889075 -55.136693 
L 370.214054 -55.058721 
L 370.539034 -54.981841 
L 370.864013 -54.906039 
L 371.188993 -54.831302 
L 371.513972 -54.757618 
L 371.838952 -54.684974 
L 372.163931 -54.613357 
L 372.488911 -54.542755 
L 372.81389 -54.473155 
L 373.13887 -54.404545 
L 373.463849 -54.336913 
L 373.788829 -54.270247 
L 374.113808 -54.204535 
L 374.438788 -54.139765 
L 374.763767 -54.075925 
L 375.088747 -54.013004 
L 375.413726 -53.950991 
L 375.738706 -53.889873 
L 376.063686 -53.829641 
L 376.388665 -53.770281 
L 376.713645 -53.711784 
L 377.038624 -53.654139 
L 377.363604 -53.597335 
L 377.688583 -53.541361 
L 378.013563 -53.486206 
L 378.338542 -53.43186 
L 378.663522 -53.378313 
L 378.988501 -53.325554 
L 379.313481 -53.273573 
L 379.63846 -53.22236 
L 379.96344 -53.171906 
L 380.288419 -53.122199 
L 380.613399 -53.073231 
L 380.938378 -53.024992 
L 381.263358 -52.977472 
L 381.588337 -52.930662 
L 381.913317 -52.884553 
L 382.238296 -52.839134 
L 382.563276 -52.794398 
L 382.888256 -52.750335 
L 383.213235 -52.706935 
L 383.538215 -52.664191 
L 383.863194 -52.622094 
L 384.188174 -52.580634 
L 384.513153 -52.539803 
L 384.838133 -52.499593 
L 385.163112 -52.459995 
L 385.488092 -52.421002 
L 385.813071 -52.382604 
L 386.138051 -52.344794 
L 386.46303 -52.307563 
L 386.78801 -52.270905 
L 387.112989 -52.23481 
L 387.437969 -52.199272 
L 387.762948 -52.164282 
L 388.087928 -52.129833 
L 388.412907 -52.095918 
L 388.737887 -52.062529 
L 389.062867 -52.029659 
L 389.387846 -51.9973 
L 389.712826 -51.965446 
L 390.037805 -51.934089 
L 390.362785 -51.903223 
L 390.687764 -51.87284 
L 391.012744 -51.842934 
L 391.337723 -51.813498 
L 391.662703 -51.784526 
L 391.987682 -51.75601 
L 392.312662 -51.727945 
L 392.637641 -51.700324 
L 392.962621 -51.67314 
L 393.2876 -51.646387 
L 393.61258 -51.62006 
L 393.937559 -51.594152 
L 394.262539 -51.568657 
L 394.587518 -51.543569 
L 394.912498 -51.518882 
L 395.237477 -51.494591 
L 395.562457 -51.470689 
L 395.887437 -51.447172 
L 396.212416 -51.424033 
L 396.537396 -51.401266 
L 396.862375 -51.378868 
L 397.187355 -51.356831 
L 397.512334 -51.335151 
L 397.837314 -51.313823 
L 398.162293 -51.292841 
L 398.487273 -51.2722 
L 398.487273 -50.112 
L 398.487273 -50.112 
L 398.162293 -50.112 
L 397.837314 -50.112 
L 397.512334 -50.112 
L 397.187355 -50.112 
L 396.862375 -50.112 
L 396.537396 -50.112 
L 396.212416 -50.112 
L 395.887437 -50.112 
L 395.562457 -50.112 
L 395.237477 -50.112 
L 394.912498 -50.112 
L 394.587518 -50.112 
L 394.262539 -50.112 
L 393.937559 -50.112 
L 393.61258 -50.112 
L 393.2876 -50.112 
L 392.962621 -50.112 
L 392.637641 -50.112 
L 392.312662 -50.112 
L 391.987682 -50.112 
L 391.662703 -50.112 
L 391.337723 -50.112 
L 391.012744 -50.112 
L 390.687764 -50.112 
L 390.362785 -50.112 
L 390.037805 -50.112 
L 389.712826 -50.112 
L 389.387846 -50.112 
L 389.062867 -50.112 
L 388.737887 -50.112 
L 388.412907 -50.112 
L 388.087928 -50.112 
L 387.762948 -50.112 
L 387.437969 -50.112 
L 387.112989 -50.112 
L 386.78801 -50.112 
L 386.46303 -50.112 
L 386.138051 -50.112 
L 385.813071 -50.112 
L 385.488092 -50.112 
L 385.163112 -50.112 
L 384.838133 -50.112 
L 384.513153 -50.112 
L 384.188174 -50.112 
L 383.863194 -50.112 
L 383.538215 -50.112 
L 383.213235 -50.112 
L 382.888256 -50.112 
L 382.563276 -50.112 
L 382.238296 -50.112 
L 381.913317 -50.112 
L 381.588337 -50.112 
L 381.263358 -50.112 
L 380.938378 -50.112 
L 380.613399 -50.112 
L 380.288419 -50.112 
L 379.96344 -50.112 
L 379.63846 -50.112 
L 379.313481 -50.112 
L 378.988501 -50.112 
L 378.663522 -50.112 
L 378.338542 -50.112 
L 378.013563 -50.112 
L 377.688583 -50.112 
L 377.363604 -50.112 
L 377.038624 -50.112 
L 376.713645 -50.112 
L 376.388665 -50.112 
L 376.063686 -50.112 
L 375.738706 -50.112 
L 375.413726 -50.112 
L 375.088747 -50.112 
L 374.763767 -50.112 
L 374.438788 -50.112 
L 374.113808 -50.112 
L 373.788829 -50.112 
L 373.463849 -50.112 
L 373.13887 -50.112 
L 372.81389 -50.112 
L 372.488911 -50.112 
L 372.163931 -50.112 
L 371.838952 -50.112 
L 371.513972 -50.112 
L 371.188993 -50.112 
L 370.864013 -50.112 
L 370.539034 -50.112 
L 370.214054 -50.112 
L 369.889075 -50.112 
L 369.564095 -50.112 
L 369.239115 -50.112 
L 368.914136 -50.112 
L 368.589156 -50.112 
L 368.264177 -50.112 
L 367.939197 -50.112 
L 367.614218 -50.112 
L 367.289238 -50.112 
L 366.964259 -50.112 
L 366.639279 -50.112 
L 366.3143 -50.112 
L 365.98932 -50.112 
L 365.664341 -50.112 
L 365.339361 -50.112 
L 365.014382 -50.112 
L 364.689402 -50.112 
L 364.364423 -50.112 
L 364.039443 -50.112 
L 363.714464 -50.112 
L 363.389484 -50.112 
L 363.064505 -50.112 
L 362.739525 -50.112 
L 362.414545 -50.112 
L 362.089566 -50.112 
L 361.764586 -50.112 
L 361.439607 -50.112 
L 361.114627 -50.112 
L 360.789648 -50.112 
L 360.464668 -50.112 
L 360.139689 -50.112 
L 359.814709 -50.112 
L 359.48973 -50.112 
L 359.16475 -50.112 
L 358.839771 -50.112 
L 358.514791 -50.112 
L 358.189812 -50.112 
L 357.864832 -50.112 
L 357.539853 -50.112 
L 357.214873 -50.112 
L 356.889894 -50.112 
L 356.564914 -50.112 
L 356.239934 -50.112 
L 355.914955 -50.112 
L 355.589975 -50.112 
L 355.264996 -50.112 
L 354.940016 -50.112 
L 354.615037 -50.112 
L 354.290057 -50.112 
L 353.965078 -50.112 
L 353.640098 -50.112 
L 353.315119 -50.112 
L 352.990139 -50.112 
L 352.66516 -50.112 
L 352.34018 -50.112 
L 352.015201 -50.112 
L 351.690221 -50.112 
L 351.365242 -50.112 
L 351.040262 -50.112 
L 350.715283 -50.112 
L 350.390303 -50.112 
L 350.065324 -50.112 
L 349.740344 -50.112 
L 349.415364 -50.112 
L 349.090385 -50.112 
L 348.765405 -50.112 
L 348.440426 -50.112 
L 348.115446 -50.112 
L 347.790467 -50.112 
L 347.465487 -50.112 
L 347.140508 -50.112 
L 346.815528 -50.112 
L 346.490549 -50.112 
L 346.165569 -50.112 
L 345.84059 -50.112 
L 345.51561 -50.112 
L 345.190631 -50.112 
L 344.865651 -50.112 
L 344.540672 -50.112 
L 344.215692 -50.112 
L 343.890713 -50.112 
L 343.565733 -50.112 
L 343.240753 -50.112 
L 342.915774 -50.112 
L 342.590794 -50.112 
L 342.265815 -50.112 
L 341.940835 -50.112 
L 341.615856 -50.112 
L 341.290876 -50.112 
L 340.965897 -50.112 
L 340.640917 -50.112 
L 340.315938 -50.112 
L 339.990958 -50.112 
L 339.665979 -50.112 
L 339.340999 -50.112 
L 339.01602 -50.112 
L 338.69104 -50.112 
L 338.366061 -50.112 
L 338.041081 -50.112 
L 337.716102 -50.112 
L 337.391122 -50.112 
L 337.066143 -50.112 
L 336.741163 -50.112 
L 336.416183 -50.112 
L 336.091204 -50.112 
L 335.766224 -50.112 
L 335.441245 -50.112 
L 335.116265 -50.112 
L 334.791286 -50.112 
L 334.466306 -50.112 
L 334.141327 -50.112 
L 333.816347 -50.112 
L 333.491368 -50.112 
L 333.166388 -50.112 
L 332.841409 -50.112 
L 332.516429 -50.112 
L 332.19145 -50.112 
L 331.86647 -50.112 
L 331.541491 -50.112 
L 331.216511 -50.112 
L 330.891532 -50.112 
L 330.566552 -50.112 
L 330.241572 -50.112 
L 329.916593 -50.112 
L 329.591613 -50.112 
L 329.266634 -50.112 
L 328.941654 -50.112 
L 328.616675 -50.112 
L 328.291695 -50.112 
L 327.966716 -50.112 
L 327.641736 -50.112 
L 327.316757 -50.112 
L 326.991777 -50.112 
L 326.666798 -50.112 
L 326.341818 -50.112 
L 326.016839 -50.112 
L 325.691859 -50.112 
L 325.36688 -50.112 
L 325.0419 -50.112 
L 324.716921 -50.112 
L 324.391941 -50.112 
L 324.066962 -50.112 
L 323.741982 -50.112 
L 323.417002 -50.112 
L 323.092023 -50.112 
L 322.767043 -50.112 
L 322.442064 -50.112 
L 322.117084 -50.112 
L 321.792105 -50.112 
L 321.467125 -50.112 
L 321.142146 -50.112 
L 320.817166 -50.112 
L 320.492187 -50.112 
L 320.167207 -50.112 
L 319.842228 -50.112 
L 319.517248 -50.112 
L 319.192269 -50.112 
L 318.867289 -50.112 
L 318.54231 -50.112 
L 318.21733 -50.112 
L 317.892351 -50.112 
L 317.567371 -50.112 
L 317.242391 -50.112 
L 316.917412 -50.112 
L 316.592432 -50.112 
L 316.267453 -50.112 
L 315.942473 -50.112 
L 315.617494 -50.112 
L 315.292514 -50.112 
L 314.967535 -50.112 
L 314.642555 -50.112 
L 314.317576 -50.112 
L 313.992596 -50.112 
L 313.667617 -50.112 
L 313.342637 -50.112 
L 313.017658 -50.112 
L 312.692678 -50.112 
L 312.367699 -50.112 
L 312.042719 -50.112 
z
" style="stroke: #ff0000"/>
    </defs>
    <g clip-path="url(#p84b47b20da)">
     <use xlink:href="#m3257aecdbd" x="0" y="345.6" style="fill: #ff0000; stroke: #ff0000"/>
    </g>
   </g>
   <g id="matplotlib.axis_1">
    <g id="xtick_1">
     <g id="line2d_1">
      <path d="M 106.33068 307.584 
L 106.33068 41.472 
" clip-path="url(#p84b47b20da)" style="fill: none; stroke: #b0b0b0; stroke-width: 0.8; stroke-linecap: square"/>
     </g>
     <g id="line2d_2">
      <defs>
       <path id="m4075692e06" d="M 0 0 
L 0 3.5 
" style="stroke: #000000; stroke-width: 0.8"/>
      </defs>
      <g>
       <use xlink:href="#m4075692e06" x="106.33068" y="307.584" style="stroke: #000000; stroke-width: 0.8"/>
      </g>
     </g>
     <g id="text_1">
      <!-- 60 -->
      <g transform="translate(99.96818 322.182437) scale(0.1 -0.1)">
       <defs>
        <path id="DejaVuSans-36" d="M 2113 2584 
Q 1688 2584 1439 2293 
Q 1191 2003 1191 1497 
Q 1191 994 1439 701 
Q 1688 409 2113 409 
Q 2538 409 2786 701 
Q 3034 994 3034 1497 
Q 3034 2003 2786 2293 
Q 2538 2584 2113 2584 
z
M 3366 4563 
L 3366 3988 
Q 3128 4100 2886 4159 
Q 2644 4219 2406 4219 
Q 1781 4219 1451 3797 
Q 1122 3375 1075 2522 
Q 1259 2794 1537 2939 
Q 1816 3084 2150 3084 
Q 2853 3084 3261 2657 
Q 3669 2231 3669 1497 
Q 3669 778 3244 343 
Q 2819 -91 2113 -91 
Q 1303 -91 875 529 
Q 447 1150 447 2328 
Q 447 3434 972 4092 
Q 1497 4750 2381 4750 
Q 2619 4750 2861 4703 
Q 3103 4656 3366 4563 
z
" transform="scale(0.015625)"/>
        <path id="DejaVuSans-30" d="M 2034 4250 
Q 1547 4250 1301 3770 
Q 1056 3291 1056 2328 
Q 1056 1369 1301 889 
Q 1547 409 2034 409 
Q 2525 409 2770 889 
Q 3016 1369 3016 2328 
Q 3016 3291 2770 3770 
Q 2525 4250 2034 4250 
z
M 2034 4750 
Q 2819 4750 3233 4129 
Q 3647 3509 3647 2328 
Q 3647 1150 3233 529 
Q 2819 -91 2034 -91 
Q 1250 -91 836 529 
Q 422 1150 422 2328 
Q 422 3509 836 4129 
Q 1250 4750 2034 4750 
z
" transform="scale(0.015625)"/>
       </defs>
       <use xlink:href="#DejaVuSans-36"/>
       <use xlink:href="#DejaVuSans-30" x="63.623047"/>
      </g>
     </g>
    </g>
    <g id="xtick_2">
     <g id="line2d_3">
      <path d="M 171.326585 307.584 
L 171.326585 41.472 
" clip-path="url(#p84b47b20da)" style="fill: none; stroke: #b0b0b0; stroke-width: 0.8; stroke-linecap: square"/>
     </g>
     <g id="line2d_4">
      <g>
       <use xlink:href="#m4075692e06" x="171.326585" y="307.584" style="stroke: #000000; stroke-width: 0.8"/>
      </g>
     </g>
     <g id="text_2">
      <!-- 80 -->
      <g transform="translate(164.964085 322.182437) scale(0.1 -0.1)">
       <defs>
        <path id="DejaVuSans-38" d="M 2034 2216 
Q 1584 2216 1326 1975 
Q 1069 1734 1069 1313 
Q 1069 891 1326 650 
Q 1584 409 2034 409 
Q 2484 409 2743 651 
Q 3003 894 3003 1313 
Q 3003 1734 2745 1975 
Q 2488 2216 2034 2216 
z
M 1403 2484 
Q 997 2584 770 2862 
Q 544 3141 544 3541 
Q 544 4100 942 4425 
Q 1341 4750 2034 4750 
Q 2731 4750 3128 4425 
Q 3525 4100 3525 3541 
Q 3525 3141 3298 2862 
Q 3072 2584 2669 2484 
Q 3125 2378 3379 2068 
Q 3634 1759 3634 1313 
Q 3634 634 3220 271 
Q 2806 -91 2034 -91 
Q 1263 -91 848 271 
Q 434 634 434 1313 
Q 434 1759 690 2068 
Q 947 2378 1403 2484 
z
M 1172 3481 
Q 1172 3119 1398 2916 
Q 1625 2713 2034 2713 
Q 2441 2713 2670 2916 
Q 2900 3119 2900 3481 
Q 2900 3844 2670 4047 
Q 2441 4250 2034 4250 
Q 1625 4250 1398 4047 
Q 1172 3844 1172 3481 
z
" transform="scale(0.015625)"/>
       </defs>
       <use xlink:href="#DejaVuSans-38"/>
       <use xlink:href="#DejaVuSans-30" x="63.623047"/>
      </g>
     </g>
    </g>
    <g id="xtick_3">
     <g id="line2d_5">
      <path d="M 236.32249 307.584 
L 236.32249 41.472 
" clip-path="url(#p84b47b20da)" style="fill: none; stroke: #b0b0b0; stroke-width: 0.8; stroke-linecap: square"/>
     </g>
     <g id="line2d_6">
      <g>
       <use xlink:href="#m4075692e06" x="236.32249" y="307.584" style="stroke: #000000; stroke-width: 0.8"/>
      </g>
     </g>
     <g id="text_3">
      <!-- 100 -->
      <g transform="translate(226.77874 322.182437) scale(0.1 -0.1)">
       <defs>
        <path id="DejaVuSans-31" d="M 794 531 
L 1825 531 
L 1825 4091 
L 703 3866 
L 703 4441 
L 1819 4666 
L 2450 4666 
L 2450 531 
L 3481 531 
L 3481 0 
L 794 0 
L 794 531 
z
" transform="scale(0.015625)"/>
       </defs>
       <use xlink:href="#DejaVuSans-31"/>
       <use xlink:href="#DejaVuSans-30" x="63.623047"/>
       <use xlink:href="#DejaVuSans-30" x="127.246094"/>
      </g>
     </g>
    </g>
    <g id="xtick_4">
     <g id="line2d_7">
      <path d="M 301.318395 307.584 
L 301.318395 41.472 
" clip-path="url(#p84b47b20da)" style="fill: none; stroke: #b0b0b0; stroke-width: 0.8; stroke-linecap: square"/>
     </g>
     <g id="line2d_8">
      <g>
       <use xlink:href="#m4075692e06" x="301.318395" y="307.584" style="stroke: #000000; stroke-width: 0.8"/>
      </g>
     </g>
     <g id="text_4">
      <!-- 120 -->
      <g transform="translate(291.774645 322.182437) scale(0.1 -0.1)">
       <defs>
        <path id="DejaVuSans-32" d="M 1228 531 
L 3431 531 
L 3431 0 
L 469 0 
L 469 531 
Q 828 903 1448 1529 
Q 2069 2156 2228 2338 
Q 2531 2678 2651 2914 
Q 2772 3150 2772 3378 
Q 2772 3750 2511 3984 
Q 2250 4219 1831 4219 
Q 1534 4219 1204 4116 
Q 875 4013 500 3803 
L 500 4441 
Q 881 4594 1212 4672 
Q 1544 4750 1819 4750 
Q 2544 4750 2975 4387 
Q 3406 4025 3406 3419 
Q 3406 3131 3298 2873 
Q 3191 2616 2906 2266 
Q 2828 2175 2409 1742 
Q 1991 1309 1228 531 
z
" transform="scale(0.015625)"/>
       </defs>
       <use xlink:href="#DejaVuSans-31"/>
       <use xlink:href="#DejaVuSans-32" x="63.623047"/>
       <use xlink:href="#DejaVuSans-30" x="127.246094"/>
      </g>
     </g>
    </g>
    <g id="xtick_5">
     <g id="line2d_9">
      <path d="M 366.3143 307.584 
L 366.3143 41.472 
" clip-path="url(#p84b47b20da)" style="fill: none; stroke: #b0b0b0; stroke-width: 0.8; stroke-linecap: square"/>
     </g>
     <g id="line2d_10">
      <g>
       <use xlink:href="#m4075692e06" x="366.3143" y="307.584" style="stroke: #000000; stroke-width: 0.8"/>
      </g>
     </g>
     <g id="text_5">
      <!-- 140 -->
      <g transform="translate(356.77055 322.182437) scale(0.1 -0.1)">
       <defs>
        <path id="DejaVuSans-34" d="M 2419 4116 
L 825 1625 
L 2419 1625 
L 2419 4116 
z
M 2253 4666 
L 3047 4666 
L 3047 1625 
L 3713 1625 
L 3713 1100 
L 3047 1100 
L 3047 0 
L 2419 0 
L 2419 1100 
L 313 1100 
L 313 1709 
L 2253 4666 
z
" transform="scale(0.015625)"/>
       </defs>
       <use xlink:href="#DejaVuSans-31"/>
       <use xlink:href="#DejaVuSans-34" x="63.623047"/>
       <use xlink:href="#DejaVuSans-30" x="127.246094"/>
      </g>
     </g>
    </g>
   </g>
   <g id="matplotlib.axis_2">
    <g id="ytick_1">
     <g id="line2d_11">
      <path d="M 57.6 295.488 
L 414.72 295.488 
" clip-path="url(#p84b47b20da)" style="fill: none; stroke: #b0b0b0; stroke-width: 0.8; stroke-linecap: square"/>
     </g>
     <g id="line2d_12">
      <defs>
       <path id="m6fe800eb0b" d="M 0 0 
L -3.5 0 
" style="stroke: #000000; stroke-width: 0.8"/>
      </defs>
      <g>
       <use xlink:href="#m6fe800eb0b" x="57.6" y="295.488" style="stroke: #000000; stroke-width: 0.8"/>
      </g>
     </g>
     <g id="text_6">
      <!-- 0.000 -->
      <g transform="translate(21.971875 299.287219) scale(0.1 -0.1)">
       <defs>
        <path id="DejaVuSans-2e" d="M 684 794 
L 1344 794 
L 1344 0 
L 684 0 
L 684 794 
z
" transform="scale(0.015625)"/>
       </defs>
       <use xlink:href="#DejaVuSans-30"/>
       <use xlink:href="#DejaVuSans-2e" x="63.623047"/>
       <use xlink:href="#DejaVuSans-30" x="95.410156"/>
       <use xlink:href="#DejaVuSans-30" x="159.033203"/>
       <use xlink:href="#DejaVuSans-30" x="222.65625"/>
      </g>
     </g>
    </g>
    <g id="ytick_2">
     <g id="line2d_13">
      <path d="M 57.6 253.184259 
L 414.72 253.184259 
" clip-path="url(#p84b47b20da)" style="fill: none; stroke: #b0b0b0; stroke-width: 0.8; stroke-linecap: square"/>
     </g>
     <g id="line2d_14">
      <g>
       <use xlink:href="#m6fe800eb0b" x="57.6" y="253.184259" style="stroke: #000000; stroke-width: 0.8"/>
      </g>
     </g>
     <g id="text_7">
      <!-- 0.005 -->
      <g transform="translate(21.971875 256.983477) scale(0.1 -0.1)">
       <defs>
        <path id="DejaVuSans-35" d="M 691 4666 
L 3169 4666 
L 3169 4134 
L 1269 4134 
L 1269 2991 
Q 1406 3038 1543 3061 
Q 1681 3084 1819 3084 
Q 2600 3084 3056 2656 
Q 3513 2228 3513 1497 
Q 3513 744 3044 326 
Q 2575 -91 1722 -91 
Q 1428 -91 1123 -41 
Q 819 9 494 109 
L 494 744 
Q 775 591 1075 516 
Q 1375 441 1709 441 
Q 2250 441 2565 725 
Q 2881 1009 2881 1497 
Q 2881 1984 2565 2268 
Q 2250 2553 1709 2553 
Q 1456 2553 1204 2497 
Q 953 2441 691 2322 
L 691 4666 
z
" transform="scale(0.015625)"/>
       </defs>
       <use xlink:href="#DejaVuSans-30"/>
       <use xlink:href="#DejaVuSans-2e" x="63.623047"/>
       <use xlink:href="#DejaVuSans-30" x="95.410156"/>
       <use xlink:href="#DejaVuSans-30" x="159.033203"/>
       <use xlink:href="#DejaVuSans-35" x="222.65625"/>
      </g>
     </g>
    </g>
    <g id="ytick_3">
     <g id="line2d_15">
      <path d="M 57.6 210.880517 
L 414.72 210.880517 
" clip-path="url(#p84b47b20da)" style="fill: none; stroke: #b0b0b0; stroke-width: 0.8; stroke-linecap: square"/>
     </g>
     <g id="line2d_16">
      <g>
       <use xlink:href="#m6fe800eb0b" x="57.6" y="210.880517" style="stroke: #000000; stroke-width: 0.8"/>
      </g>
     </g>
     <g id="text_8">
      <!-- 0.010 -->
      <g transform="translate(21.971875 214.679736) scale(0.1 -0.1)">
       <use xlink:href="#DejaVuSans-30"/>
       <use xlink:href="#DejaVuSans-2e" x="63.623047"/>
       <use xlink:href="#DejaVuSans-30" x="95.410156"/>
       <use xlink:href="#DejaVuSans-31" x="159.033203"/>
       <use xlink:href="#DejaVuSans-30" x="222.65625"/>
      </g>
     </g>
    </g>
    <g id="ytick_4">
     <g id="line2d_17">
      <path d="M 57.6 168.576776 
L 414.72 168.576776 
" clip-path="url(#p84b47b20da)" style="fill: none; stroke: #b0b0b0; stroke-width: 0.8; stroke-linecap: square"/>
     </g>
     <g id="line2d_18">
      <g>
       <use xlink:href="#m6fe800eb0b" x="57.6" y="168.576776" style="stroke: #000000; stroke-width: 0.8"/>
      </g>
     </g>
     <g id="text_9">
      <!-- 0.015 -->
      <g transform="translate(21.971875 172.375995) scale(0.1 -0.1)">
       <use xlink:href="#DejaVuSans-30"/>
       <use xlink:href="#DejaVuSans-2e" x="63.623047"/>
       <use xlink:href="#DejaVuSans-30" x="95.410156"/>
       <use xlink:href="#DejaVuSans-31" x="159.033203"/>
       <use xlink:href="#DejaVuSans-35" x="222.65625"/>
      </g>
     </g>
    </g>
    <g id="ytick_5">
     <g id="line2d_19">
      <path d="M 57.6 126.273035 
L 414.72 126.273035 
" clip-path="url(#p84b47b20da)" style="fill: none; stroke: #b0b0b0; stroke-width: 0.8; stroke-linecap: square"/>
     </g>
     <g id="line2d_20">
      <g>
       <use xlink:href="#m6fe800eb0b" x="57.6" y="126.273035" style="stroke: #000000; stroke-width: 0.8"/>
      </g>
     </g>
     <g id="text_10">
      <!-- 0.020 -->
      <g transform="translate(21.971875 130.072254) scale(0.1 -0.1)">
       <use xlink:href="#DejaVuSans-30"/>
       <use xlink:href="#DejaVuSans-2e" x="63.623047"/>
       <use xlink:href="#DejaVuSans-30" x="95.410156"/>
       <use xlink:href="#DejaVuSans-32" x="159.033203"/>
       <use xlink:href="#DejaVuSans-30" x="222.65625"/>
      </g>
     </g>
    </g>
    <g id="ytick_6">
     <g id="line2d_21">
      <path d="M 57.6 83.969294 
L 414.72 83.969294 
" clip-path="url(#p84b47b20da)" style="fill: none; stroke: #b0b0b0; stroke-width: 0.8; stroke-linecap: square"/>
     </g>
     <g id="line2d_22">
      <g>
       <use xlink:href="#m6fe800eb0b" x="57.6" y="83.969294" style="stroke: #000000; stroke-width: 0.8"/>
      </g>
     </g>
     <g id="text_11">
      <!-- 0.025 -->
      <g transform="translate(21.971875 87.768512) scale(0.1 -0.1)">
       <use xlink:href="#DejaVuSans-30"/>
       <use xlink:href="#DejaVuSans-2e" x="63.623047"/>
       <use xlink:href="#DejaVuSans-30" x="95.410156"/>
       <use xlink:href="#DejaVuSans-32" x="159.033203"/>
       <use xlink:href="#DejaVuSans-35" x="222.65625"/>
      </g>
     </g>
    </g>
    <g id="ytick_7">
     <g id="line2d_23">
      <path d="M 57.6 41.665552 
L 414.72 41.665552 
" clip-path="url(#p84b47b20da)" style="fill: none; stroke: #b0b0b0; stroke-width: 0.8; stroke-linecap: square"/>
     </g>
     <g id="line2d_24">
      <g>
       <use xlink:href="#m6fe800eb0b" x="57.6" y="41.665552" style="stroke: #000000; stroke-width: 0.8"/>
      </g>
     </g>
     <g id="text_12">
      <!-- 0.030 -->
      <g transform="translate(21.971875 45.464771) scale(0.1 -0.1)">
       <defs>
        <path id="DejaVuSans-33" d="M 2597 2516 
Q 3050 2419 3304 2112 
Q 3559 1806 3559 1356 
Q 3559 666 3084 287 
Q 2609 -91 1734 -91 
Q 1441 -91 1130 -33 
Q 819 25 488 141 
L 488 750 
Q 750 597 1062 519 
Q 1375 441 1716 441 
Q 2309 441 2620 675 
Q 2931 909 2931 1356 
Q 2931 1769 2642 2001 
Q 2353 2234 1838 2234 
L 1294 2234 
L 1294 2753 
L 1863 2753 
Q 2328 2753 2575 2939 
Q 2822 3125 2822 3475 
Q 2822 3834 2567 4026 
Q 2313 4219 1838 4219 
Q 1578 4219 1281 4162 
Q 984 4106 628 3988 
L 628 4550 
Q 988 4650 1302 4700 
Q 1616 4750 1894 4750 
Q 2613 4750 3031 4423 
Q 3450 4097 3450 3541 
Q 3450 3153 3228 2886 
Q 3006 2619 2597 2516 
z
" transform="scale(0.015625)"/>
       </defs>
       <use xlink:href="#DejaVuSans-30"/>
       <use xlink:href="#DejaVuSans-2e" x="63.623047"/>
       <use xlink:href="#DejaVuSans-30" x="95.410156"/>
       <use xlink:href="#DejaVuSans-33" x="159.033203"/>
       <use xlink:href="#DejaVuSans-30" x="222.65625"/>
      </g>
     </g>
    </g>
   </g>
   <g id="line2d_25">
    <path d="M 73.832727 295.445223 
L 86.506929 295.255542 
L 93.981458 294.929451 
L 99.50611 294.474998 
L 104.055823 293.885322 
L 107.955577 293.163912 
L 111.530352 292.274935 
L 114.780147 291.232379 
L 117.704963 290.065483 
L 120.629779 288.645619 
L 123.229615 287.140944 
L 125.829451 285.37947 
L 128.429287 283.333201 
L 131.029124 280.974027 
L 133.62896 278.274282 
L 136.228796 275.207365 
L 138.828632 271.748416 
L 141.428468 267.875014 
L 144.028305 263.567906 
L 146.628141 258.811723 
L 149.227977 253.595678 
L 151.827813 247.914225 
L 154.752629 240.96687 
L 157.677445 233.441021 
L 160.92724 224.426217 
L 164.177035 214.768188 
L 167.75181 203.476443 
L 171.976544 189.373881 
L 177.176216 171.203791 
L 191.800295 119.597764 
L 195.700049 106.892198 
L 198.949844 96.996077 
L 201.87466 88.744743 
L 204.474496 82.006143 
L 207.074333 75.887343 
L 209.349189 71.0813 
L 211.624046 66.817272 
L 213.573923 63.612624 
L 215.5238 60.837251 
L 217.148698 58.859856 
L 218.773595 57.192327 
L 220.398493 55.837968 
L 222.023391 54.798816 
L 223.323309 54.19501 
L 224.623227 53.793287 
L 225.923145 53.592973 
L 227.223063 53.592905 
L 228.522981 53.791437 
L 229.822899 54.186461 
L 231.122817 54.775414 
L 232.747715 55.779714 
L 234.372613 57.075552 
L 235.99751 58.655204 
L 237.947387 60.913222 
L 239.897265 63.551008 
L 241.847142 66.550547 
L 244.121998 70.481296 
L 246.396855 74.845201 
L 248.996691 80.318478 
L 251.921507 87.031044 
L 255.171302 95.086105 
L 258.746077 104.545028 
L 263.29579 117.266955 
L 269.470401 135.271804 
L 281.819623 171.429977 
L 287.019296 185.901026 
L 291.569009 197.918936 
L 295.793743 208.438447 
L 299.693497 217.545713 
L 303.268272 225.356649 
L 306.843047 232.63893 
L 310.417821 239.387771 
L 313.667617 245.062772 
L 316.917412 250.306905 
L 320.167207 255.131526 
L 323.417002 259.55126 
L 326.666798 263.583345 
L 329.916593 267.24702 
L 333.166388 270.562967 
L 336.416183 273.552805 
L 339.665979 276.23865 
L 342.915774 278.642726 
L 346.165569 280.78704 
L 349.740344 282.871416 
L 353.315119 284.695121 
L 357.214873 286.418194 
L 361.114627 287.894408 
L 365.339361 289.249486 
L 369.889075 290.463307 
L 374.763767 291.524075 
L 379.96344 292.428094 
L 385.813071 293.217396 
L 392.637641 293.899676 
L 398.487273 294.3278 
L 398.487273 294.3278 
" clip-path="url(#p84b47b20da)" style="fill: none; stroke: #1f77b4; stroke-width: 1.5; stroke-linecap: square"/>
   </g>
   <g id="LineCollection_1">
    <path d="M 250.614834 295.488 
L 250.614834 83.964193 
" clip-path="url(#p84b47b20da)" style="fill: none; stroke: #008000; stroke-width: 1.5"/>
   </g>
   <g id="patch_3">
    <path d="M 57.6 307.584 
L 57.6 41.472 
" style="fill: none; stroke: #000000; stroke-width: 0.8; stroke-linejoin: miter; stroke-linecap: square"/>
   </g>
   <g id="patch_4">
    <path d="M 414.72 307.584 
L 414.72 41.472 
" style="fill: none; stroke: #000000; stroke-width: 0.8; stroke-linejoin: miter; stroke-linecap: square"/>
   </g>
   <g id="patch_5">
    <path d="M 57.6 307.584 
L 414.72 307.584 
" style="fill: none; stroke: #000000; stroke-width: 0.8; stroke-linejoin: miter; stroke-linecap: square"/>
   </g>
   <g id="patch_6">
    <path d="M 57.6 41.472 
L 414.72 41.472 
" style="fill: none; stroke: #000000; stroke-width: 0.8; stroke-linejoin: miter; stroke-linecap: square"/>
   </g>
   <g id="text_13">
    <!-- Chi-square Distribution with 99 Degrees of Freedom  -->
    <g transform="translate(78.383438 22.034625) scale(0.12 -0.12)">
     <defs>
      <path id="DejaVuSans-43" d="M 4122 4306 
L 4122 3641 
Q 3803 3938 3442 4084 
Q 3081 4231 2675 4231 
Q 1875 4231 1450 3742 
Q 1025 3253 1025 2328 
Q 1025 1406 1450 917 
Q 1875 428 2675 428 
Q 3081 428 3442 575 
Q 3803 722 4122 1019 
L 4122 359 
Q 3791 134 3420 21 
Q 3050 -91 2638 -91 
Q 1578 -91 968 557 
Q 359 1206 359 2328 
Q 359 3453 968 4101 
Q 1578 4750 2638 4750 
Q 3056 4750 3426 4639 
Q 3797 4528 4122 4306 
z
" transform="scale(0.015625)"/>
      <path id="DejaVuSans-68" d="M 3513 2113 
L 3513 0 
L 2938 0 
L 2938 2094 
Q 2938 2591 2744 2837 
Q 2550 3084 2163 3084 
Q 1697 3084 1428 2787 
Q 1159 2491 1159 1978 
L 1159 0 
L 581 0 
L 581 4863 
L 1159 4863 
L 1159 2956 
Q 1366 3272 1645 3428 
Q 1925 3584 2291 3584 
Q 2894 3584 3203 3211 
Q 3513 2838 3513 2113 
z
" transform="scale(0.015625)"/>
      <path id="DejaVuSans-69" d="M 603 3500 
L 1178 3500 
L 1178 0 
L 603 0 
L 603 3500 
z
M 603 4863 
L 1178 4863 
L 1178 4134 
L 603 4134 
L 603 4863 
z
" transform="scale(0.015625)"/>
      <path id="DejaVuSans-2d" d="M 313 2009 
L 1997 2009 
L 1997 1497 
L 313 1497 
L 313 2009 
z
" transform="scale(0.015625)"/>
      <path id="DejaVuSans-73" d="M 2834 3397 
L 2834 2853 
Q 2591 2978 2328 3040 
Q 2066 3103 1784 3103 
Q 1356 3103 1142 2972 
Q 928 2841 928 2578 
Q 928 2378 1081 2264 
Q 1234 2150 1697 2047 
L 1894 2003 
Q 2506 1872 2764 1633 
Q 3022 1394 3022 966 
Q 3022 478 2636 193 
Q 2250 -91 1575 -91 
Q 1294 -91 989 -36 
Q 684 19 347 128 
L 347 722 
Q 666 556 975 473 
Q 1284 391 1588 391 
Q 1994 391 2212 530 
Q 2431 669 2431 922 
Q 2431 1156 2273 1281 
Q 2116 1406 1581 1522 
L 1381 1569 
Q 847 1681 609 1914 
Q 372 2147 372 2553 
Q 372 3047 722 3315 
Q 1072 3584 1716 3584 
Q 2034 3584 2315 3537 
Q 2597 3491 2834 3397 
z
" transform="scale(0.015625)"/>
      <path id="DejaVuSans-71" d="M 947 1747 
Q 947 1113 1208 752 
Q 1469 391 1925 391 
Q 2381 391 2643 752 
Q 2906 1113 2906 1747 
Q 2906 2381 2643 2742 
Q 2381 3103 1925 3103 
Q 1469 3103 1208 2742 
Q 947 2381 947 1747 
z
M 2906 525 
Q 2725 213 2448 61 
Q 2172 -91 1784 -91 
Q 1150 -91 751 415 
Q 353 922 353 1747 
Q 353 2572 751 3078 
Q 1150 3584 1784 3584 
Q 2172 3584 2448 3432 
Q 2725 3281 2906 2969 
L 2906 3500 
L 3481 3500 
L 3481 -1331 
L 2906 -1331 
L 2906 525 
z
" transform="scale(0.015625)"/>
      <path id="DejaVuSans-75" d="M 544 1381 
L 544 3500 
L 1119 3500 
L 1119 1403 
Q 1119 906 1312 657 
Q 1506 409 1894 409 
Q 2359 409 2629 706 
Q 2900 1003 2900 1516 
L 2900 3500 
L 3475 3500 
L 3475 0 
L 2900 0 
L 2900 538 
Q 2691 219 2414 64 
Q 2138 -91 1772 -91 
Q 1169 -91 856 284 
Q 544 659 544 1381 
z
M 1991 3584 
L 1991 3584 
z
" transform="scale(0.015625)"/>
      <path id="DejaVuSans-61" d="M 2194 1759 
Q 1497 1759 1228 1600 
Q 959 1441 959 1056 
Q 959 750 1161 570 
Q 1363 391 1709 391 
Q 2188 391 2477 730 
Q 2766 1069 2766 1631 
L 2766 1759 
L 2194 1759 
z
M 3341 1997 
L 3341 0 
L 2766 0 
L 2766 531 
Q 2569 213 2275 61 
Q 1981 -91 1556 -91 
Q 1019 -91 701 211 
Q 384 513 384 1019 
Q 384 1609 779 1909 
Q 1175 2209 1959 2209 
L 2766 2209 
L 2766 2266 
Q 2766 2663 2505 2880 
Q 2244 3097 1772 3097 
Q 1472 3097 1187 3025 
Q 903 2953 641 2809 
L 641 3341 
Q 956 3463 1253 3523 
Q 1550 3584 1831 3584 
Q 2591 3584 2966 3190 
Q 3341 2797 3341 1997 
z
" transform="scale(0.015625)"/>
      <path id="DejaVuSans-72" d="M 2631 2963 
Q 2534 3019 2420 3045 
Q 2306 3072 2169 3072 
Q 1681 3072 1420 2755 
Q 1159 2438 1159 1844 
L 1159 0 
L 581 0 
L 581 3500 
L 1159 3500 
L 1159 2956 
Q 1341 3275 1631 3429 
Q 1922 3584 2338 3584 
Q 2397 3584 2469 3576 
Q 2541 3569 2628 3553 
L 2631 2963 
z
" transform="scale(0.015625)"/>
      <path id="DejaVuSans-65" d="M 3597 1894 
L 3597 1613 
L 953 1613 
Q 991 1019 1311 708 
Q 1631 397 2203 397 
Q 2534 397 2845 478 
Q 3156 559 3463 722 
L 3463 178 
Q 3153 47 2828 -22 
Q 2503 -91 2169 -91 
Q 1331 -91 842 396 
Q 353 884 353 1716 
Q 353 2575 817 3079 
Q 1281 3584 2069 3584 
Q 2775 3584 3186 3129 
Q 3597 2675 3597 1894 
z
M 3022 2063 
Q 3016 2534 2758 2815 
Q 2500 3097 2075 3097 
Q 1594 3097 1305 2825 
Q 1016 2553 972 2059 
L 3022 2063 
z
" transform="scale(0.015625)"/>
      <path id="DejaVuSans-20" transform="scale(0.015625)"/>
      <path id="DejaVuSans-44" d="M 1259 4147 
L 1259 519 
L 2022 519 
Q 2988 519 3436 956 
Q 3884 1394 3884 2338 
Q 3884 3275 3436 3711 
Q 2988 4147 2022 4147 
L 1259 4147 
z
M 628 4666 
L 1925 4666 
Q 3281 4666 3915 4102 
Q 4550 3538 4550 2338 
Q 4550 1131 3912 565 
Q 3275 0 1925 0 
L 628 0 
L 628 4666 
z
" transform="scale(0.015625)"/>
      <path id="DejaVuSans-74" d="M 1172 4494 
L 1172 3500 
L 2356 3500 
L 2356 3053 
L 1172 3053 
L 1172 1153 
Q 1172 725 1289 603 
Q 1406 481 1766 481 
L 2356 481 
L 2356 0 
L 1766 0 
Q 1100 0 847 248 
Q 594 497 594 1153 
L 594 3053 
L 172 3053 
L 172 3500 
L 594 3500 
L 594 4494 
L 1172 4494 
z
" transform="scale(0.015625)"/>
      <path id="DejaVuSans-62" d="M 3116 1747 
Q 3116 2381 2855 2742 
Q 2594 3103 2138 3103 
Q 1681 3103 1420 2742 
Q 1159 2381 1159 1747 
Q 1159 1113 1420 752 
Q 1681 391 2138 391 
Q 2594 391 2855 752 
Q 3116 1113 3116 1747 
z
M 1159 2969 
Q 1341 3281 1617 3432 
Q 1894 3584 2278 3584 
Q 2916 3584 3314 3078 
Q 3713 2572 3713 1747 
Q 3713 922 3314 415 
Q 2916 -91 2278 -91 
Q 1894 -91 1617 61 
Q 1341 213 1159 525 
L 1159 0 
L 581 0 
L 581 4863 
L 1159 4863 
L 1159 2969 
z
" transform="scale(0.015625)"/>
      <path id="DejaVuSans-6f" d="M 1959 3097 
Q 1497 3097 1228 2736 
Q 959 2375 959 1747 
Q 959 1119 1226 758 
Q 1494 397 1959 397 
Q 2419 397 2687 759 
Q 2956 1122 2956 1747 
Q 2956 2369 2687 2733 
Q 2419 3097 1959 3097 
z
M 1959 3584 
Q 2709 3584 3137 3096 
Q 3566 2609 3566 1747 
Q 3566 888 3137 398 
Q 2709 -91 1959 -91 
Q 1206 -91 779 398 
Q 353 888 353 1747 
Q 353 2609 779 3096 
Q 1206 3584 1959 3584 
z
" transform="scale(0.015625)"/>
      <path id="DejaVuSans-6e" d="M 3513 2113 
L 3513 0 
L 2938 0 
L 2938 2094 
Q 2938 2591 2744 2837 
Q 2550 3084 2163 3084 
Q 1697 3084 1428 2787 
Q 1159 2491 1159 1978 
L 1159 0 
L 581 0 
L 581 3500 
L 1159 3500 
L 1159 2956 
Q 1366 3272 1645 3428 
Q 1925 3584 2291 3584 
Q 2894 3584 3203 3211 
Q 3513 2838 3513 2113 
z
" transform="scale(0.015625)"/>
      <path id="DejaVuSans-77" d="M 269 3500 
L 844 3500 
L 1563 769 
L 2278 3500 
L 2956 3500 
L 3675 769 
L 4391 3500 
L 4966 3500 
L 4050 0 
L 3372 0 
L 2619 2869 
L 1863 0 
L 1184 0 
L 269 3500 
z
" transform="scale(0.015625)"/>
      <path id="DejaVuSans-39" d="M 703 97 
L 703 672 
Q 941 559 1184 500 
Q 1428 441 1663 441 
Q 2288 441 2617 861 
Q 2947 1281 2994 2138 
Q 2813 1869 2534 1725 
Q 2256 1581 1919 1581 
Q 1219 1581 811 2004 
Q 403 2428 403 3163 
Q 403 3881 828 4315 
Q 1253 4750 1959 4750 
Q 2769 4750 3195 4129 
Q 3622 3509 3622 2328 
Q 3622 1225 3098 567 
Q 2575 -91 1691 -91 
Q 1453 -91 1209 -44 
Q 966 3 703 97 
z
M 1959 2075 
Q 2384 2075 2632 2365 
Q 2881 2656 2881 3163 
Q 2881 3666 2632 3958 
Q 2384 4250 1959 4250 
Q 1534 4250 1286 3958 
Q 1038 3666 1038 3163 
Q 1038 2656 1286 2365 
Q 1534 2075 1959 2075 
z
" transform="scale(0.015625)"/>
      <path id="DejaVuSans-67" d="M 2906 1791 
Q 2906 2416 2648 2759 
Q 2391 3103 1925 3103 
Q 1463 3103 1205 2759 
Q 947 2416 947 1791 
Q 947 1169 1205 825 
Q 1463 481 1925 481 
Q 2391 481 2648 825 
Q 2906 1169 2906 1791 
z
M 3481 434 
Q 3481 -459 3084 -895 
Q 2688 -1331 1869 -1331 
Q 1566 -1331 1297 -1286 
Q 1028 -1241 775 -1147 
L 775 -588 
Q 1028 -725 1275 -790 
Q 1522 -856 1778 -856 
Q 2344 -856 2625 -561 
Q 2906 -266 2906 331 
L 2906 616 
Q 2728 306 2450 153 
Q 2172 0 1784 0 
Q 1141 0 747 490 
Q 353 981 353 1791 
Q 353 2603 747 3093 
Q 1141 3584 1784 3584 
Q 2172 3584 2450 3431 
Q 2728 3278 2906 2969 
L 2906 3500 
L 3481 3500 
L 3481 434 
z
" transform="scale(0.015625)"/>
      <path id="DejaVuSans-66" d="M 2375 4863 
L 2375 4384 
L 1825 4384 
Q 1516 4384 1395 4259 
Q 1275 4134 1275 3809 
L 1275 3500 
L 2222 3500 
L 2222 3053 
L 1275 3053 
L 1275 0 
L 697 0 
L 697 3053 
L 147 3053 
L 147 3500 
L 697 3500 
L 697 3744 
Q 697 4328 969 4595 
Q 1241 4863 1831 4863 
L 2375 4863 
z
" transform="scale(0.015625)"/>
      <path id="DejaVuSans-46" d="M 628 4666 
L 3309 4666 
L 3309 4134 
L 1259 4134 
L 1259 2759 
L 3109 2759 
L 3109 2228 
L 1259 2228 
L 1259 0 
L 628 0 
L 628 4666 
z
" transform="scale(0.015625)"/>
      <path id="DejaVuSans-64" d="M 2906 2969 
L 2906 4863 
L 3481 4863 
L 3481 0 
L 2906 0 
L 2906 525 
Q 2725 213 2448 61 
Q 2172 -91 1784 -91 
Q 1150 -91 751 415 
Q 353 922 353 1747 
Q 353 2572 751 3078 
Q 1150 3584 1784 3584 
Q 2172 3584 2448 3432 
Q 2725 3281 2906 2969 
z
M 947 1747 
Q 947 1113 1208 752 
Q 1469 391 1925 391 
Q 2381 391 2643 752 
Q 2906 1113 2906 1747 
Q 2906 2381 2643 2742 
Q 2381 3103 1925 3103 
Q 1469 3103 1208 2742 
Q 947 2381 947 1747 
z
" transform="scale(0.015625)"/>
      <path id="DejaVuSans-6d" d="M 3328 2828 
Q 3544 3216 3844 3400 
Q 4144 3584 4550 3584 
Q 5097 3584 5394 3201 
Q 5691 2819 5691 2113 
L 5691 0 
L 5113 0 
L 5113 2094 
Q 5113 2597 4934 2840 
Q 4756 3084 4391 3084 
Q 3944 3084 3684 2787 
Q 3425 2491 3425 1978 
L 3425 0 
L 2847 0 
L 2847 2094 
Q 2847 2600 2669 2842 
Q 2491 3084 2119 3084 
Q 1678 3084 1418 2786 
Q 1159 2488 1159 1978 
L 1159 0 
L 581 0 
L 581 3500 
L 1159 3500 
L 1159 2956 
Q 1356 3278 1631 3431 
Q 1906 3584 2284 3584 
Q 2666 3584 2933 3390 
Q 3200 3197 3328 2828 
z
" transform="scale(0.015625)"/>
     </defs>
     <use xlink:href="#DejaVuSans-43"/>
     <use xlink:href="#DejaVuSans-68" x="69.824219"/>
     <use xlink:href="#DejaVuSans-69" x="133.203125"/>
     <use xlink:href="#DejaVuSans-2d" x="160.986328"/>
     <use xlink:href="#DejaVuSans-73" x="197.070312"/>
     <use xlink:href="#DejaVuSans-71" x="249.169922"/>
     <use xlink:href="#DejaVuSans-75" x="312.646484"/>
     <use xlink:href="#DejaVuSans-61" x="376.025391"/>
     <use xlink:href="#DejaVuSans-72" x="437.304688"/>
     <use xlink:href="#DejaVuSans-65" x="476.167969"/>
     <use xlink:href="#DejaVuSans-20" x="537.691406"/>
     <use xlink:href="#DejaVuSans-44" x="569.478516"/>
     <use xlink:href="#DejaVuSans-69" x="646.480469"/>
     <use xlink:href="#DejaVuSans-73" x="674.263672"/>
     <use xlink:href="#DejaVuSans-74" x="726.363281"/>
     <use xlink:href="#DejaVuSans-72" x="765.572266"/>
     <use xlink:href="#DejaVuSans-69" x="806.685547"/>
     <use xlink:href="#DejaVuSans-62" x="834.46875"/>
     <use xlink:href="#DejaVuSans-75" x="897.945312"/>
     <use xlink:href="#DejaVuSans-74" x="961.324219"/>
     <use xlink:href="#DejaVuSans-69" x="1000.533203"/>
     <use xlink:href="#DejaVuSans-6f" x="1028.316406"/>
     <use xlink:href="#DejaVuSans-6e" x="1089.498047"/>
     <use xlink:href="#DejaVuSans-20" x="1152.876953"/>
     <use xlink:href="#DejaVuSans-77" x="1184.664062"/>
     <use xlink:href="#DejaVuSans-69" x="1266.451172"/>
     <use xlink:href="#DejaVuSans-74" x="1294.234375"/>
     <use xlink:href="#DejaVuSans-68" x="1333.443359"/>
     <use xlink:href="#DejaVuSans-20" x="1396.822266"/>
     <use xlink:href="#DejaVuSans-39" x="1428.609375"/>
     <use xlink:href="#DejaVuSans-39" x="1492.232422"/>
     <use xlink:href="#DejaVuSans-20" x="1555.855469"/>
     <use xlink:href="#DejaVuSans-44" x="1587.642578"/>
     <use xlink:href="#DejaVuSans-65" x="1664.644531"/>
     <use xlink:href="#DejaVuSans-67" x="1726.167969"/>
     <use xlink:href="#DejaVuSans-72" x="1789.644531"/>
     <use xlink:href="#DejaVuSans-65" x="1828.507812"/>
     <use xlink:href="#DejaVuSans-65" x="1890.03125"/>
     <use xlink:href="#DejaVuSans-73" x="1951.554688"/>
     <use xlink:href="#DejaVuSans-20" x="2003.654297"/>
     <use xlink:href="#DejaVuSans-6f" x="2035.441406"/>
     <use xlink:href="#DejaVuSans-66" x="2096.623047"/>
     <use xlink:href="#DejaVuSans-20" x="2131.828125"/>
     <use xlink:href="#DejaVuSans-46" x="2163.615234"/>
     <use xlink:href="#DejaVuSans-72" x="2213.884766"/>
     <use xlink:href="#DejaVuSans-65" x="2252.748047"/>
     <use xlink:href="#DejaVuSans-65" x="2314.271484"/>
     <use xlink:href="#DejaVuSans-64" x="2375.794922"/>
     <use xlink:href="#DejaVuSans-6f" x="2439.271484"/>
     <use xlink:href="#DejaVuSans-6d" x="2500.453125"/>
     <use xlink:href="#DejaVuSans-20" x="2597.865234"/>
    </g>
    <!--  p-Value = 0.336 -->
    <g transform="translate(186.135938 35.472) scale(0.12 -0.12)">
     <defs>
      <path id="DejaVuSans-70" d="M 1159 525 
L 1159 -1331 
L 581 -1331 
L 581 3500 
L 1159 3500 
L 1159 2969 
Q 1341 3281 1617 3432 
Q 1894 3584 2278 3584 
Q 2916 3584 3314 3078 
Q 3713 2572 3713 1747 
Q 3713 922 3314 415 
Q 2916 -91 2278 -91 
Q 1894 -91 1617 61 
Q 1341 213 1159 525 
z
M 3116 1747 
Q 3116 2381 2855 2742 
Q 2594 3103 2138 3103 
Q 1681 3103 1420 2742 
Q 1159 2381 1159 1747 
Q 1159 1113 1420 752 
Q 1681 391 2138 391 
Q 2594 391 2855 752 
Q 3116 1113 3116 1747 
z
" transform="scale(0.015625)"/>
      <path id="DejaVuSans-56" d="M 1831 0 
L 50 4666 
L 709 4666 
L 2188 738 
L 3669 4666 
L 4325 4666 
L 2547 0 
L 1831 0 
z
" transform="scale(0.015625)"/>
      <path id="DejaVuSans-6c" d="M 603 4863 
L 1178 4863 
L 1178 0 
L 603 0 
L 603 4863 
z
" transform="scale(0.015625)"/>
      <path id="DejaVuSans-3d" d="M 678 2906 
L 4684 2906 
L 4684 2381 
L 678 2381 
L 678 2906 
z
M 678 1631 
L 4684 1631 
L 4684 1100 
L 678 1100 
L 678 1631 
z
" transform="scale(0.015625)"/>
     </defs>
     <use xlink:href="#DejaVuSans-20"/>
     <use xlink:href="#DejaVuSans-70" x="31.787109"/>
     <use xlink:href="#DejaVuSans-2d" x="95.263672"/>
     <use xlink:href="#DejaVuSans-56" x="125.472656"/>
     <use xlink:href="#DejaVuSans-61" x="186.130859"/>
     <use xlink:href="#DejaVuSans-6c" x="247.410156"/>
     <use xlink:href="#DejaVuSans-75" x="275.193359"/>
     <use xlink:href="#DejaVuSans-65" x="338.572266"/>
     <use xlink:href="#DejaVuSans-20" x="400.095703"/>
     <use xlink:href="#DejaVuSans-3d" x="431.882812"/>
     <use xlink:href="#DejaVuSans-20" x="515.671875"/>
     <use xlink:href="#DejaVuSans-30" x="547.458984"/>
     <use xlink:href="#DejaVuSans-2e" x="611.082031"/>
     <use xlink:href="#DejaVuSans-33" x="642.869141"/>
     <use xlink:href="#DejaVuSans-33" x="706.492188"/>
     <use xlink:href="#DejaVuSans-36" x="770.115234"/>
    </g>
   </g>
   <g id="legend_1">
    <g id="patch_7">
     <path d="M 246.91875 71.357 
L 409.12 71.357 
Q 410.72 71.357 410.72 69.757 
L 410.72 47.072 
Q 410.72 45.472 409.12 45.472 
L 246.91875 45.472 
Q 245.31875 45.472 245.31875 47.072 
L 245.31875 69.757 
Q 245.31875 71.357 246.91875 71.357 
z
" style="fill: #ffffff; opacity: 0.8; stroke: #cccccc; stroke-linejoin: miter"/>
    </g>
    <g id="line2d_26">
     <path d="M 248.51875 51.95075 
L 264.51875 51.95075 
" style="fill: none; stroke: #008000; stroke-width: 1.5"/>
    </g>
    <g id="text_14">
     <!-- Observed Test Statistic = 104.398 -->
     <g transform="translate(270.91875 54.75075) scale(0.08 -0.08)">
      <defs>
       <path id="DejaVuSans-4f" d="M 2522 4238 
Q 1834 4238 1429 3725 
Q 1025 3213 1025 2328 
Q 1025 1447 1429 934 
Q 1834 422 2522 422 
Q 3209 422 3611 934 
Q 4013 1447 4013 2328 
Q 4013 3213 3611 3725 
Q 3209 4238 2522 4238 
z
M 2522 4750 
Q 3503 4750 4090 4092 
Q 4678 3434 4678 2328 
Q 4678 1225 4090 567 
Q 3503 -91 2522 -91 
Q 1538 -91 948 565 
Q 359 1222 359 2328 
Q 359 3434 948 4092 
Q 1538 4750 2522 4750 
z
" transform="scale(0.015625)"/>
       <path id="DejaVuSans-76" d="M 191 3500 
L 800 3500 
L 1894 563 
L 2988 3500 
L 3597 3500 
L 2284 0 
L 1503 0 
L 191 3500 
z
" transform="scale(0.015625)"/>
       <path id="DejaVuSans-54" d="M -19 4666 
L 3928 4666 
L 3928 4134 
L 2272 4134 
L 2272 0 
L 1638 0 
L 1638 4134 
L -19 4134 
L -19 4666 
z
" transform="scale(0.015625)"/>
       <path id="DejaVuSans-53" d="M 3425 4513 
L 3425 3897 
Q 3066 4069 2747 4153 
Q 2428 4238 2131 4238 
Q 1616 4238 1336 4038 
Q 1056 3838 1056 3469 
Q 1056 3159 1242 3001 
Q 1428 2844 1947 2747 
L 2328 2669 
Q 3034 2534 3370 2195 
Q 3706 1856 3706 1288 
Q 3706 609 3251 259 
Q 2797 -91 1919 -91 
Q 1588 -91 1214 -16 
Q 841 59 441 206 
L 441 856 
Q 825 641 1194 531 
Q 1563 422 1919 422 
Q 2459 422 2753 634 
Q 3047 847 3047 1241 
Q 3047 1584 2836 1778 
Q 2625 1972 2144 2069 
L 1759 2144 
Q 1053 2284 737 2584 
Q 422 2884 422 3419 
Q 422 4038 858 4394 
Q 1294 4750 2059 4750 
Q 2388 4750 2728 4690 
Q 3069 4631 3425 4513 
z
" transform="scale(0.015625)"/>
       <path id="DejaVuSans-63" d="M 3122 3366 
L 3122 2828 
Q 2878 2963 2633 3030 
Q 2388 3097 2138 3097 
Q 1578 3097 1268 2742 
Q 959 2388 959 1747 
Q 959 1106 1268 751 
Q 1578 397 2138 397 
Q 2388 397 2633 464 
Q 2878 531 3122 666 
L 3122 134 
Q 2881 22 2623 -34 
Q 2366 -91 2075 -91 
Q 1284 -91 818 406 
Q 353 903 353 1747 
Q 353 2603 823 3093 
Q 1294 3584 2113 3584 
Q 2378 3584 2631 3529 
Q 2884 3475 3122 3366 
z
" transform="scale(0.015625)"/>
      </defs>
      <use xlink:href="#DejaVuSans-4f"/>
      <use xlink:href="#DejaVuSans-62" x="78.710938"/>
      <use xlink:href="#DejaVuSans-73" x="142.1875"/>
      <use xlink:href="#DejaVuSans-65" x="194.287109"/>
      <use xlink:href="#DejaVuSans-72" x="255.810547"/>
      <use xlink:href="#DejaVuSans-76" x="296.923828"/>
      <use xlink:href="#DejaVuSans-65" x="356.103516"/>
      <use xlink:href="#DejaVuSans-64" x="417.626953"/>
      <use xlink:href="#DejaVuSans-20" x="481.103516"/>
      <use xlink:href="#DejaVuSans-54" x="512.890625"/>
      <use xlink:href="#DejaVuSans-65" x="556.974609"/>
      <use xlink:href="#DejaVuSans-73" x="618.498047"/>
      <use xlink:href="#DejaVuSans-74" x="670.597656"/>
      <use xlink:href="#DejaVuSans-20" x="709.806641"/>
      <use xlink:href="#DejaVuSans-53" x="741.59375"/>
      <use xlink:href="#DejaVuSans-74" x="805.070312"/>
      <use xlink:href="#DejaVuSans-61" x="844.279297"/>
      <use xlink:href="#DejaVuSans-74" x="905.558594"/>
      <use xlink:href="#DejaVuSans-69" x="944.767578"/>
      <use xlink:href="#DejaVuSans-73" x="972.550781"/>
      <use xlink:href="#DejaVuSans-74" x="1024.650391"/>
      <use xlink:href="#DejaVuSans-69" x="1063.859375"/>
      <use xlink:href="#DejaVuSans-63" x="1091.642578"/>
      <use xlink:href="#DejaVuSans-20" x="1146.623047"/>
      <use xlink:href="#DejaVuSans-3d" x="1178.410156"/>
      <use xlink:href="#DejaVuSans-20" x="1262.199219"/>
      <use xlink:href="#DejaVuSans-31" x="1293.986328"/>
      <use xlink:href="#DejaVuSans-30" x="1357.609375"/>
      <use xlink:href="#DejaVuSans-34" x="1421.232422"/>
      <use xlink:href="#DejaVuSans-2e" x="1484.855469"/>
      <use xlink:href="#DejaVuSans-33" x="1516.642578"/>
      <use xlink:href="#DejaVuSans-39" x="1580.265625"/>
      <use xlink:href="#DejaVuSans-38" x="1643.888672"/>
     </g>
    </g>
    <g id="patch_8">
     <path d="M 248.51875 66.49325 
L 264.51875 66.49325 
L 264.51875 60.89325 
L 248.51875 60.89325 
z
" style="fill: #ff0000; stroke: #ff0000; stroke-linejoin: miter"/>
    </g>
    <g id="text_15">
     <!-- Rejection Region (level=0.05) -->
     <g transform="translate(270.91875 66.49325) scale(0.08 -0.08)">
      <defs>
       <path id="DejaVuSans-52" d="M 2841 2188 
Q 3044 2119 3236 1894 
Q 3428 1669 3622 1275 
L 4263 0 
L 3584 0 
L 2988 1197 
Q 2756 1666 2539 1819 
Q 2322 1972 1947 1972 
L 1259 1972 
L 1259 0 
L 628 0 
L 628 4666 
L 2053 4666 
Q 2853 4666 3247 4331 
Q 3641 3997 3641 3322 
Q 3641 2881 3436 2590 
Q 3231 2300 2841 2188 
z
M 1259 4147 
L 1259 2491 
L 2053 2491 
Q 2509 2491 2742 2702 
Q 2975 2913 2975 3322 
Q 2975 3731 2742 3939 
Q 2509 4147 2053 4147 
L 1259 4147 
z
" transform="scale(0.015625)"/>
       <path id="DejaVuSans-6a" d="M 603 3500 
L 1178 3500 
L 1178 -63 
Q 1178 -731 923 -1031 
Q 669 -1331 103 -1331 
L -116 -1331 
L -116 -844 
L 38 -844 
Q 366 -844 484 -692 
Q 603 -541 603 -63 
L 603 3500 
z
M 603 4863 
L 1178 4863 
L 1178 4134 
L 603 4134 
L 603 4863 
z
" transform="scale(0.015625)"/>
       <path id="DejaVuSans-28" d="M 1984 4856 
Q 1566 4138 1362 3434 
Q 1159 2731 1159 2009 
Q 1159 1288 1364 580 
Q 1569 -128 1984 -844 
L 1484 -844 
Q 1016 -109 783 600 
Q 550 1309 550 2009 
Q 550 2706 781 3412 
Q 1013 4119 1484 4856 
L 1984 4856 
z
" transform="scale(0.015625)"/>
       <path id="DejaVuSans-29" d="M 513 4856 
L 1013 4856 
Q 1481 4119 1714 3412 
Q 1947 2706 1947 2009 
Q 1947 1309 1714 600 
Q 1481 -109 1013 -844 
L 513 -844 
Q 928 -128 1133 580 
Q 1338 1288 1338 2009 
Q 1338 2731 1133 3434 
Q 928 4138 513 4856 
z
" transform="scale(0.015625)"/>
      </defs>
      <use xlink:href="#DejaVuSans-52"/>
      <use xlink:href="#DejaVuSans-65" x="64.982422"/>
      <use xlink:href="#DejaVuSans-6a" x="126.505859"/>
      <use xlink:href="#DejaVuSans-65" x="154.289062"/>
      <use xlink:href="#DejaVuSans-63" x="215.8125"/>
      <use xlink:href="#DejaVuSans-74" x="270.792969"/>
      <use xlink:href="#DejaVuSans-69" x="310.001953"/>
      <use xlink:href="#DejaVuSans-6f" x="337.785156"/>
      <use xlink:href="#DejaVuSans-6e" x="398.966797"/>
      <use xlink:href="#DejaVuSans-20" x="462.345703"/>
      <use xlink:href="#DejaVuSans-52" x="494.132812"/>
      <use xlink:href="#DejaVuSans-65" x="559.115234"/>
      <use xlink:href="#DejaVuSans-67" x="620.638672"/>
      <use xlink:href="#DejaVuSans-69" x="684.115234"/>
      <use xlink:href="#DejaVuSans-6f" x="711.898438"/>
      <use xlink:href="#DejaVuSans-6e" x="773.080078"/>
      <use xlink:href="#DejaVuSans-20" x="836.458984"/>
      <use xlink:href="#DejaVuSans-28" x="868.246094"/>
      <use xlink:href="#DejaVuSans-6c" x="907.259766"/>
      <use xlink:href="#DejaVuSans-65" x="935.042969"/>
      <use xlink:href="#DejaVuSans-76" x="996.566406"/>
      <use xlink:href="#DejaVuSans-65" x="1055.746094"/>
      <use xlink:href="#DejaVuSans-6c" x="1117.269531"/>
      <use xlink:href="#DejaVuSans-3d" x="1145.052734"/>
      <use xlink:href="#DejaVuSans-30" x="1228.841797"/>
      <use xlink:href="#DejaVuSans-2e" x="1292.464844"/>
      <use xlink:href="#DejaVuSans-30" x="1324.251953"/>
      <use xlink:href="#DejaVuSans-35" x="1387.875"/>
      <use xlink:href="#DejaVuSans-29" x="1451.498047"/>
     </g>
    </g>
   </g>
  </g>
 </g>
 <defs>
  <clipPath id="p84b47b20da">
   <rect x="57.6" y="41.472" width="357.12" height="266.112"/>
  </clipPath>
 </defs>
</svg>
