<?xml version="1.0" encoding="utf-8" standalone="no"?>
<!DOCTYPE svg PUBLIC "-//W3C//DTD SVG 1.1//EN"
  "http://www.w3.org/Graphics/SVG/1.1/DTD/svg11.dtd">
<svg xmlns:xlink="http://www.w3.org/1999/xlink" width="1008pt" height="504pt" viewBox="0 0 1008 504" xmlns="http://www.w3.org/2000/svg" version="1.1">
 <metadata>
  <rdf:RDF xmlns:dc="http://purl.org/dc/elements/1.1/" xmlns:cc="http://creativecommons.org/ns#" xmlns:rdf="http://www.w3.org/1999/02/22-rdf-syntax-ns#">
   <cc:Work>
    <dc:type rdf:resource="http://purl.org/dc/dcmitype/StillImage"/>
    <dc:date>2024-10-27T14:57:15.257770</dc:date>
    <dc:format>image/svg+xml</dc:format>
    <dc:creator>
     <cc:Agent>
      <dc:title>Matplotlib v3.9.2, https://matplotlib.org/</dc:title>
     </cc:Agent>
    </dc:creator>
   </cc:Work>
  </rdf:RDF>
 </metadata>
 <defs>
  <style type="text/css">*{stroke-linejoin: round; stroke-linecap: butt}</style>
 </defs>
 <g id="figure_1">
  <g id="patch_1">
   <path d="M 0 504 
L 1008 504 
L 1008 0 
L 0 0 
z
" style="fill: #ffffff"/>
  </g>
  <g id="axes_1">
   <g id="patch_2">
    <path d="M 126 448.56 
L 907.2 448.56 
L 907.2 60.48 
L 126 60.48 
z
" style="fill: #ffffff"/>
   </g>
   <g id="matplotlib.axis_1">
    <g id="xtick_1">
     <g id="line2d_1">
      <defs>
       <path id="mf2b16650ee" d="M 0 0 
L 0 3.5 
" style="stroke: #000000; stroke-width: 0.8"/>
      </defs>
      <g>
       <use xlink:href="#mf2b16650ee" x="245.90751" y="448.56" style="stroke: #000000; stroke-width: 0.8"/>
      </g>
     </g>
     <g id="text_1">
      <!-- 2022-03 -->
      <g transform="translate(225.016104 463.158437) scale(0.1 -0.1)">
       <defs>
        <path id="DejaVuSans-32" d="M 1228 531 
L 3431 531 
L 3431 0 
L 469 0 
L 469 531 
Q 828 903 1448 1529 
Q 2069 2156 2228 2338 
Q 2531 2678 2651 2914 
Q 2772 3150 2772 3378 
Q 2772 3750 2511 3984 
Q 2250 4219 1831 4219 
Q 1534 4219 1204 4116 
Q 875 4013 500 3803 
L 500 4441 
Q 881 4594 1212 4672 
Q 1544 4750 1819 4750 
Q 2544 4750 2975 4387 
Q 3406 4025 3406 3419 
Q 3406 3131 3298 2873 
Q 3191 2616 2906 2266 
Q 2828 2175 2409 1742 
Q 1991 1309 1228 531 
z
" transform="scale(0.015625)"/>
        <path id="DejaVuSans-30" d="M 2034 4250 
Q 1547 4250 1301 3770 
Q 1056 3291 1056 2328 
Q 1056 1369 1301 889 
Q 1547 409 2034 409 
Q 2525 409 2770 889 
Q 3016 1369 3016 2328 
Q 3016 3291 2770 3770 
Q 2525 4250 2034 4250 
z
M 2034 4750 
Q 2819 4750 3233 4129 
Q 3647 3509 3647 2328 
Q 3647 1150 3233 529 
Q 2819 -91 2034 -91 
Q 1250 -91 836 529 
Q 422 1150 422 2328 
Q 422 3509 836 4129 
Q 1250 4750 2034 4750 
z
" transform="scale(0.015625)"/>
        <path id="DejaVuSans-2d" d="M 313 2009 
L 1997 2009 
L 1997 1497 
L 313 1497 
L 313 2009 
z
" transform="scale(0.015625)"/>
        <path id="DejaVuSans-33" d="M 2597 2516 
Q 3050 2419 3304 2112 
Q 3559 1806 3559 1356 
Q 3559 666 3084 287 
Q 2609 -91 1734 -91 
Q 1441 -91 1130 -33 
Q 819 25 488 141 
L 488 750 
Q 750 597 1062 519 
Q 1375 441 1716 441 
Q 2309 441 2620 675 
Q 2931 909 2931 1356 
Q 2931 1769 2642 2001 
Q 2353 2234 1838 2234 
L 1294 2234 
L 1294 2753 
L 1863 2753 
Q 2328 2753 2575 2939 
Q 2822 3125 2822 3475 
Q 2822 3834 2567 4026 
Q 2313 4219 1838 4219 
Q 1578 4219 1281 4162 
Q 984 4106 628 3988 
L 628 4550 
Q 988 4650 1302 4700 
Q 1616 4750 1894 4750 
Q 2613 4750 3031 4423 
Q 3450 4097 3450 3541 
Q 3450 3153 3228 2886 
Q 3006 2619 2597 2516 
z
" transform="scale(0.015625)"/>
       </defs>
       <use xlink:href="#DejaVuSans-32"/>
       <use xlink:href="#DejaVuSans-30" x="63.623047"/>
       <use xlink:href="#DejaVuSans-32" x="127.246094"/>
       <use xlink:href="#DejaVuSans-32" x="190.869141"/>
       <use xlink:href="#DejaVuSans-2d" x="254.492188"/>
       <use xlink:href="#DejaVuSans-30" x="290.576172"/>
       <use xlink:href="#DejaVuSans-33" x="354.199219"/>
      </g>
     </g>
    </g>
    <g id="xtick_2">
     <g id="line2d_2">
      <g>
       <use xlink:href="#mf2b16650ee" x="371.475889" y="448.56" style="stroke: #000000; stroke-width: 0.8"/>
      </g>
     </g>
     <g id="text_2">
      <!-- 2022-05 -->
      <g transform="translate(350.584483 463.158437) scale(0.1 -0.1)">
       <defs>
        <path id="DejaVuSans-35" d="M 691 4666 
L 3169 4666 
L 3169 4134 
L 1269 4134 
L 1269 2991 
Q 1406 3038 1543 3061 
Q 1681 3084 1819 3084 
Q 2600 3084 3056 2656 
Q 3513 2228 3513 1497 
Q 3513 744 3044 326 
Q 2575 -91 1722 -91 
Q 1428 -91 1123 -41 
Q 819 9 494 109 
L 494 744 
Q 775 591 1075 516 
Q 1375 441 1709 441 
Q 2250 441 2565 725 
Q 2881 1009 2881 1497 
Q 2881 1984 2565 2268 
Q 2250 2553 1709 2553 
Q 1456 2553 1204 2497 
Q 953 2441 691 2322 
L 691 4666 
z
" transform="scale(0.015625)"/>
       </defs>
       <use xlink:href="#DejaVuSans-32"/>
       <use xlink:href="#DejaVuSans-30" x="63.623047"/>
       <use xlink:href="#DejaVuSans-32" x="127.246094"/>
       <use xlink:href="#DejaVuSans-32" x="190.869141"/>
       <use xlink:href="#DejaVuSans-2d" x="254.492188"/>
       <use xlink:href="#DejaVuSans-30" x="290.576172"/>
       <use xlink:href="#DejaVuSans-35" x="354.199219"/>
      </g>
     </g>
    </g>
    <g id="xtick_3">
     <g id="line2d_3">
      <g>
       <use xlink:href="#mf2b16650ee" x="497.044269" y="448.56" style="stroke: #000000; stroke-width: 0.8"/>
      </g>
     </g>
     <g id="text_3">
      <!-- 2022-07 -->
      <g transform="translate(476.152863 463.158437) scale(0.1 -0.1)">
       <defs>
        <path id="DejaVuSans-37" d="M 525 4666 
L 3525 4666 
L 3525 4397 
L 1831 0 
L 1172 0 
L 2766 4134 
L 525 4134 
L 525 4666 
z
" transform="scale(0.015625)"/>
       </defs>
       <use xlink:href="#DejaVuSans-32"/>
       <use xlink:href="#DejaVuSans-30" x="63.623047"/>
       <use xlink:href="#DejaVuSans-32" x="127.246094"/>
       <use xlink:href="#DejaVuSans-32" x="190.869141"/>
       <use xlink:href="#DejaVuSans-2d" x="254.492188"/>
       <use xlink:href="#DejaVuSans-30" x="290.576172"/>
       <use xlink:href="#DejaVuSans-37" x="354.199219"/>
      </g>
     </g>
    </g>
    <g id="xtick_4">
     <g id="line2d_4">
      <g>
       <use xlink:href="#mf2b16650ee" x="624.671146" y="448.56" style="stroke: #000000; stroke-width: 0.8"/>
      </g>
     </g>
     <g id="text_4">
      <!-- 2022-09 -->
      <g transform="translate(603.77974 463.158437) scale(0.1 -0.1)">
       <defs>
        <path id="DejaVuSans-39" d="M 703 97 
L 703 672 
Q 941 559 1184 500 
Q 1428 441 1663 441 
Q 2288 441 2617 861 
Q 2947 1281 2994 2138 
Q 2813 1869 2534 1725 
Q 2256 1581 1919 1581 
Q 1219 1581 811 2004 
Q 403 2428 403 3163 
Q 403 3881 828 4315 
Q 1253 4750 1959 4750 
Q 2769 4750 3195 4129 
Q 3622 3509 3622 2328 
Q 3622 1225 3098 567 
Q 2575 -91 1691 -91 
Q 1453 -91 1209 -44 
Q 966 3 703 97 
z
M 1959 2075 
Q 2384 2075 2632 2365 
Q 2881 2656 2881 3163 
Q 2881 3666 2632 3958 
Q 2384 4250 1959 4250 
Q 1534 4250 1286 3958 
Q 1038 3666 1038 3163 
Q 1038 2656 1286 2365 
Q 1534 2075 1959 2075 
z
" transform="scale(0.015625)"/>
       </defs>
       <use xlink:href="#DejaVuSans-32"/>
       <use xlink:href="#DejaVuSans-30" x="63.623047"/>
       <use xlink:href="#DejaVuSans-32" x="127.246094"/>
       <use xlink:href="#DejaVuSans-32" x="190.869141"/>
       <use xlink:href="#DejaVuSans-2d" x="254.492188"/>
       <use xlink:href="#DejaVuSans-30" x="290.576172"/>
       <use xlink:href="#DejaVuSans-39" x="354.199219"/>
      </g>
     </g>
    </g>
    <g id="xtick_5">
     <g id="line2d_5">
      <g>
       <use xlink:href="#mf2b16650ee" x="750.239526" y="448.56" style="stroke: #000000; stroke-width: 0.8"/>
      </g>
     </g>
     <g id="text_5">
      <!-- 2022-11 -->
      <g transform="translate(729.348119 463.158437) scale(0.1 -0.1)">
       <defs>
        <path id="DejaVuSans-31" d="M 794 531 
L 1825 531 
L 1825 4091 
L 703 3866 
L 703 4441 
L 1819 4666 
L 2450 4666 
L 2450 531 
L 3481 531 
L 3481 0 
L 794 0 
L 794 531 
z
" transform="scale(0.015625)"/>
       </defs>
       <use xlink:href="#DejaVuSans-32"/>
       <use xlink:href="#DejaVuSans-30" x="63.623047"/>
       <use xlink:href="#DejaVuSans-32" x="127.246094"/>
       <use xlink:href="#DejaVuSans-32" x="190.869141"/>
       <use xlink:href="#DejaVuSans-2d" x="254.492188"/>
       <use xlink:href="#DejaVuSans-31" x="290.576172"/>
       <use xlink:href="#DejaVuSans-31" x="354.199219"/>
      </g>
     </g>
    </g>
    <g id="xtick_6">
     <g id="line2d_6">
      <g>
       <use xlink:href="#mf2b16650ee" x="875.807905" y="448.56" style="stroke: #000000; stroke-width: 0.8"/>
      </g>
     </g>
     <g id="text_6">
      <!-- 2023-01 -->
      <g transform="translate(854.916499 463.158437) scale(0.1 -0.1)">
       <use xlink:href="#DejaVuSans-32"/>
       <use xlink:href="#DejaVuSans-30" x="63.623047"/>
       <use xlink:href="#DejaVuSans-32" x="127.246094"/>
       <use xlink:href="#DejaVuSans-33" x="190.869141"/>
       <use xlink:href="#DejaVuSans-2d" x="254.492188"/>
       <use xlink:href="#DejaVuSans-30" x="290.576172"/>
       <use xlink:href="#DejaVuSans-31" x="354.199219"/>
      </g>
     </g>
    </g>
    <g id="text_7">
     <!-- Date -->
     <g transform="translate(504.649219 476.836563) scale(0.1 -0.1)">
      <defs>
       <path id="DejaVuSans-44" d="M 1259 4147 
L 1259 519 
L 2022 519 
Q 2988 519 3436 956 
Q 3884 1394 3884 2338 
Q 3884 3275 3436 3711 
Q 2988 4147 2022 4147 
L 1259 4147 
z
M 628 4666 
L 1925 4666 
Q 3281 4666 3915 4102 
Q 4550 3538 4550 2338 
Q 4550 1131 3912 565 
Q 3275 0 1925 0 
L 628 0 
L 628 4666 
z
" transform="scale(0.015625)"/>
       <path id="DejaVuSans-61" d="M 2194 1759 
Q 1497 1759 1228 1600 
Q 959 1441 959 1056 
Q 959 750 1161 570 
Q 1363 391 1709 391 
Q 2188 391 2477 730 
Q 2766 1069 2766 1631 
L 2766 1759 
L 2194 1759 
z
M 3341 1997 
L 3341 0 
L 2766 0 
L 2766 531 
Q 2569 213 2275 61 
Q 1981 -91 1556 -91 
Q 1019 -91 701 211 
Q 384 513 384 1019 
Q 384 1609 779 1909 
Q 1175 2209 1959 2209 
L 2766 2209 
L 2766 2266 
Q 2766 2663 2505 2880 
Q 2244 3097 1772 3097 
Q 1472 3097 1187 3025 
Q 903 2953 641 2809 
L 641 3341 
Q 956 3463 1253 3523 
Q 1550 3584 1831 3584 
Q 2591 3584 2966 3190 
Q 3341 2797 3341 1997 
z
" transform="scale(0.015625)"/>
       <path id="DejaVuSans-74" d="M 1172 4494 
L 1172 3500 
L 2356 3500 
L 2356 3053 
L 1172 3053 
L 1172 1153 
Q 1172 725 1289 603 
Q 1406 481 1766 481 
L 2356 481 
L 2356 0 
L 1766 0 
Q 1100 0 847 248 
Q 594 497 594 1153 
L 594 3053 
L 172 3053 
L 172 3500 
L 594 3500 
L 594 4494 
L 1172 4494 
z
" transform="scale(0.015625)"/>
       <path id="DejaVuSans-65" d="M 3597 1894 
L 3597 1613 
L 953 1613 
Q 991 1019 1311 708 
Q 1631 397 2203 397 
Q 2534 397 2845 478 
Q 3156 559 3463 722 
L 3463 178 
Q 3153 47 2828 -22 
Q 2503 -91 2169 -91 
Q 1331 -91 842 396 
Q 353 884 353 1716 
Q 353 2575 817 3079 
Q 1281 3584 2069 3584 
Q 2775 3584 3186 3129 
Q 3597 2675 3597 1894 
z
M 3022 2063 
Q 3016 2534 2758 2815 
Q 2500 3097 2075 3097 
Q 1594 3097 1305 2825 
Q 1016 2553 972 2059 
L 3022 2063 
z
" transform="scale(0.015625)"/>
      </defs>
      <use xlink:href="#DejaVuSans-44"/>
      <use xlink:href="#DejaVuSans-61" x="77.001953"/>
      <use xlink:href="#DejaVuSans-74" x="138.28125"/>
      <use xlink:href="#DejaVuSans-65" x="177.490234"/>
     </g>
    </g>
   </g>
   <g id="matplotlib.axis_2">
    <g id="ytick_1">
     <g id="line2d_7">
      <defs>
       <path id="m2e62c78c39" d="M 0 0 
L -3.5 0 
" style="stroke: #000000; stroke-width: 0.8"/>
      </defs>
      <g>
       <use xlink:href="#m2e62c78c39" x="126" y="404.520009" style="stroke: #000000; stroke-width: 0.8"/>
      </g>
     </g>
     <g id="text_8">
      <!-- 130 -->
      <g transform="translate(99.9125 408.319228) scale(0.1 -0.1)">
       <use xlink:href="#DejaVuSans-31"/>
       <use xlink:href="#DejaVuSans-33" x="63.623047"/>
       <use xlink:href="#DejaVuSans-30" x="127.246094"/>
      </g>
     </g>
    </g>
    <g id="ytick_2">
     <g id="line2d_8">
      <g>
       <use xlink:href="#m2e62c78c39" x="126" y="337.85335" style="stroke: #000000; stroke-width: 0.8"/>
      </g>
     </g>
     <g id="text_9">
      <!-- 140 -->
      <g transform="translate(99.9125 341.652568) scale(0.1 -0.1)">
       <defs>
        <path id="DejaVuSans-34" d="M 2419 4116 
L 825 1625 
L 2419 1625 
L 2419 4116 
z
M 2253 4666 
L 3047 4666 
L 3047 1625 
L 3713 1625 
L 3713 1100 
L 3047 1100 
L 3047 0 
L 2419 0 
L 2419 1100 
L 313 1100 
L 313 1709 
L 2253 4666 
z
" transform="scale(0.015625)"/>
       </defs>
       <use xlink:href="#DejaVuSans-31"/>
       <use xlink:href="#DejaVuSans-34" x="63.623047"/>
       <use xlink:href="#DejaVuSans-30" x="127.246094"/>
      </g>
     </g>
    </g>
    <g id="ytick_3">
     <g id="line2d_9">
      <g>
       <use xlink:href="#m2e62c78c39" x="126" y="271.18669" style="stroke: #000000; stroke-width: 0.8"/>
      </g>
     </g>
     <g id="text_10">
      <!-- 150 -->
      <g transform="translate(99.9125 274.985909) scale(0.1 -0.1)">
       <use xlink:href="#DejaVuSans-31"/>
       <use xlink:href="#DejaVuSans-35" x="63.623047"/>
       <use xlink:href="#DejaVuSans-30" x="127.246094"/>
      </g>
     </g>
    </g>
    <g id="ytick_4">
     <g id="line2d_10">
      <g>
       <use xlink:href="#m2e62c78c39" x="126" y="204.520031" style="stroke: #000000; stroke-width: 0.8"/>
      </g>
     </g>
     <g id="text_11">
      <!-- 160 -->
      <g transform="translate(99.9125 208.31925) scale(0.1 -0.1)">
       <defs>
        <path id="DejaVuSans-36" d="M 2113 2584 
Q 1688 2584 1439 2293 
Q 1191 2003 1191 1497 
Q 1191 994 1439 701 
Q 1688 409 2113 409 
Q 2538 409 2786 701 
Q 3034 994 3034 1497 
Q 3034 2003 2786 2293 
Q 2538 2584 2113 2584 
z
M 3366 4563 
L 3366 3988 
Q 3128 4100 2886 4159 
Q 2644 4219 2406 4219 
Q 1781 4219 1451 3797 
Q 1122 3375 1075 2522 
Q 1259 2794 1537 2939 
Q 1816 3084 2150 3084 
Q 2853 3084 3261 2657 
Q 3669 2231 3669 1497 
Q 3669 778 3244 343 
Q 2819 -91 2113 -91 
Q 1303 -91 875 529 
Q 447 1150 447 2328 
Q 447 3434 972 4092 
Q 1497 4750 2381 4750 
Q 2619 4750 2861 4703 
Q 3103 4656 3366 4563 
z
" transform="scale(0.015625)"/>
       </defs>
       <use xlink:href="#DejaVuSans-31"/>
       <use xlink:href="#DejaVuSans-36" x="63.623047"/>
       <use xlink:href="#DejaVuSans-30" x="127.246094"/>
      </g>
     </g>
    </g>
    <g id="ytick_5">
     <g id="line2d_11">
      <g>
       <use xlink:href="#m2e62c78c39" x="126" y="137.853372" style="stroke: #000000; stroke-width: 0.8"/>
      </g>
     </g>
     <g id="text_12">
      <!-- 170 -->
      <g transform="translate(99.9125 141.65259) scale(0.1 -0.1)">
       <use xlink:href="#DejaVuSans-31"/>
       <use xlink:href="#DejaVuSans-37" x="63.623047"/>
       <use xlink:href="#DejaVuSans-30" x="127.246094"/>
      </g>
     </g>
    </g>
    <g id="ytick_6">
     <g id="line2d_12">
      <g>
       <use xlink:href="#m2e62c78c39" x="126" y="71.186712" style="stroke: #000000; stroke-width: 0.8"/>
      </g>
     </g>
     <g id="text_13">
      <!-- 180 -->
      <g transform="translate(99.9125 74.985931) scale(0.1 -0.1)">
       <defs>
        <path id="DejaVuSans-38" d="M 2034 2216 
Q 1584 2216 1326 1975 
Q 1069 1734 1069 1313 
Q 1069 891 1326 650 
Q 1584 409 2034 409 
Q 2484 409 2743 651 
Q 3003 894 3003 1313 
Q 3003 1734 2745 1975 
Q 2488 2216 2034 2216 
z
M 1403 2484 
Q 997 2584 770 2862 
Q 544 3141 544 3541 
Q 544 4100 942 4425 
Q 1341 4750 2034 4750 
Q 2731 4750 3128 4425 
Q 3525 4100 3525 3541 
Q 3525 3141 3298 2862 
Q 3072 2584 2669 2484 
Q 3125 2378 3379 2068 
Q 3634 1759 3634 1313 
Q 3634 634 3220 271 
Q 2806 -91 2034 -91 
Q 1263 -91 848 271 
Q 434 634 434 1313 
Q 434 1759 690 2068 
Q 947 2378 1403 2484 
z
M 1172 3481 
Q 1172 3119 1398 2916 
Q 1625 2713 2034 2713 
Q 2441 2713 2670 2916 
Q 2900 3119 2900 3481 
Q 2900 3844 2670 4047 
Q 2441 4250 2034 4250 
Q 1625 4250 1398 4047 
Q 1172 3844 1172 3481 
z
" transform="scale(0.015625)"/>
       </defs>
       <use xlink:href="#DejaVuSans-31"/>
       <use xlink:href="#DejaVuSans-38" x="63.623047"/>
       <use xlink:href="#DejaVuSans-30" x="127.246094"/>
      </g>
     </g>
    </g>
    <g id="text_14">
     <!-- Price -->
     <g transform="translate(93.832812 266.717656) rotate(-90) scale(0.1 -0.1)">
      <defs>
       <path id="DejaVuSans-50" d="M 1259 4147 
L 1259 2394 
L 2053 2394 
Q 2494 2394 2734 2622 
Q 2975 2850 2975 3272 
Q 2975 3691 2734 3919 
Q 2494 4147 2053 4147 
L 1259 4147 
z
M 628 4666 
L 2053 4666 
Q 2838 4666 3239 4311 
Q 3641 3956 3641 3272 
Q 3641 2581 3239 2228 
Q 2838 1875 2053 1875 
L 1259 1875 
L 1259 0 
L 628 0 
L 628 4666 
z
" transform="scale(0.015625)"/>
       <path id="DejaVuSans-72" d="M 2631 2963 
Q 2534 3019 2420 3045 
Q 2306 3072 2169 3072 
Q 1681 3072 1420 2755 
Q 1159 2438 1159 1844 
L 1159 0 
L 581 0 
L 581 3500 
L 1159 3500 
L 1159 2956 
Q 1341 3275 1631 3429 
Q 1922 3584 2338 3584 
Q 2397 3584 2469 3576 
Q 2541 3569 2628 3553 
L 2631 2963 
z
" transform="scale(0.015625)"/>
       <path id="DejaVuSans-69" d="M 603 3500 
L 1178 3500 
L 1178 0 
L 603 0 
L 603 3500 
z
M 603 4863 
L 1178 4863 
L 1178 4134 
L 603 4134 
L 603 4863 
z
" transform="scale(0.015625)"/>
       <path id="DejaVuSans-63" d="M 3122 3366 
L 3122 2828 
Q 2878 2963 2633 3030 
Q 2388 3097 2138 3097 
Q 1578 3097 1268 2742 
Q 959 2388 959 1747 
Q 959 1106 1268 751 
Q 1578 397 2138 397 
Q 2388 397 2633 464 
Q 2878 531 3122 666 
L 3122 134 
Q 2881 22 2623 -34 
Q 2366 -91 2075 -91 
Q 1284 -91 818 406 
Q 353 903 353 1747 
Q 353 2603 823 3093 
Q 1294 3584 2113 3584 
Q 2378 3584 2631 3529 
Q 2884 3475 3122 3366 
z
" transform="scale(0.015625)"/>
      </defs>
      <use xlink:href="#DejaVuSans-50"/>
      <use xlink:href="#DejaVuSans-72" x="58.552734"/>
      <use xlink:href="#DejaVuSans-69" x="99.666016"/>
      <use xlink:href="#DejaVuSans-63" x="127.449219"/>
      <use xlink:href="#DejaVuSans-65" x="182.429688"/>
     </g>
    </g>
   </g>
   <g id="line2d_13">
    <path d="M 161.509091 162.986731 
L 163.567589 174.453404 
L 165.626087 188.453342 
L 171.801581 193.720065 
L 173.860079 205.986706 
L 175.918577 206.586681 
L 177.977075 209.720022 
L 180.035573 135.65336 
L 186.211067 105.986717 
L 188.269565 107.120038 
L 190.328063 98.920067 
L 192.386561 118.520081 
L 194.445059 121.920044 
L 200.620553 126.786682 
L 202.679051 105.653363 
L 204.737549 95.986718 
L 206.796047 123.720072 
L 208.854545 146.920041 
L 215.03004 145.320005 
L 217.088538 119.253418 
L 219.147036 120.853353 
L 221.205534 145.320005 
L 223.264032 155.853349 
L 231.498024 175.719985 
L 233.556522 204.053315 
L 235.61502 186.25333 
L 237.673518 172.18666 
L 243.849012 170.386734 
L 245.90751 183.18672 
L 247.966008 160.786719 
L 250.024506 162.986731 
L 252.083004 183.386712 
L 258.258498 209.186677 
L 260.316996 221.586679 
L 262.375494 184.853387 
L 264.433992 214.386668 
L 266.49249 239.653389 
L 272.667984 267.05339 
L 276.78498 207.253388 
L 278.843478 200.386731 
L 280.901976 177.986729 
L 287.07747 168.653336 
L 289.135968 145.719989 
L 291.194466 136.453327 
L 293.252964 110.719992 
L 295.311462 106.3867 
L 301.486957 100.520002 
L 303.545455 78.12 
L 305.603953 86.053349 
L 307.662451 107.120038 
L 309.720949 109.120058 
L 315.896443 81.586695 
L 320.013439 125.653361 
L 322.071937 123.586711 
L 324.130435 137.253396 
L 330.305929 166.186702 
L 332.364427 153.453345 
L 334.422925 135.186746 
L 336.481423 169.253413 
L 344.715415 170.719986 
L 346.773913 155.186744 
L 348.832411 156.320065 
L 350.890909 161.720048 
L 352.949407 192.586744 
L 359.124901 185.32 
L 361.183399 225.853342 
L 363.241897 227.386646 
L 365.300395 180.253371 
L 367.358893 220.186737 
L 373.534387 218.119985 
L 375.592885 207.986726 
L 377.651383 164.386673 
L 379.709881 226.053333 
L 381.768379 222.65337 
L 387.943874 257.453375 
L 390.002372 241.120064 
L 392.06087 294.520021 
L 394.119368 320.786701 
L 396.177866 290.453351 
L 402.35336 300.920065 
L 404.411858 276.25332 
L 406.470356 332.386635 
L 408.528854 355.519974 
L 410.587352 353.920039 
L 416.762846 317.120015 
L 418.821344 335.453346 
L 420.879842 334.386655 
L 422.93834 312.653361 
L 424.996838 273.586694 
L 433.23083 278.920047 
L 435.289328 279.786645 
L 437.347826 263.11998 
L 439.406324 301.986654 
L 445.581818 296.920025 
L 447.640316 279.786645 
L 449.698814 284.786644 
L 453.81581 356.986648 
L 459.991304 391.986644 
L 462.049802 386.120048 
L 464.1083 368.320062 
L 466.166798 404.120025 
L 468.225296 394.120026 
L 476.459289 365.386713 
L 478.517787 368.853306 
L 480.576285 349.386653 
L 482.634783 326.78666 
L 488.810277 326.78666 
L 490.868775 354.919998 
L 492.927273 342.986711 
L 494.985771 359.720006 
L 497.044269 344.986731 
L 505.278261 327.453367 
L 507.336759 318.386697 
L 509.395257 295.51998 
L 511.453755 290.920066 
L 517.629249 305.386719 
L 519.687747 298.786683 
L 521.746245 301.253317 
L 523.804743 281.386681 
L 525.863241 270.053369 
L 532.038735 290.719973 
L 534.097233 264.520024 
L 536.155731 250.920071 
L 538.214229 235.519987 
L 540.272727 243.920051 
L 546.448221 251.520046 
L 548.506719 260.519984 
L 550.565217 225.920073 
L 552.623715 222.186655 
L 554.682213 187.786736 
L 560.857708 194.453402 
L 562.916206 204.453401 
L 564.974704 163.653336 
L 567.033202 165.786718 
L 569.0917 168.853327 
L 575.267194 172.0534 
L 577.325692 171.720047 
L 579.38419 142.920001 
L 581.442688 147.92 
L 583.501186 123.853332 
L 589.67668 116.586691 
L 591.735178 117.653382 
L 593.793676 107.520021 
L 595.852174 110.186749 
L 597.910672 127.720011 
L 604.086166 154.053321 
L 606.144664 156.320065 
L 608.203162 154.320045 
L 610.26166 137.65338 
L 612.320158 180.386733 
L 618.495652 195.319999 
L 620.55415 211.786672 
L 622.612648 223.053354 
L 624.671146 218.119985 
L 626.729644 232.453377 
L 634.963636 240.986702 
L 637.022134 231.453317 
L 639.080632 241.453315 
L 641.13913 222.053395 
L 647.314625 181.653416 
L 649.373123 245.586717 
L 651.431621 235.78671 
L 653.490119 255.386725 
L 655.548617 266.520044 
L 661.724111 241.320055 
L 663.782609 225.186736 
L 665.841107 246.386685 
L 667.899605 252.919989 
L 669.958103 268.320073 
L 676.133597 266.053329 
L 678.192095 259.453395 
L 680.250593 272.253381 
L 682.309091 321.320047 
L 684.367589 349.853369 
L 690.543083 321.520038 
L 692.601581 297.186647 
L 694.660079 295.186728 
L 696.718577 301.653402 
L 698.777075 337.253374 
L 704.952569 335.053362 
L 707.011067 344.653377 
L 709.069565 348.92004 
L 711.128063 317.919982 
L 713.186561 348.653316 
L 721.420553 312.853352 
L 723.479051 312.120015 
L 725.537549 315.253356 
L 727.596047 289.38666 
L 733.771542 274.853377 
L 735.83004 255.586716 
L 737.888538 275.519982 
L 739.947036 305.853333 
L 742.005534 232.919991 
L 748.181028 248.92005 
L 750.239526 266.853398 
L 752.298024 304.320028 
L 754.356522 345.319983 
L 756.41502 348.653316 
L 762.590514 345.053361 
L 764.649012 341.186683 
L 766.70751 372.053378 
L 768.766008 292.053387 
L 770.824506 273.18671 
L 777 282.653364 
L 779.058498 270.920068 
L 781.116996 279.253401 
L 783.175494 266.386683 
L 785.233992 262.586736 
L 791.409486 284.453392 
L 793.467984 269.986739 
L 795.526482 264.053309 
L 799.643478 283.786685 
L 805.818972 309.720011 
L 807.87747 330.053363 
L 809.935968 284.32003 
L 811.994466 282.453372 
L 814.052964 285.786705 
L 820.228458 293.653322 
L 822.286957 318.453327 
L 824.345455 331.586667 
L 826.403953 320.186726 
L 828.462451 323.453327 
L 834.637945 307.919983 
L 836.696443 301.386679 
L 838.754941 316.453307 
L 840.813439 361.18668 
L 842.871937 374.453382 
L 849.047431 388.720043 
L 851.105929 389.186657 
L 853.164427 368.1867 
L 855.222925 389.653372 
L 857.281423 392.120006 
L 865.515415 404.320017 
L 867.573913 430.92 
L 869.632411 407.120005 
L 871.690909 404.986724 
L 871.690909 404.986724 
" clip-path="url(#p19aedb8b88)" style="fill: none; stroke: #0000ff; stroke-width: 1.5; stroke-linecap: square"/>
   </g>
   <g id="line2d_14">
    <path d="M 161.509091 112.034181 
L 163.567589 117.963644 
L 165.626087 125.288065 
L 171.801581 133.976317 
L 173.860079 143.460467 
L 180.035573 173.67429 
L 186.211067 178.774082 
L 188.269565 178.713963 
L 190.328063 174.909642 
L 192.386561 168.068009 
L 194.445059 160.402502 
L 200.620553 152.689897 
L 204.737549 138.364744 
L 206.796047 130.869831 
L 208.854545 125.101908 
L 217.088538 121.066264 
L 219.147036 120.268738 
L 221.205534 119.807312 
L 223.264032 120.876852 
L 231.498024 123.491801 
L 233.556522 128.129658 
L 235.61502 135.458352 
L 237.673518 143.380613 
L 243.849012 150.638506 
L 245.90751 156.947099 
L 247.966008 162.875952 
L 250.024506 166.986771 
L 252.083004 169.706904 
L 258.258498 172.313308 
L 260.316996 176.010614 
L 262.375494 180.93137 
L 264.433992 184.559808 
L 266.49249 188.695753 
L 272.667984 194.230624 
L 274.726482 201.898368 
L 276.78498 209.127269 
L 278.843478 214.150767 
L 280.901976 216.953501 
L 287.07747 216.759511 
L 289.135968 213.888011 
L 291.194466 207.977367 
L 293.252964 199.685538 
L 295.311462 188.732679 
L 301.486957 176.235224 
L 303.545455 162.973506 
L 307.662451 134.964069 
L 309.720949 123.452026 
L 315.896443 114.276205 
L 317.954941 105.879396 
L 320.013439 99.782799 
L 322.071937 96.768273 
L 324.130435 96.017235 
L 330.305929 97.707807 
L 332.364427 102.588686 
L 336.481423 114.756959 
L 344.715415 122.026957 
L 346.773913 129.847391 
L 348.832411 136.846698 
L 350.890909 142.971881 
L 352.949407 148.399432 
L 359.124901 154.633969 
L 361.183399 160.682755 
L 363.241897 168.448766 
L 365.300395 177.064793 
L 367.358893 183.399021 
L 373.534387 189.924797 
L 375.592885 196.016004 
L 377.651383 200.942354 
L 379.709881 202.473726 
L 381.768379 204.740571 
L 387.943874 207.089611 
L 392.06087 215.593333 
L 394.119368 222.722645 
L 396.177866 232.794666 
L 402.35336 242.890591 
L 404.411858 253.095872 
L 406.470356 261.501022 
L 408.528854 271.100732 
L 410.587352 282.159183 
L 416.762846 293.613039 
L 418.821344 302.856304 
L 420.879842 310.992187 
L 422.93834 317.761189 
L 424.996838 322.018085 
L 433.23083 322.16579 
L 435.289328 319.573933 
L 437.347826 315.093546 
L 439.406324 308.571533 
L 445.581818 302.966574 
L 451.757312 288.398094 
L 453.81581 286.291974 
L 459.991304 287.990277 
L 462.049802 294.21098 
L 464.1083 303.106853 
L 466.166798 312.611551 
L 468.225296 323.955443 
L 476.459289 335.453041 
L 478.517787 344.973202 
L 480.576285 352.731583 
L 482.634783 357.718663 
L 488.810277 359.215957 
L 490.868775 358.057205 
L 492.927273 356.451574 
L 494.985771 353.946284 
L 497.044269 351.837825 
L 505.278261 349.35817 
L 507.336759 345.856075 
L 509.395257 341.326453 
L 511.453755 335.069231 
L 517.629249 327.638812 
L 521.746245 313.535318 
L 525.863241 300.782126 
L 532.038735 293.920656 
L 536.155731 282.309227 
L 538.214229 275.841129 
L 540.272727 268.515792 
L 546.448221 261.405401 
L 548.506719 255.209011 
L 550.565217 250.488654 
L 554.682213 239.871183 
L 560.857708 232.772083 
L 562.916206 225.215829 
L 564.974704 218.224151 
L 569.0917 201.117728 
L 575.267194 192.739738 
L 577.325692 185.243808 
L 579.38419 178.791681 
L 581.442688 171.947097 
L 583.501186 165.523046 
L 589.67668 158.458329 
L 595.852174 136.317422 
L 597.910672 129.527465 
L 604.086166 124.438456 
L 606.144664 122.234273 
L 608.203162 122.345154 
L 610.26166 124.069295 
L 612.320158 126.02476 
L 618.495652 130.340046 
L 620.55415 136.824624 
L 622.612648 145.410133 
L 626.729644 166.300329 
L 634.963636 177.451349 
L 637.022134 188.792595 
L 639.080632 199.155143 
L 641.13913 208.794526 
L 647.314625 216.339182 
L 649.373123 219.85145 
L 651.431621 223.62505 
L 653.490119 226.718718 
L 655.548617 230.232817 
L 661.724111 234.434273 
L 663.782609 237.593758 
L 665.841107 239.025846 
L 669.958103 241.488309 
L 676.133597 243.515998 
L 678.192095 245.863512 
L 680.250593 247.98784 
L 682.309091 250.516628 
L 684.367589 255.757208 
L 690.543083 264.134282 
L 692.601581 272.878992 
L 694.660079 280.229556 
L 696.718577 286.071332 
L 698.777075 290.789858 
L 704.952569 296.261964 
L 709.069565 307.698527 
L 711.128063 313.706217 
L 713.186561 317.874307 
L 719.362055 322.119302 
L 721.420553 324.719196 
L 723.479051 325.54256 
L 725.537549 324.963642 
L 727.596047 323.528705 
L 733.771542 320.168822 
L 735.83004 314.836181 
L 739.947036 299.647177 
L 742.005534 293.834495 
L 748.181028 285.828209 
L 750.239526 277.619795 
L 752.298024 270.584579 
L 754.356522 266.740585 
L 756.41502 267.574732 
L 762.590514 271.956649 
L 764.649012 278.567569 
L 766.70751 286.283226 
L 768.766008 296.019044 
L 770.824506 302.463135 
L 777 305.265564 
L 779.058498 305.681621 
L 781.116996 303.634298 
L 783.175494 300.328635 
L 785.233992 295.58244 
L 791.409486 289.865684 
L 795.526482 279.996504 
L 799.643478 275.116031 
L 805.818972 271.577519 
L 807.87747 270.553145 
L 809.935968 272.482772 
L 811.994466 274.069584 
L 814.052964 275.312972 
L 820.228458 276.377526 
L 822.286957 277.636885 
L 824.345455 280.255903 
L 826.403953 284.394493 
L 828.462451 288.834699 
L 834.637945 293.470115 
L 836.696443 297.177186 
L 838.754941 299.677593 
L 840.813439 301.939556 
L 842.871937 306.223002 
L 849.047431 312.413391 
L 851.105929 320.456399 
L 853.164427 329.474953 
L 857.281423 345.937964 
L 865.515415 353.933568 
L 867.573913 361.932123 
L 869.632411 370.884657 
L 871.690909 378.809156 
L 871.690909 378.809156 
" clip-path="url(#p19aedb8b88)" style="fill: none; stroke: #ff0000; stroke-width: 1.5; stroke-linecap: square"/>
   </g>
   <g id="line2d_15">
    <path d="M 161.509091 106.196983 
L 163.567589 117.560202 
L 165.626087 130.393249 
L 171.801581 143.873675 
L 175.918577 167.111995 
L 177.977075 176.00034 
L 180.035573 182.849399 
L 186.211067 171.022008 
L 188.269565 149.778623 
L 190.328063 130.992003 
L 192.386561 115.41624 
L 194.445059 108.625063 
L 200.620553 106.618634 
L 202.679051 107.468141 
L 204.737549 104.22982 
L 206.796047 98.379804 
L 208.854545 99.276817 
L 215.03004 107.093691 
L 217.088538 114.782288 
L 219.147036 114.87496 
L 221.205534 113.089479 
L 223.264032 116.644573 
L 231.498024 123.312968 
L 233.556522 133.786498 
L 235.61502 149.320452 
L 237.673518 158.882625 
L 243.849012 161.364009 
L 245.90751 160.828019 
L 247.966008 162.426835 
L 250.024506 159.316687 
L 252.083004 156.001156 
L 258.258498 157.939531 
L 260.316996 166.739579 
L 262.375494 178.330865 
L 264.433992 179.904046 
L 266.49249 184.729587 
L 272.667984 195.140454 
L 274.726482 211.010712 
L 276.78498 218.261891 
L 278.843478 214.535187 
L 280.901976 206.87792 
L 287.07747 194.839754 
L 289.135968 182.176589 
L 293.252964 152.67179 
L 295.311462 135.98478 
L 301.486957 121.462992 
L 303.545455 109.566428 
L 305.603953 96.144697 
L 307.662451 87.069584 
L 309.720949 85.964848 
L 315.896443 87.822961 
L 317.954941 83.975916 
L 320.013439 84.326461 
L 324.130435 96.736128 
L 330.305929 104.436627 
L 332.364427 117.297649 
L 334.422925 125.951721 
L 336.481423 127.340474 
L 344.715415 133.897582 
L 346.773913 140.864235 
L 348.832411 142.903216 
L 350.890909 143.28082 
L 352.949407 144.313332 
L 359.124901 152.193885 
L 361.183399 158.693416 
L 365.300395 185.382663 
L 367.358893 184.758579 
L 373.534387 189.140597 
L 375.592885 193.633191 
L 377.651383 194.864067 
L 379.709881 185.092645 
L 381.768379 188.078077 
L 387.943874 193.454053 
L 390.002372 206.055675 
L 392.06087 214.313528 
L 394.119368 231.345183 
L 396.177866 253.138088 
L 402.35336 264.663864 
L 404.411858 272.798323 
L 406.470356 272.575545 
L 408.528854 282.5258 
L 410.587352 298.588522 
L 416.762846 312.520813 
L 420.879842 316.133483 
L 422.93834 317.353576 
L 424.996838 313.218241 
L 433.23083 299.56539 
L 435.289328 287.341474 
L 437.347826 278.556481 
L 439.406324 269.037643 
L 445.581818 270.162826 
L 447.640316 273.108992 
L 449.698814 272.037927 
L 451.757312 271.103072 
L 453.81581 278.425662 
L 459.991304 294.892132 
L 462.049802 318.334512 
L 464.1083 337.34391 
L 466.166798 346.665198 
L 468.225296 358.998977 
L 476.459289 367.299351 
L 478.517787 365.963902 
L 480.576285 362.731887 
L 482.634783 355.280106 
L 488.810277 343.106543 
L 490.868775 332.253069 
L 492.927273 330.625059 
L 494.985771 329.4836 
L 497.044269 332.472491 
L 505.278261 332.726194 
L 507.336759 328.104002 
L 509.395257 321.000019 
L 511.453755 309.617167 
L 517.629249 298.492392 
L 519.687747 293.246319 
L 521.746245 289.480145 
L 523.804743 287.53699 
L 525.863241 282.103742 
L 532.038735 274.283512 
L 534.097233 272.181461 
L 536.155731 266.407943 
L 538.214229 257.748988 
L 540.272727 246.741706 
L 546.448221 239.429288 
L 548.506719 236.594002 
L 550.565217 237.740242 
L 552.623715 232.038033 
L 554.682213 224.714527 
L 560.857708 210.897797 
L 562.916206 199.800386 
L 564.974704 194.290947 
L 567.033202 182.549412 
L 569.0917 172.075475 
L 575.267194 165.058162 
L 577.325692 161.352209 
L 579.38419 159.362463 
L 581.442688 151.889421 
L 583.501186 145.607073 
L 589.67668 135.769225 
L 591.735178 125.510844 
L 595.852174 110.139446 
L 597.910672 104.923789 
L 604.086166 105.451337 
L 606.144664 113.356406 
L 608.203162 122.108643 
L 610.26166 128.659138 
L 612.320158 129.380574 
L 618.495652 137.766702 
L 620.55415 149.882789 
L 624.671146 178.09588 
L 626.729644 187.88012 
L 634.963636 197.399874 
L 637.022134 206.640799 
L 641.13913 216.390045 
L 647.314625 215.73229 
L 649.373123 204.54536 
L 651.431621 207.103649 
L 653.490119 211.019867 
L 655.548617 218.778554 
L 661.724111 228.421192 
L 663.782609 230.792611 
L 665.841107 226.814645 
L 667.899605 226.629403 
L 669.958103 229.123401 
L 676.133597 235.295581 
L 678.192095 240.658536 
L 680.250593 243.06678 
L 682.309091 246.918504 
L 684.367589 261.380071 
L 690.543083 282.239749 
L 692.601581 293.971315 
L 694.660079 294.74046 
L 696.718577 291.580772 
L 698.777075 289.4598 
L 704.952569 296.173056 
L 707.011067 303.564718 
L 709.069565 311.613322 
L 711.128063 319.004373 
L 713.186561 317.532409 
L 719.362055 320.609089 
L 721.420553 318.370116 
L 725.537549 307.679301 
L 727.596047 304.337321 
L 733.771542 296.510784 
L 735.83004 285.803897 
L 737.888538 272.335372 
L 739.947036 265.587122 
L 742.005534 269.216883 
L 748.181028 258.742539 
L 750.239526 249.920315 
L 752.298024 247.685615 
L 754.356522 256.350571 
L 756.41502 275.552331 
L 762.590514 294.383404 
L 764.649012 308.026998 
L 766.70751 316.145792 
L 768.766008 327.742165 
L 770.824506 319.784606 
L 777 303.352519 
L 779.058498 290.309308 
L 781.116996 278.645491 
L 785.233992 265.215622 
L 791.409486 259.192063 
L 793.467984 259.632024 
L 795.526482 258.671128 
L 799.643478 256.142238 
L 805.818972 258.154465 
L 807.87747 266.928777 
L 809.935968 280.344302 
L 811.994466 281.84536 
L 814.052964 278.927677 
L 820.228458 276.142338 
L 822.286957 275.8276 
L 824.345455 281.911685 
L 826.403953 291.513633 
L 828.462451 297.430889 
L 834.637945 301.602133 
L 836.696443 300.817424 
L 838.754941 297.236797 
L 840.813439 297.033957 
L 842.871937 307.999227 
L 849.047431 322.902078 
L 851.105929 338.845781 
L 853.164427 351.624507 
L 855.222925 355.80043 
L 857.281423 361.237441 
L 865.515415 366.4473 
L 867.573913 373.170729 
L 869.632411 384.869234 
L 871.690909 390.099234 
L 871.690909 390.099234 
" clip-path="url(#p19aedb8b88)" style="fill: none; stroke: #008000; stroke-width: 1.5; stroke-linecap: square"/>
   </g>
   <g id="line2d_16">
    <path d="M 161.509091 98.808678 
L 163.567589 105.127342 
L 165.626087 112.394899 
L 171.801581 123.027018 
L 180.035573 164.139379 
L 186.211067 163.15885 
L 188.269565 159.708126 
L 190.328063 149.641497 
L 192.386561 142.800779 
L 194.445059 134.525532 
L 200.620553 130.263346 
L 202.679051 126.256591 
L 204.737549 123.471659 
L 206.796047 117.771688 
L 208.854545 114.250876 
L 215.03004 111.403179 
L 217.088538 113.812745 
L 219.147036 114.693075 
L 223.264032 114.389629 
L 231.498024 116.136048 
L 233.556522 120.644715 
L 235.61502 128.012166 
L 237.673518 136.144794 
L 243.849012 142.686135 
L 245.90751 148.215207 
L 247.966008 151.620867 
L 250.024506 153.680193 
L 252.083004 155.024899 
L 258.258498 156.66298 
L 260.316996 159.489925 
L 262.375494 166.046117 
L 264.433992 170.966975 
L 266.49249 174.28749 
L 272.667984 180.501072 
L 274.726482 188.344089 
L 276.78498 199.214042 
L 278.843478 201.37784 
L 280.901976 204.199698 
L 287.07747 198.843253 
L 289.135968 196.676506 
L 291.194466 186.717298 
L 293.252964 180.457635 
L 295.311462 166.52504 
L 301.486957 157.352474 
L 303.545455 143.206256 
L 305.603953 132.812784 
L 307.662451 119.540284 
L 309.720949 111.245302 
L 315.896443 103.851402 
L 317.954941 99.186485 
L 320.013439 93.20616 
L 322.071937 90.617354 
L 324.130435 90.713179 
L 330.305929 93.647342 
L 332.364427 98.106163 
L 334.422925 103.723126 
L 336.481423 108.790468 
L 344.715415 113.760967 
L 346.773913 117.981446 
L 348.832411 124.74882 
L 350.890909 129.908426 
L 352.949407 133.928608 
L 359.124901 138.093952 
L 361.183399 144.022499 
L 363.241897 150.473508 
L 365.300395 162.294083 
L 367.358893 167.854894 
L 373.534387 173.451817 
L 375.592885 177.024713 
L 377.651383 184.165317 
L 379.709881 183.090081 
L 381.768379 183.624037 
L 387.943874 185.567396 
L 394.119368 206.163402 
L 396.177866 224.070098 
L 402.35336 234.751351 
L 404.411858 246.651577 
L 406.470356 250.279303 
L 408.528854 258.14592 
L 410.587352 271.310999 
L 416.762846 284.60303 
L 418.821344 294.844931 
L 420.879842 297.79771 
L 422.93834 305.442159 
L 424.996838 307.735453 
L 433.23083 304.751547 
L 435.289328 299.375672 
L 437.347826 292.923443 
L 439.406324 288.213259 
L 445.581818 281.381595 
L 447.640316 282.208824 
L 449.698814 279.064599 
L 451.757312 277.601179 
L 453.81581 276.713321 
L 459.991304 283.047142 
L 462.049802 291.392682 
L 464.1083 306.499288 
L 468.225296 325.248371 
L 476.459289 335.210019 
L 478.517787 342.902381 
L 480.576285 343.920447 
L 482.634783 345.63818 
L 488.810277 342.756201 
L 490.868775 337.505348 
L 492.927273 336.383115 
L 494.985771 333.825742 
L 497.044269 334.868934 
L 505.278261 333.578549 
L 507.336759 332.593035 
L 509.395257 325.770119 
L 511.453755 319.410664 
L 517.629249 310.827596 
L 519.687747 304.624695 
L 521.746245 299.14323 
L 523.804743 295.172385 
L 525.863241 288.72982 
L 532.038735 282.669436 
L 534.097233 276.857771 
L 536.155731 270.128239 
L 538.214229 264.575159 
L 540.272727 255.307989 
L 546.448221 249.307929 
L 548.506719 241.614753 
L 550.565217 239.551358 
L 552.623715 232.822233 
L 554.682213 228.641732 
L 560.857708 217.635162 
L 562.916206 210.891897 
L 564.974704 200.966259 
L 567.033202 193.737867 
L 569.0917 183.443983 
L 575.267194 176.161473 
L 577.325692 170.364151 
L 579.38419 166.319352 
L 581.442688 159.396643 
L 583.501186 153.918128 
L 589.67668 144.881671 
L 591.735178 138.526488 
L 593.793676 129.974446 
L 595.852174 124.045491 
L 597.910672 117.208334 
L 604.086166 113.409201 
L 606.144664 110.723044 
L 608.203162 113.145631 
L 610.26166 116.21692 
L 612.320158 119.661845 
L 618.495652 120.498637 
L 620.55415 127.343221 
L 622.612648 134.683816 
L 624.671146 147.18178 
L 626.729644 156.708045 
L 634.963636 168.157628 
L 637.022134 177.523981 
L 639.080632 187.75866 
L 641.13913 195.448173 
L 647.314625 201.424735 
L 649.373123 201.917696 
L 651.431621 201.639579 
L 653.490119 204.583202 
L 655.548617 210.202302 
L 661.724111 218.073293 
L 663.782609 222.380543 
L 665.841107 224.864572 
L 667.899605 225.519276 
L 669.958103 227.438526 
L 676.133597 230.2672 
L 678.192095 235.446846 
L 680.250593 238.320178 
L 682.309091 242.155627 
L 684.367589 247.473619 
L 690.543083 259.9431 
L 692.601581 271.417912 
L 694.660079 277.886112 
L 696.718577 279.566409 
L 698.777075 281.981163 
L 704.952569 285.476545 
L 709.069565 298.636028 
L 711.128063 306.582398 
L 713.186561 308.611918 
L 719.362055 310.664428 
L 721.420553 311.698364 
L 723.479051 312.432617 
L 725.537549 308.937235 
L 727.596047 309.293884 
L 733.771542 303.199423 
L 735.83004 298.845989 
L 737.888538 288.263613 
L 739.947036 282.552961 
L 742.005534 277.715213 
L 748.181028 270.131698 
L 750.239526 259.838832 
L 752.298024 253.542649 
L 754.356522 251.792059 
L 756.41502 257.957729 
L 762.590514 266.479863 
L 764.649012 278.069624 
L 766.70751 285.748049 
L 768.766008 294.343426 
L 770.824506 293.987388 
L 777 291.567954 
L 779.058498 284.698652 
L 781.116996 280.856184 
L 783.175494 275.773075 
L 785.233992 271.844141 
L 791.409486 267.080652 
L 795.526482 261.230128 
L 799.643478 259.318304 
L 805.818972 257.365077 
L 807.87747 259.883286 
L 811.994466 268.796452 
L 814.052964 266.800908 
L 820.228458 267.015955 
L 822.286957 267.611963 
L 824.345455 270.140344 
L 828.462451 282.01575 
L 838.754941 290.076459 
L 840.813439 290.139528 
L 842.871937 295.643882 
L 849.047431 303.245301 
L 853.164427 325.508279 
L 855.222925 334.049944 
L 857.281423 339.007829 
L 865.515415 347.664546 
L 867.573913 353.899592 
L 869.632411 364.308323 
L 871.690909 371.173658 
L 871.690909 371.173658 
" clip-path="url(#p19aedb8b88)" style="fill: none; stroke: #ffa500; stroke-width: 1.5; stroke-linecap: square"/>
   </g>
   <g id="patch_3">
    <path d="M 126 448.56 
L 126 60.48 
" style="fill: none; stroke: #000000; stroke-width: 0.8; stroke-linejoin: miter; stroke-linecap: square"/>
   </g>
   <g id="patch_4">
    <path d="M 907.2 448.56 
L 907.2 60.48 
" style="fill: none; stroke: #000000; stroke-width: 0.8; stroke-linejoin: miter; stroke-linecap: square"/>
   </g>
   <g id="patch_5">
    <path d="M 126 448.56 
L 907.2 448.56 
" style="fill: none; stroke: #000000; stroke-width: 0.8; stroke-linejoin: miter; stroke-linecap: square"/>
   </g>
   <g id="patch_6">
    <path d="M 126 60.48 
L 907.2 60.48 
" style="fill: none; stroke: #000000; stroke-width: 0.8; stroke-linejoin: miter; stroke-linecap: square"/>
   </g>
   <g id="text_15">
    <!-- Comparison of Stock Price Prediction with LSTM, GRU, and CNN-LSTM -->
    <g transform="translate(308.324063 54.48) scale(0.12 -0.12)">
     <defs>
      <path id="DejaVuSans-43" d="M 4122 4306 
L 4122 3641 
Q 3803 3938 3442 4084 
Q 3081 4231 2675 4231 
Q 1875 4231 1450 3742 
Q 1025 3253 1025 2328 
Q 1025 1406 1450 917 
Q 1875 428 2675 428 
Q 3081 428 3442 575 
Q 3803 722 4122 1019 
L 4122 359 
Q 3791 134 3420 21 
Q 3050 -91 2638 -91 
Q 1578 -91 968 557 
Q 359 1206 359 2328 
Q 359 3453 968 4101 
Q 1578 4750 2638 4750 
Q 3056 4750 3426 4639 
Q 3797 4528 4122 4306 
z
" transform="scale(0.015625)"/>
      <path id="DejaVuSans-6f" d="M 1959 3097 
Q 1497 3097 1228 2736 
Q 959 2375 959 1747 
Q 959 1119 1226 758 
Q 1494 397 1959 397 
Q 2419 397 2687 759 
Q 2956 1122 2956 1747 
Q 2956 2369 2687 2733 
Q 2419 3097 1959 3097 
z
M 1959 3584 
Q 2709 3584 3137 3096 
Q 3566 2609 3566 1747 
Q 3566 888 3137 398 
Q 2709 -91 1959 -91 
Q 1206 -91 779 398 
Q 353 888 353 1747 
Q 353 2609 779 3096 
Q 1206 3584 1959 3584 
z
" transform="scale(0.015625)"/>
      <path id="DejaVuSans-6d" d="M 3328 2828 
Q 3544 3216 3844 3400 
Q 4144 3584 4550 3584 
Q 5097 3584 5394 3201 
Q 5691 2819 5691 2113 
L 5691 0 
L 5113 0 
L 5113 2094 
Q 5113 2597 4934 2840 
Q 4756 3084 4391 3084 
Q 3944 3084 3684 2787 
Q 3425 2491 3425 1978 
L 3425 0 
L 2847 0 
L 2847 2094 
Q 2847 2600 2669 2842 
Q 2491 3084 2119 3084 
Q 1678 3084 1418 2786 
Q 1159 2488 1159 1978 
L 1159 0 
L 581 0 
L 581 3500 
L 1159 3500 
L 1159 2956 
Q 1356 3278 1631 3431 
Q 1906 3584 2284 3584 
Q 2666 3584 2933 3390 
Q 3200 3197 3328 2828 
z
" transform="scale(0.015625)"/>
      <path id="DejaVuSans-70" d="M 1159 525 
L 1159 -1331 
L 581 -1331 
L 581 3500 
L 1159 3500 
L 1159 2969 
Q 1341 3281 1617 3432 
Q 1894 3584 2278 3584 
Q 2916 3584 3314 3078 
Q 3713 2572 3713 1747 
Q 3713 922 3314 415 
Q 2916 -91 2278 -91 
Q 1894 -91 1617 61 
Q 1341 213 1159 525 
z
M 3116 1747 
Q 3116 2381 2855 2742 
Q 2594 3103 2138 3103 
Q 1681 3103 1420 2742 
Q 1159 2381 1159 1747 
Q 1159 1113 1420 752 
Q 1681 391 2138 391 
Q 2594 391 2855 752 
Q 3116 1113 3116 1747 
z
" transform="scale(0.015625)"/>
      <path id="DejaVuSans-73" d="M 2834 3397 
L 2834 2853 
Q 2591 2978 2328 3040 
Q 2066 3103 1784 3103 
Q 1356 3103 1142 2972 
Q 928 2841 928 2578 
Q 928 2378 1081 2264 
Q 1234 2150 1697 2047 
L 1894 2003 
Q 2506 1872 2764 1633 
Q 3022 1394 3022 966 
Q 3022 478 2636 193 
Q 2250 -91 1575 -91 
Q 1294 -91 989 -36 
Q 684 19 347 128 
L 347 722 
Q 666 556 975 473 
Q 1284 391 1588 391 
Q 1994 391 2212 530 
Q 2431 669 2431 922 
Q 2431 1156 2273 1281 
Q 2116 1406 1581 1522 
L 1381 1569 
Q 847 1681 609 1914 
Q 372 2147 372 2553 
Q 372 3047 722 3315 
Q 1072 3584 1716 3584 
Q 2034 3584 2315 3537 
Q 2597 3491 2834 3397 
z
" transform="scale(0.015625)"/>
      <path id="DejaVuSans-6e" d="M 3513 2113 
L 3513 0 
L 2938 0 
L 2938 2094 
Q 2938 2591 2744 2837 
Q 2550 3084 2163 3084 
Q 1697 3084 1428 2787 
Q 1159 2491 1159 1978 
L 1159 0 
L 581 0 
L 581 3500 
L 1159 3500 
L 1159 2956 
Q 1366 3272 1645 3428 
Q 1925 3584 2291 3584 
Q 2894 3584 3203 3211 
Q 3513 2838 3513 2113 
z
" transform="scale(0.015625)"/>
      <path id="DejaVuSans-20" transform="scale(0.015625)"/>
      <path id="DejaVuSans-66" d="M 2375 4863 
L 2375 4384 
L 1825 4384 
Q 1516 4384 1395 4259 
Q 1275 4134 1275 3809 
L 1275 3500 
L 2222 3500 
L 2222 3053 
L 1275 3053 
L 1275 0 
L 697 0 
L 697 3053 
L 147 3053 
L 147 3500 
L 697 3500 
L 697 3744 
Q 697 4328 969 4595 
Q 1241 4863 1831 4863 
L 2375 4863 
z
" transform="scale(0.015625)"/>
      <path id="DejaVuSans-53" d="M 3425 4513 
L 3425 3897 
Q 3066 4069 2747 4153 
Q 2428 4238 2131 4238 
Q 1616 4238 1336 4038 
Q 1056 3838 1056 3469 
Q 1056 3159 1242 3001 
Q 1428 2844 1947 2747 
L 2328 2669 
Q 3034 2534 3370 2195 
Q 3706 1856 3706 1288 
Q 3706 609 3251 259 
Q 2797 -91 1919 -91 
Q 1588 -91 1214 -16 
Q 841 59 441 206 
L 441 856 
Q 825 641 1194 531 
Q 1563 422 1919 422 
Q 2459 422 2753 634 
Q 3047 847 3047 1241 
Q 3047 1584 2836 1778 
Q 2625 1972 2144 2069 
L 1759 2144 
Q 1053 2284 737 2584 
Q 422 2884 422 3419 
Q 422 4038 858 4394 
Q 1294 4750 2059 4750 
Q 2388 4750 2728 4690 
Q 3069 4631 3425 4513 
z
" transform="scale(0.015625)"/>
      <path id="DejaVuSans-6b" d="M 581 4863 
L 1159 4863 
L 1159 1991 
L 2875 3500 
L 3609 3500 
L 1753 1863 
L 3688 0 
L 2938 0 
L 1159 1709 
L 1159 0 
L 581 0 
L 581 4863 
z
" transform="scale(0.015625)"/>
      <path id="DejaVuSans-64" d="M 2906 2969 
L 2906 4863 
L 3481 4863 
L 3481 0 
L 2906 0 
L 2906 525 
Q 2725 213 2448 61 
Q 2172 -91 1784 -91 
Q 1150 -91 751 415 
Q 353 922 353 1747 
Q 353 2572 751 3078 
Q 1150 3584 1784 3584 
Q 2172 3584 2448 3432 
Q 2725 3281 2906 2969 
z
M 947 1747 
Q 947 1113 1208 752 
Q 1469 391 1925 391 
Q 2381 391 2643 752 
Q 2906 1113 2906 1747 
Q 2906 2381 2643 2742 
Q 2381 3103 1925 3103 
Q 1469 3103 1208 2742 
Q 947 2381 947 1747 
z
" transform="scale(0.015625)"/>
      <path id="DejaVuSans-77" d="M 269 3500 
L 844 3500 
L 1563 769 
L 2278 3500 
L 2956 3500 
L 3675 769 
L 4391 3500 
L 4966 3500 
L 4050 0 
L 3372 0 
L 2619 2869 
L 1863 0 
L 1184 0 
L 269 3500 
z
" transform="scale(0.015625)"/>
      <path id="DejaVuSans-68" d="M 3513 2113 
L 3513 0 
L 2938 0 
L 2938 2094 
Q 2938 2591 2744 2837 
Q 2550 3084 2163 3084 
Q 1697 3084 1428 2787 
Q 1159 2491 1159 1978 
L 1159 0 
L 581 0 
L 581 4863 
L 1159 4863 
L 1159 2956 
Q 1366 3272 1645 3428 
Q 1925 3584 2291 3584 
Q 2894 3584 3203 3211 
Q 3513 2838 3513 2113 
z
" transform="scale(0.015625)"/>
      <path id="DejaVuSans-4c" d="M 628 4666 
L 1259 4666 
L 1259 531 
L 3531 531 
L 3531 0 
L 628 0 
L 628 4666 
z
" transform="scale(0.015625)"/>
      <path id="DejaVuSans-54" d="M -19 4666 
L 3928 4666 
L 3928 4134 
L 2272 4134 
L 2272 0 
L 1638 0 
L 1638 4134 
L -19 4134 
L -19 4666 
z
" transform="scale(0.015625)"/>
      <path id="DejaVuSans-4d" d="M 628 4666 
L 1569 4666 
L 2759 1491 
L 3956 4666 
L 4897 4666 
L 4897 0 
L 4281 0 
L 4281 4097 
L 3078 897 
L 2444 897 
L 1241 4097 
L 1241 0 
L 628 0 
L 628 4666 
z
" transform="scale(0.015625)"/>
      <path id="DejaVuSans-2c" d="M 750 794 
L 1409 794 
L 1409 256 
L 897 -744 
L 494 -744 
L 750 256 
L 750 794 
z
" transform="scale(0.015625)"/>
      <path id="DejaVuSans-47" d="M 3809 666 
L 3809 1919 
L 2778 1919 
L 2778 2438 
L 4434 2438 
L 4434 434 
Q 4069 175 3628 42 
Q 3188 -91 2688 -91 
Q 1594 -91 976 548 
Q 359 1188 359 2328 
Q 359 3472 976 4111 
Q 1594 4750 2688 4750 
Q 3144 4750 3555 4637 
Q 3966 4525 4313 4306 
L 4313 3634 
Q 3963 3931 3569 4081 
Q 3175 4231 2741 4231 
Q 1884 4231 1454 3753 
Q 1025 3275 1025 2328 
Q 1025 1384 1454 906 
Q 1884 428 2741 428 
Q 3075 428 3337 486 
Q 3600 544 3809 666 
z
" transform="scale(0.015625)"/>
      <path id="DejaVuSans-52" d="M 2841 2188 
Q 3044 2119 3236 1894 
Q 3428 1669 3622 1275 
L 4263 0 
L 3584 0 
L 2988 1197 
Q 2756 1666 2539 1819 
Q 2322 1972 1947 1972 
L 1259 1972 
L 1259 0 
L 628 0 
L 628 4666 
L 2053 4666 
Q 2853 4666 3247 4331 
Q 3641 3997 3641 3322 
Q 3641 2881 3436 2590 
Q 3231 2300 2841 2188 
z
M 1259 4147 
L 1259 2491 
L 2053 2491 
Q 2509 2491 2742 2702 
Q 2975 2913 2975 3322 
Q 2975 3731 2742 3939 
Q 2509 4147 2053 4147 
L 1259 4147 
z
" transform="scale(0.015625)"/>
      <path id="DejaVuSans-55" d="M 556 4666 
L 1191 4666 
L 1191 1831 
Q 1191 1081 1462 751 
Q 1734 422 2344 422 
Q 2950 422 3222 751 
Q 3494 1081 3494 1831 
L 3494 4666 
L 4128 4666 
L 4128 1753 
Q 4128 841 3676 375 
Q 3225 -91 2344 -91 
Q 1459 -91 1007 375 
Q 556 841 556 1753 
L 556 4666 
z
" transform="scale(0.015625)"/>
      <path id="DejaVuSans-4e" d="M 628 4666 
L 1478 4666 
L 3547 763 
L 3547 4666 
L 4159 4666 
L 4159 0 
L 3309 0 
L 1241 3903 
L 1241 0 
L 628 0 
L 628 4666 
z
" transform="scale(0.015625)"/>
     </defs>
     <use xlink:href="#DejaVuSans-43"/>
     <use xlink:href="#DejaVuSans-6f" x="69.824219"/>
     <use xlink:href="#DejaVuSans-6d" x="131.005859"/>
     <use xlink:href="#DejaVuSans-70" x="228.417969"/>
     <use xlink:href="#DejaVuSans-61" x="291.894531"/>
     <use xlink:href="#DejaVuSans-72" x="353.173828"/>
     <use xlink:href="#DejaVuSans-69" x="394.287109"/>
     <use xlink:href="#DejaVuSans-73" x="422.070312"/>
     <use xlink:href="#DejaVuSans-6f" x="474.169922"/>
     <use xlink:href="#DejaVuSans-6e" x="535.351562"/>
     <use xlink:href="#DejaVuSans-20" x="598.730469"/>
     <use xlink:href="#DejaVuSans-6f" x="630.517578"/>
     <use xlink:href="#DejaVuSans-66" x="691.699219"/>
     <use xlink:href="#DejaVuSans-20" x="726.904297"/>
     <use xlink:href="#DejaVuSans-53" x="758.691406"/>
     <use xlink:href="#DejaVuSans-74" x="822.167969"/>
     <use xlink:href="#DejaVuSans-6f" x="861.376953"/>
     <use xlink:href="#DejaVuSans-63" x="922.558594"/>
     <use xlink:href="#DejaVuSans-6b" x="977.539062"/>
     <use xlink:href="#DejaVuSans-20" x="1035.449219"/>
     <use xlink:href="#DejaVuSans-50" x="1067.236328"/>
     <use xlink:href="#DejaVuSans-72" x="1125.789062"/>
     <use xlink:href="#DejaVuSans-69" x="1166.902344"/>
     <use xlink:href="#DejaVuSans-63" x="1194.685547"/>
     <use xlink:href="#DejaVuSans-65" x="1249.666016"/>
     <use xlink:href="#DejaVuSans-20" x="1311.189453"/>
     <use xlink:href="#DejaVuSans-50" x="1342.976562"/>
     <use xlink:href="#DejaVuSans-72" x="1401.529297"/>
     <use xlink:href="#DejaVuSans-65" x="1440.392578"/>
     <use xlink:href="#DejaVuSans-64" x="1501.916016"/>
     <use xlink:href="#DejaVuSans-69" x="1565.392578"/>
     <use xlink:href="#DejaVuSans-63" x="1593.175781"/>
     <use xlink:href="#DejaVuSans-74" x="1648.15625"/>
     <use xlink:href="#DejaVuSans-69" x="1687.365234"/>
     <use xlink:href="#DejaVuSans-6f" x="1715.148438"/>
     <use xlink:href="#DejaVuSans-6e" x="1776.330078"/>
     <use xlink:href="#DejaVuSans-20" x="1839.708984"/>
     <use xlink:href="#DejaVuSans-77" x="1871.496094"/>
     <use xlink:href="#DejaVuSans-69" x="1953.283203"/>
     <use xlink:href="#DejaVuSans-74" x="1981.066406"/>
     <use xlink:href="#DejaVuSans-68" x="2020.275391"/>
     <use xlink:href="#DejaVuSans-20" x="2083.654297"/>
     <use xlink:href="#DejaVuSans-4c" x="2115.441406"/>
     <use xlink:href="#DejaVuSans-53" x="2171.154297"/>
     <use xlink:href="#DejaVuSans-54" x="2234.630859"/>
     <use xlink:href="#DejaVuSans-4d" x="2295.714844"/>
     <use xlink:href="#DejaVuSans-2c" x="2381.994141"/>
     <use xlink:href="#DejaVuSans-20" x="2413.78125"/>
     <use xlink:href="#DejaVuSans-47" x="2445.568359"/>
     <use xlink:href="#DejaVuSans-52" x="2523.058594"/>
     <use xlink:href="#DejaVuSans-55" x="2592.541016"/>
     <use xlink:href="#DejaVuSans-2c" x="2665.734375"/>
     <use xlink:href="#DejaVuSans-20" x="2697.521484"/>
     <use xlink:href="#DejaVuSans-61" x="2729.308594"/>
     <use xlink:href="#DejaVuSans-6e" x="2790.587891"/>
     <use xlink:href="#DejaVuSans-64" x="2853.966797"/>
     <use xlink:href="#DejaVuSans-20" x="2917.443359"/>
     <use xlink:href="#DejaVuSans-43" x="2949.230469"/>
     <use xlink:href="#DejaVuSans-4e" x="3019.054688"/>
     <use xlink:href="#DejaVuSans-4e" x="3093.859375"/>
     <use xlink:href="#DejaVuSans-2d" x="3168.664062"/>
     <use xlink:href="#DejaVuSans-4c" x="3204.748047"/>
     <use xlink:href="#DejaVuSans-53" x="3260.460938"/>
     <use xlink:href="#DejaVuSans-54" x="3323.9375"/>
     <use xlink:href="#DejaVuSans-4d" x="3385.021484"/>
    </g>
   </g>
   <g id="legend_1">
    <g id="patch_7">
     <path d="M 763.139063 127.1925 
L 900.2 127.1925 
Q 902.2 127.1925 902.2 125.1925 
L 902.2 67.48 
Q 902.2 65.48 900.2 65.48 
L 763.139063 65.48 
Q 761.139063 65.48 761.139063 67.48 
L 761.139063 125.1925 
Q 761.139063 127.1925 763.139063 127.1925 
z
" style="fill: #ffffff; opacity: 0.8; stroke: #cccccc; stroke-linejoin: miter"/>
    </g>
    <g id="line2d_17">
     <path d="M 765.139063 73.578438 
L 775.139063 73.578438 
L 785.139063 73.578438 
" style="fill: none; stroke: #0000ff; stroke-width: 1.5; stroke-linecap: square"/>
    </g>
    <g id="text_16">
     <!-- Actual Price -->
     <g transform="translate(793.139063 77.078438) scale(0.1 -0.1)">
      <defs>
       <path id="DejaVuSans-41" d="M 2188 4044 
L 1331 1722 
L 3047 1722 
L 2188 4044 
z
M 1831 4666 
L 2547 4666 
L 4325 0 
L 3669 0 
L 3244 1197 
L 1141 1197 
L 716 0 
L 50 0 
L 1831 4666 
z
" transform="scale(0.015625)"/>
       <path id="DejaVuSans-75" d="M 544 1381 
L 544 3500 
L 1119 3500 
L 1119 1403 
Q 1119 906 1312 657 
Q 1506 409 1894 409 
Q 2359 409 2629 706 
Q 2900 1003 2900 1516 
L 2900 3500 
L 3475 3500 
L 3475 0 
L 2900 0 
L 2900 538 
Q 2691 219 2414 64 
Q 2138 -91 1772 -91 
Q 1169 -91 856 284 
Q 544 659 544 1381 
z
M 1991 3584 
L 1991 3584 
z
" transform="scale(0.015625)"/>
       <path id="DejaVuSans-6c" d="M 603 4863 
L 1178 4863 
L 1178 0 
L 603 0 
L 603 4863 
z
" transform="scale(0.015625)"/>
      </defs>
      <use xlink:href="#DejaVuSans-41"/>
      <use xlink:href="#DejaVuSans-63" x="66.658203"/>
      <use xlink:href="#DejaVuSans-74" x="121.638672"/>
      <use xlink:href="#DejaVuSans-75" x="160.847656"/>
      <use xlink:href="#DejaVuSans-61" x="224.226562"/>
      <use xlink:href="#DejaVuSans-6c" x="285.505859"/>
      <use xlink:href="#DejaVuSans-20" x="313.289062"/>
      <use xlink:href="#DejaVuSans-50" x="345.076172"/>
      <use xlink:href="#DejaVuSans-72" x="403.628906"/>
      <use xlink:href="#DejaVuSans-69" x="444.742188"/>
      <use xlink:href="#DejaVuSans-63" x="472.525391"/>
      <use xlink:href="#DejaVuSans-65" x="527.505859"/>
     </g>
    </g>
    <g id="line2d_18">
     <path d="M 765.139063 88.256563 
L 775.139063 88.256563 
L 785.139063 88.256563 
" style="fill: none; stroke: #ff0000; stroke-width: 1.5; stroke-linecap: square"/>
    </g>
    <g id="text_17">
     <!-- LSTM Prediction -->
     <g transform="translate(793.139063 91.756563) scale(0.1 -0.1)">
      <use xlink:href="#DejaVuSans-4c"/>
      <use xlink:href="#DejaVuSans-53" x="55.712891"/>
      <use xlink:href="#DejaVuSans-54" x="119.189453"/>
      <use xlink:href="#DejaVuSans-4d" x="180.273438"/>
      <use xlink:href="#DejaVuSans-20" x="266.552734"/>
      <use xlink:href="#DejaVuSans-50" x="298.339844"/>
      <use xlink:href="#DejaVuSans-72" x="356.892578"/>
      <use xlink:href="#DejaVuSans-65" x="395.755859"/>
      <use xlink:href="#DejaVuSans-64" x="457.279297"/>
      <use xlink:href="#DejaVuSans-69" x="520.755859"/>
      <use xlink:href="#DejaVuSans-63" x="548.539062"/>
      <use xlink:href="#DejaVuSans-74" x="603.519531"/>
      <use xlink:href="#DejaVuSans-69" x="642.728516"/>
      <use xlink:href="#DejaVuSans-6f" x="670.511719"/>
      <use xlink:href="#DejaVuSans-6e" x="731.693359"/>
     </g>
    </g>
    <g id="line2d_19">
     <path d="M 765.139063 102.934688 
L 775.139063 102.934688 
L 785.139063 102.934688 
" style="fill: none; stroke: #008000; stroke-width: 1.5; stroke-linecap: square"/>
    </g>
    <g id="text_18">
     <!-- GRU Prediction -->
     <g transform="translate(793.139063 106.434688) scale(0.1 -0.1)">
      <use xlink:href="#DejaVuSans-47"/>
      <use xlink:href="#DejaVuSans-52" x="77.490234"/>
      <use xlink:href="#DejaVuSans-55" x="146.972656"/>
      <use xlink:href="#DejaVuSans-20" x="220.166016"/>
      <use xlink:href="#DejaVuSans-50" x="251.953125"/>
      <use xlink:href="#DejaVuSans-72" x="310.505859"/>
      <use xlink:href="#DejaVuSans-65" x="349.369141"/>
      <use xlink:href="#DejaVuSans-64" x="410.892578"/>
      <use xlink:href="#DejaVuSans-69" x="474.369141"/>
      <use xlink:href="#DejaVuSans-63" x="502.152344"/>
      <use xlink:href="#DejaVuSans-74" x="557.132812"/>
      <use xlink:href="#DejaVuSans-69" x="596.341797"/>
      <use xlink:href="#DejaVuSans-6f" x="624.125"/>
      <use xlink:href="#DejaVuSans-6e" x="685.306641"/>
     </g>
    </g>
    <g id="line2d_20">
     <path d="M 765.139063 117.612813 
L 775.139063 117.612813 
L 785.139063 117.612813 
" style="fill: none; stroke: #ffa500; stroke-width: 1.5; stroke-linecap: square"/>
    </g>
    <g id="text_19">
     <!-- CNN-LSTM Prediction -->
     <g transform="translate(793.139063 121.112813) scale(0.1 -0.1)">
      <use xlink:href="#DejaVuSans-43"/>
      <use xlink:href="#DejaVuSans-4e" x="69.824219"/>
      <use xlink:href="#DejaVuSans-4e" x="144.628906"/>
      <use xlink:href="#DejaVuSans-2d" x="219.433594"/>
      <use xlink:href="#DejaVuSans-4c" x="255.517578"/>
      <use xlink:href="#DejaVuSans-53" x="311.230469"/>
      <use xlink:href="#DejaVuSans-54" x="374.707031"/>
      <use xlink:href="#DejaVuSans-4d" x="435.791016"/>
      <use xlink:href="#DejaVuSans-20" x="522.070312"/>
      <use xlink:href="#DejaVuSans-50" x="553.857422"/>
      <use xlink:href="#DejaVuSans-72" x="612.410156"/>
      <use xlink:href="#DejaVuSans-65" x="651.273438"/>
      <use xlink:href="#DejaVuSans-64" x="712.796875"/>
      <use xlink:href="#DejaVuSans-69" x="776.273438"/>
      <use xlink:href="#DejaVuSans-63" x="804.056641"/>
      <use xlink:href="#DejaVuSans-74" x="859.037109"/>
      <use xlink:href="#DejaVuSans-69" x="898.246094"/>
      <use xlink:href="#DejaVuSans-6f" x="926.029297"/>
      <use xlink:href="#DejaVuSans-6e" x="987.210938"/>
     </g>
    </g>
   </g>
  </g>
 </g>
 <defs>
  <clipPath id="p19aedb8b88">
   <rect x="126" y="60.48" width="781.2" height="388.08"/>
  </clipPath>
 </defs>
</svg>
