<?xml version="1.0" encoding="utf-8" ?>
<svg baseProfile="full" height="216" version="1.1" width="417" xmlns="http://www.w3.org/2000/svg" xmlns:ev="http://www.w3.org/2001/xml-events" xmlns:xlink="http://www.w3.org/1999/xlink"><defs /><path d="M 285,193 289,193 Z" fill="none" stroke="black" stroke-width="1" /><path d="M 382,186 383,186 Z" fill="none" stroke="black" stroke-width="1" /><path d="M 396,184 396,186 398,186 397,186 396,185 397,184 Z" fill="none" stroke="black" stroke-width="1" /><path d="M 381,184 380,185 380,187 380,185 381,184 384,184 385,185 385,189 386,190 386,193 384,195 381,195 380,194 381,193 383,193 384,192 384,191 383,190 383,188 382,188 383,189 382,190 383,190 384,191 384,192 383,193 380,193 380,195 384,195 386,193 386,189 385,188 385,185 384,184 Z" fill="none" stroke="black" stroke-width="1" /><path d="M 287,184 286,185 285,185 285,187 286,187 287,186 288,186 289,187 288,188 288,190 289,191 289,190 288,189 289,188 289,186 287,186 286,185 287,184 290,184 291,185 291,190 292,191 292,192 291,193 291,194 290,195 286,195 290,195 291,194 291,193 292,192 292,191 291,190 291,185 290,184 Z" fill="none" stroke="black" stroke-width="1" /><path d="M 352,182 363,182 364,183 363,184 352,184 364,184 364,182 Z" fill="none" stroke="black" stroke-width="1" /><path d="M 258,182 269,182 270,183 269,184 258,184 270,184 270,182 Z" fill="none" stroke="black" stroke-width="1" /><path d="M 167,182 179,182 Z" fill="none" stroke="black" stroke-width="1" /><path d="M 88,182 99,182 100,183 99,184 88,184 100,184 100,182 Z" fill="none" stroke="black" stroke-width="1" /><path d="M 374,180 374,182 392,182 392,180 Z" fill="none" stroke="black" stroke-width="1" /><path d="M 307,180 306,181 306,182 318,182 318,180 Z" fill="none" stroke="black" stroke-width="1" /><path d="M 280,180 280,182 297,182 297,180 Z" fill="none" stroke="black" stroke-width="1" /><path d="M 167,180 178,180 Z" fill="none" stroke="black" stroke-width="1" /><path d="M 352,178 363,178 364,179 363,180 352,180 364,180 364,178 Z" fill="none" stroke="black" stroke-width="1" /><path d="M 258,178 269,178 270,179 269,180 258,180 270,180 270,178 Z" fill="none" stroke="black" stroke-width="1" /><path d="M 88,178 99,178 100,179 99,180 88,180 100,180 100,178 Z" fill="none" stroke="black" stroke-width="1" /><path d="M 244,177 246,177 Z" fill="none" stroke="black" stroke-width="1" /><path d="M 242,177 242,179 247,179 248,178 247,179 243,179 242,178 Z" fill="none" stroke="black" stroke-width="1" /><path d="M 46,177 46,186 45,187 46,186 47,187 48,186 49,187 48,186 48,180 49,179 48,179 48,186 47,187 46,186 46,178 47,177 50,177 51,178 51,177 Z" fill="none" stroke="black" stroke-width="1" /><path d="M 38,176 36,178 36,180 37,180 38,181 37,182 36,182 36,186 37,186 38,187 40,187 41,186 43,186 41,186 40,187 38,187 36,185 36,183 37,182 38,183 38,184 39,185 40,184 41,184 41,181 40,180 41,179 40,178 39,178 37,180 36,179 36,178 38,176 41,176 43,178 43,184 43,178 41,176 Z" fill="none" stroke="black" stroke-width="1" /><path d="M 34,176 34,180 33,181 32,180 32,178 32,180 33,181 33,183 31,185 30,185 29,184 29,183 28,182 28,181 27,180 27,178 28,177 29,178 29,179 30,180 30,181 30,180 29,179 29,177 27,177 26,178 27,179 27,180 28,181 28,182 29,183 29,185 30,185 31,186 31,185 33,183 33,181 34,180 Z" fill="none" stroke="black" stroke-width="1" /><path d="M 330,174 334,174 Z" fill="none" stroke="black" stroke-width="1" /><path d="M 235,173 236,173 239,176 239,179 238,180 237,179 237,177 235,175 237,177 237,179 238,180 238,183 237,184 237,186 235,188 237,186 237,184 238,183 238,180 239,179 240,180 240,184 239,185 239,187 236,190 235,190 237,190 238,189 238,188 239,187 239,185 240,184 240,180 239,179 239,176 238,175 238,174 237,173 Z" fill="none" stroke="black" stroke-width="1" /><path d="M 189,173 187,175 187,177 186,178 186,184 187,185 187,187 188,188 188,189 189,190 188,189 188,188 189,187 191,189 191,190 191,188 189,186 189,185 188,184 188,179 189,178 189,177 191,175 191,173 191,174 189,176 188,175 188,174 Z" fill="none" stroke="black" stroke-width="1" /><path d="M 122,173 122,190 123,190 122,189 Z" fill="none" stroke="black" stroke-width="1" /><path d="M 55,173 54,174 54,175 53,176 53,179 52,180 52,183 53,184 53,187 55,189 55,190 56,190 54,188 54,187 55,186 58,189 58,190 58,189 55,186 55,183 54,182 54,181 55,180 55,177 58,174 59,174 58,174 55,177 55,180 54,181 54,182 55,183 55,186 54,187 53,186 53,184 52,183 52,180 53,179 53,176 56,173 Z" fill="none" stroke="black" stroke-width="1" /><path d="M 329,172 328,173 327,173 327,178 329,178 332,181 332,183 330,185 326,185 326,186 327,187 331,187 334,184 334,180 333,179 333,178 332,177 331,177 330,176 329,176 330,176 331,177 332,177 333,178 333,179 334,180 334,183 333,184 332,183 332,181 331,180 331,179 330,179 329,178 328,178 327,177 327,174 329,172 333,172 Z" fill="none" stroke="black" stroke-width="1" /><path d="M 207,172 207,190 209,190 210,191 212,191 212,189 210,189 209,188 209,175 210,174 215,174 216,175 216,177 217,178 217,182 216,183 216,184 215,185 214,185 215,185 216,186 215,187 214,187 215,187 216,186 217,187 218,186 219,186 219,182 220,181 220,180 224,176 224,175 225,174 229,174 230,175 230,188 229,189 227,189 227,191 229,191 230,190 232,190 232,173 231,172 224,172 221,175 221,176 220,177 218,175 218,173 216,173 215,172 Z" fill="none" stroke="black" stroke-width="1" /><path d="M 195,172 193,174 193,185 195,187 204,187 204,185 199,185 198,184 198,181 199,180 204,180 204,178 199,178 198,177 198,175 199,174 204,174 204,172 Z" fill="none" stroke="black" stroke-width="1" /><path d="M 154,172 154,174 156,174 157,175 157,188 156,189 154,189 154,191 156,191 157,190 158,190 159,189 159,174 158,173 157,173 156,172 Z" fill="none" stroke="black" stroke-width="1" /><path d="M 139,172 138,173 138,174 135,177 134,176 134,174 133,173 132,173 131,174 130,174 131,175 131,176 132,177 132,183 131,184 131,186 130,187 131,187 132,186 134,186 135,187 134,186 134,184 135,183 135,181 138,178 138,177 141,174 140,174 139,175 138,174 138,173 139,172 141,172 Z" fill="none" stroke="black" stroke-width="1" /><path d="M 124,172 124,188 125,189 126,189 127,190 126,191 125,191 127,191 127,189 125,189 124,188 124,175 125,174 128,174 127,173 128,172 130,172 Z" fill="none" stroke="black" stroke-width="1" /><path d="M 109,172 109,174 108,175 108,184 109,185 109,187 120,187 120,185 114,185 113,184 113,181 114,180 119,180 119,178 114,178 113,177 113,175 114,174 120,174 120,172 Z" fill="none" stroke="black" stroke-width="1" /><path d="M 70,172 69,173 69,174 66,177 65,176 65,174 64,173 63,173 62,174 61,174 62,175 62,176 63,177 63,183 62,184 62,186 61,187 62,187 63,186 65,186 66,187 65,186 65,184 66,183 66,181 69,178 69,177 72,174 73,174 77,178 77,185 74,188 74,190 74,189 76,187 77,188 77,189 76,190 78,188 78,187 79,186 79,178 78,177 78,175 75,172 Z" fill="none" stroke="black" stroke-width="1" /><path d="M 58,172 61,172 Z" fill="none" stroke="black" stroke-width="1" /><path d="M 243,170 243,171 244,170 245,171 245,172 244,173 244,174 243,175 245,173 245,171 244,170 Z" fill="none" stroke="black" stroke-width="1" /><path d="M 247,169 247,174 246,175 247,174 Z" fill="none" stroke="black" stroke-width="1" /><path d="M 378,168 378,176 379,177 380,177 380,168 Z" fill="none" stroke="black" stroke-width="1" /><path d="M 291,168 291,176 292,177 293,177 293,168 Z" fill="none" stroke="black" stroke-width="1" /><path d="M 242,168 241,169 241,171 241,169 242,168 245,168 Z" fill="none" stroke="black" stroke-width="1" /><path d="M 146,168 144,170 144,171 144,170 146,168 149,168 151,170 151,172 150,173 149,172 149,171 148,170 147,170 146,171 147,170 148,170 149,171 149,172 146,175 146,176 145,177 145,179 151,179 146,179 145,178 146,177 151,177 147,177 146,176 147,175 147,174 149,172 150,173 150,174 149,175 150,175 150,174 151,173 151,170 149,168 Z" fill="none" stroke="black" stroke-width="1" /><path d="M 337,167 335,169 335,170 335,169 337,167 340,167 342,169 342,171 341,172 340,171 340,170 339,169 338,169 337,170 338,169 339,169 340,170 340,171 337,174 337,175 336,176 336,178 342,178 337,178 336,177 337,176 342,176 338,176 337,175 338,174 338,173 340,171 341,172 341,173 340,174 341,174 341,173 342,172 342,169 340,167 Z" fill="none" stroke="black" stroke-width="1" /><path d="M 284,167 283,168 282,168 282,169 281,170 281,172 282,173 282,174 283,174 284,175 283,176 284,176 286,174 287,175 287,176 285,178 284,178 285,178 288,175 288,169 286,167 Z" fill="none" stroke="black" stroke-width="1" /><path d="M 388,166 387,167 386,167 384,169 384,170 383,171 383,176 384,177 385,177 386,178 388,178 390,176 390,172 388,170 388,169 387,169 386,168 388,166 389,166 Z" fill="none" stroke="black" stroke-width="1" /><path d="M 67,140 67,141 Z" fill="none" stroke="black" stroke-width="1" /><path d="M 67,133 67,134 Z" fill="none" stroke="black" stroke-width="1" /><path d="M 47,132 46,133 46,138 47,139 47,141 48,142 50,142 51,141 54,141 54,132 53,132 52,133 52,138 50,140 48,138 48,132 Z" fill="none" stroke="black" stroke-width="1" /><path d="M 58,131 57,132 56,132 56,136 57,137 59,137 61,139 60,140 59,140 58,139 56,139 56,141 57,141 58,142 61,142 62,141 63,141 63,136 61,136 60,135 61,134 60,133 61,132 62,132 63,133 63,134 63,133 62,132 61,132 60,131 Z" fill="none" stroke="black" stroke-width="1" /><path d="M 27,128 26,129 26,130 28,130 29,131 29,140 30,141 31,141 31,132 33,130 35,130 35,129 36,128 37,129 37,141 38,141 39,140 39,135 41,133 42,134 42,135 43,136 43,141 44,141 45,140 44,141 43,140 43,136 42,135 42,134 41,133 40,134 39,134 39,140 38,141 37,140 37,130 38,129 39,130 39,132 40,131 42,131 44,133 44,134 44,132 43,132 42,131 40,131 38,129 37,129 36,128 35,129 34,128 Z" fill="none" stroke="black" stroke-width="1" /><path d="M 227,95 224,98 224,99 223,100 223,103 226,103 227,104 229,104 230,103 230,101 229,100 229,95 Z" fill="none" stroke="black" stroke-width="1" /><path d="M 313,94 312,95 312,96 314,96 314,94 Z" fill="none" stroke="black" stroke-width="1" /><path d="M 297,94 296,95 296,97 297,97 298,96 299,96 300,97 299,98 299,100 300,101 300,102 299,103 296,103 296,105 301,105 302,104 302,95 301,94 Z" fill="none" stroke="black" stroke-width="1" /><path d="M 255,94 255,96 259,96 256,96 255,95 Z" fill="none" stroke="black" stroke-width="1" /><path d="M 199,94 201,94 202,95 202,102 201,103 200,103 199,102 200,101 200,97 199,96 200,97 200,101 199,102 200,103 201,103 202,102 202,95 201,94 Z" fill="none" stroke="black" stroke-width="1" /><path d="M 268,92 268,94 280,94 269,94 268,93 269,92 280,92 Z" fill="none" stroke="black" stroke-width="1" /><path d="M 167,92 167,94 179,94 168,94 167,93 168,92 179,92 Z" fill="none" stroke="black" stroke-width="1" /><path d="M 85,92 85,94 98,94 86,94 85,93 86,92 97,92 Z" fill="none" stroke="black" stroke-width="1" /><path d="M 291,90 291,92 308,92 308,90 Z" fill="none" stroke="black" stroke-width="1" /><path d="M 218,90 217,91 218,92 235,92 235,90 Z" fill="none" stroke="black" stroke-width="1" /><path d="M 251,89 252,89 254,91 254,92 253,93 252,93 252,94 251,95 250,95 250,96 251,97 252,96 253,96 252,96 251,95 254,92 254,91 253,90 253,89 Z" fill="none" stroke="black" stroke-width="1" /><path d="M 293,88 Z" fill="none" stroke="black" stroke-width="1" /><path d="M 268,88 268,90 280,90 269,90 268,89 269,88 280,88 Z" fill="none" stroke="black" stroke-width="1" /><path d="M 167,88 167,90 179,90 168,90 167,89 168,88 179,88 Z" fill="none" stroke="black" stroke-width="1" /><path d="M 85,88 85,90 98,90 86,90 85,89 86,88 97,88 Z" fill="none" stroke="black" stroke-width="1" /><path d="M 251,87 254,87 255,88 255,89 257,87 259,87 260,88 259,89 258,89 256,91 256,92 257,93 257,94 259,94 258,94 256,92 256,91 257,90 258,90 259,89 260,89 260,87 257,87 256,88 255,88 254,87 Z" fill="none" stroke="black" stroke-width="1" /><path d="M 65,87 67,87 Z" fill="none" stroke="black" stroke-width="1" /><path d="M 63,87 63,89 68,89 69,88 68,89 64,89 63,88 Z" fill="none" stroke="black" stroke-width="1" /><path d="M 247,83 246,84 246,86 245,87 242,87 239,90 239,93 238,94 239,95 239,96 240,96 241,97 241,92 244,89 245,90 245,92 243,94 244,94 244,93 245,92 247,94 247,95 246,96 243,96 247,96 247,94 246,93 247,92 247,89 248,88 248,85 249,84 249,83 Z" fill="none" stroke="black" stroke-width="1" /><path d="M 203,83 207,83 Z" fill="none" stroke="black" stroke-width="1" /><path d="M 153,82 153,84 155,84 156,85 156,98 155,99 153,99 153,101 155,101 156,100 158,100 158,83 157,83 156,82 Z" fill="none" stroke="black" stroke-width="1" /><path d="M 130,82 131,83 130,84 132,86 132,88 133,89 127,95 126,95 128,95 129,94 130,95 130,96 129,97 126,97 129,97 130,96 130,95 131,94 132,94 132,93 133,92 134,93 134,95 135,96 137,96 138,97 137,96 138,95 137,94 137,92 136,91 136,89 141,84 140,84 139,85 138,84 138,83 139,82 142,82 139,82 138,83 138,84 137,85 136,85 135,86 134,85 134,83 131,83 Z" fill="none" stroke="black" stroke-width="1" /><path d="M 120,82 120,100 122,100 123,101 125,101 125,99 123,99 122,98 122,85 123,84 125,84 125,82 Z" fill="none" stroke="black" stroke-width="1" /><path d="M 108,82 106,84 106,95 108,97 117,97 117,95 112,95 111,94 111,91 112,90 117,90 117,88 112,88 111,87 111,85 112,84 117,84 117,82 Z" fill="none" stroke="black" stroke-width="1" /><path d="M 71,82 71,84 73,84 74,85 74,98 73,99 71,99 71,101 73,101 74,100 76,100 76,83 75,82 Z" fill="none" stroke="black" stroke-width="1" /><path d="M 57,82 54,85 54,86 54,85 57,82 59,82 Z" fill="none" stroke="black" stroke-width="1" /><path d="M 47,82 48,83 47,84 49,86 49,88 50,89 50,91 49,92 49,94 48,95 47,95 48,95 49,96 48,97 47,97 48,97 49,96 50,97 51,96 52,96 52,92 53,91 53,90 57,86 57,85 58,84 59,84 58,84 56,86 56,87 54,89 53,89 53,91 52,92 52,95 50,97 49,96 49,92 50,91 50,89 49,88 49,86 48,85 48,83 49,82 51,84 51,86 52,87 51,86 51,83 50,83 49,82 Z" fill="none" stroke="black" stroke-width="1" /><path d="M 41,82 40,83 40,100 41,100 42,101 44,101 44,99 43,99 42,98 42,85 43,84 45,84 44,83 45,82 Z" fill="none" stroke="black" stroke-width="1" /><path d="M 27,82 26,83 26,96 27,97 37,97 37,95 31,95 30,94 30,91 31,90 36,90 36,88 31,88 30,87 30,85 31,84 37,84 37,82 Z" fill="none" stroke="black" stroke-width="1" /><path d="M 196,80 196,81 197,80 Z" fill="none" stroke="black" stroke-width="1" /><path d="M 64,80 64,81 65,80 66,81 66,82 65,83 65,84 64,85 66,83 66,81 65,80 Z" fill="none" stroke="black" stroke-width="1" /><path d="M 199,79 200,80 197,83 197,85 196,86 195,85 195,83 195,85 194,86 194,89 193,90 193,93 192,94 192,97 191,98 191,99 189,101 188,101 188,103 191,103 193,101 193,98 194,97 194,94 195,93 195,90 196,89 196,86 197,85 197,83 199,81 200,81 200,80 Z" fill="none" stroke="black" stroke-width="1" /><path d="M 147,79 147,80 144,83 144,86 145,87 147,87 148,88 149,88 150,87 150,85 149,84 149,79 Z" fill="none" stroke="black" stroke-width="1" /><path d="M 68,79 68,84 67,85 68,84 Z" fill="none" stroke="black" stroke-width="1" /><path d="M 63,78 62,79 62,81 62,79 63,78 66,78 Z" fill="none" stroke="black" stroke-width="1" /><path d="M 302,77 302,86 303,87 304,86 304,77 Z" fill="none" stroke="black" stroke-width="1" /><path d="M 294,76 292,78 292,82 294,84 294,85 293,86 294,85 295,85 294,84 294,83 295,82 296,83 297,82 298,83 298,84 297,85 297,86 296,87 295,87 296,87 298,85 298,83 299,82 299,79 298,78 298,77 298,78 297,79 296,78 297,79 297,81 296,82 294,80 294,79 294,81 295,82 294,83 293,83 292,82 292,78 294,76 296,76 Z" fill="none" stroke="black" stroke-width="1" /><path d="M 205,74 204,75 203,75 203,77 204,77 205,76 206,76 207,77 206,78 206,80 207,81 207,80 206,79 207,78 207,76 205,76 204,75 205,74 208,74 209,75 209,80 210,81 210,82 209,83 209,84 208,85 204,85 208,85 209,84 209,83 210,82 210,81 209,80 209,75 208,74 Z" fill="none" stroke="black" stroke-width="1" /><path d="M 229,73 229,74 228,75 228,76 231,79 230,80 225,80 224,81 223,81 222,80 222,81 221,82 222,82 223,83 223,84 221,86 220,86 220,88 221,88 220,87 223,84 223,83 222,82 223,81 225,81 226,82 225,83 225,85 226,86 225,87 223,87 226,87 226,85 225,84 227,82 231,82 233,80 233,77 232,76 232,73 Z" fill="none" stroke="black" stroke-width="1" /><path d="M 289,45 289,46 290,47 289,48 289,50 290,50 292,48 292,45 291,45 292,46 292,48 291,49 290,48 290,47 289,46 Z" fill="none" stroke="black" stroke-width="1" /><path d="M 239,45 239,46 240,47 241,46 242,46 241,46 240,47 239,46 Z" fill="none" stroke="black" stroke-width="1" /><path d="M 216,45 213,48 213,49 212,50 212,53 215,53 216,54 218,54 219,53 219,51 218,50 218,45 Z" fill="none" stroke="black" stroke-width="1" /><path d="M 188,44 190,44 191,45 191,52 190,53 189,53 188,52 189,51 189,47 188,46 189,47 189,51 188,52 189,53 190,53 191,52 191,45 190,44 Z" fill="none" stroke="black" stroke-width="1" /><path d="M 257,42 257,44 269,44 258,44 257,43 258,42 269,42 Z" fill="none" stroke="black" stroke-width="1" /><path d="M 156,42 156,44 168,44 157,44 156,43 157,42 168,42 Z" fill="none" stroke="black" stroke-width="1" /><path d="M 74,42 74,44 87,44 75,44 74,43 75,42 86,42 Z" fill="none" stroke="black" stroke-width="1" /><path d="M 207,40 206,41 207,42 223,42 223,40 Z" fill="none" stroke="black" stroke-width="1" /><path d="M 240,39 241,39 242,40 242,42 241,43 241,44 242,43 244,45 244,46 247,46 245,46 242,43 242,40 241,39 Z" fill="none" stroke="black" stroke-width="1" /><path d="M 257,38 257,40 269,40 258,40 257,39 258,38 269,38 Z" fill="none" stroke="black" stroke-width="1" /><path d="M 156,38 156,40 168,40 157,40 156,39 157,38 168,38 Z" fill="none" stroke="black" stroke-width="1" /><path d="M 74,38 74,40 87,40 75,40 74,39 75,38 86,38 Z" fill="none" stroke="black" stroke-width="1" /><path d="M 240,37 242,37 244,39 246,37 247,37 248,38 245,41 245,43 246,44 245,43 245,41 247,39 248,39 248,37 246,37 245,38 244,38 243,37 Z" fill="none" stroke="black" stroke-width="1" /><path d="M 236,33 235,34 235,36 234,37 231,37 228,40 228,43 227,44 228,45 228,46 229,46 230,47 230,42 233,39 234,40 234,42 232,44 233,44 233,43 234,42 236,44 236,45 235,46 232,46 236,46 236,44 235,43 236,42 236,39 237,38 237,35 238,34 238,33 Z" fill="none" stroke="black" stroke-width="1" /><path d="M 282,32 281,33 280,33 279,34 279,38 281,38 284,41 284,43 282,45 280,45 279,46 278,46 279,46 280,47 283,47 284,46 285,46 285,45 286,44 286,39 285,38 285,37 283,37 281,35 282,34 286,34 282,34 281,33 282,32 286,32 Z" fill="none" stroke="black" stroke-width="1" /><path d="M 210,32 211,33 211,34 209,36 209,38 211,38 210,38 209,37 211,35 211,32 Z" fill="none" stroke="black" stroke-width="1" /><path d="M 142,32 142,34 144,34 145,35 145,48 144,49 142,49 142,51 144,51 145,50 147,50 147,33 146,33 145,32 Z" fill="none" stroke="black" stroke-width="1" /><path d="M 119,32 120,33 119,34 121,36 121,38 122,39 116,45 115,45 117,45 118,44 119,45 119,46 118,47 115,47 118,47 119,46 119,45 120,44 121,44 121,43 122,42 123,43 123,45 124,46 126,46 127,47 126,46 127,45 126,44 126,42 125,41 125,39 130,34 131,34 129,34 128,35 127,34 127,33 128,32 131,32 128,32 127,33 127,34 126,35 125,35 124,36 123,35 123,33 120,33 Z" fill="none" stroke="black" stroke-width="1" /><path d="M 109,32 109,50 111,50 112,51 114,51 114,49 112,49 111,48 111,35 112,34 114,34 114,32 Z" fill="none" stroke="black" stroke-width="1" /><path d="M 97,32 95,34 95,45 97,47 106,47 106,45 101,45 100,44 100,41 101,40 106,40 106,38 101,38 100,37 100,35 101,34 106,34 106,32 Z" fill="none" stroke="black" stroke-width="1" /><path d="M 47,32 48,33 47,34 49,36 49,38 50,39 50,41 49,42 49,44 48,45 47,45 48,45 49,46 48,47 47,47 48,47 49,46 50,47 51,46 52,46 52,42 53,41 53,40 57,36 57,35 58,34 62,34 63,35 63,48 62,49 60,49 60,51 62,51 63,50 65,50 65,33 64,32 57,32 54,35 54,36 54,35 57,32 62,32 63,33 62,34 58,34 56,36 56,37 54,39 53,39 53,41 52,42 52,45 50,47 49,46 49,42 50,41 50,39 49,38 49,36 48,35 48,33 49,32 51,34 51,36 52,37 51,36 51,33 50,33 49,32 Z" fill="none" stroke="black" stroke-width="1" /><path d="M 41,32 40,33 40,50 41,50 42,51 44,51 44,49 43,49 42,48 42,35 43,34 45,34 44,33 45,32 Z" fill="none" stroke="black" stroke-width="1" /><path d="M 27,32 26,33 26,46 27,47 37,47 37,45 31,45 30,44 30,41 31,40 36,40 36,38 31,38 30,37 30,35 31,34 37,34 37,32 Z" fill="none" stroke="black" stroke-width="1" /><path d="M 210,30 211,30 Z" fill="none" stroke="black" stroke-width="1" /><path d="M 185,30 185,31 186,30 Z" fill="none" stroke="black" stroke-width="1" /><path d="M 188,29 189,30 186,33 186,35 185,36 184,35 184,33 184,35 183,36 183,39 182,40 182,43 181,44 181,47 180,48 180,49 178,51 177,51 177,53 180,53 182,51 182,48 183,47 183,44 184,43 184,40 185,39 185,36 186,35 186,33 188,31 189,31 189,30 Z" fill="none" stroke="black" stroke-width="1" /><path d="M 134,28 133,29 134,28 137,28 139,30 139,33 138,34 137,33 137,31 136,30 135,30 134,31 133,31 135,31 136,30 137,31 137,32 136,33 136,34 133,37 134,38 134,39 138,39 135,39 134,38 135,37 138,37 135,37 134,36 137,33 138,34 138,35 139,34 139,29 138,28 Z" fill="none" stroke="black" stroke-width="1" /><path d="M 219,25 219,28 220,29 219,30 214,30 213,31 214,30 219,30 220,29 219,28 Z" fill="none" stroke="black" stroke-width="1" /><path d="M 193,24 192,25 192,27 193,27 194,26 195,26 196,27 195,28 195,30 196,31 196,32 195,33 192,33 192,35 197,35 198,34 198,25 197,24 Z" fill="none" stroke="black" stroke-width="1" /><path d="M 218,23 217,24 218,23 220,23 221,24 221,27 222,28 222,30 220,32 215,32 214,33 214,35 215,36 214,37 213,37 215,37 215,36 214,35 214,33 215,32 221,32 221,31 222,30 222,28 221,27 221,24 220,23 Z" fill="none" stroke="black" stroke-width="1" /></svg>