<?xml version="1.0" encoding="utf-8" ?>
<svg baseProfile="full" height="124" version="1.1" width="323" xmlns="http://www.w3.org/2000/svg" xmlns:ev="http://www.w3.org/2001/xml-events" xmlns:xlink="http://www.w3.org/1999/xlink"><defs /><path d="M 82,112 84,112 Z" fill="none" stroke="black" stroke-width="1" /><path d="M 30,112 29,113 29,114 33,114 34,113 34,112 Z" fill="none" stroke="black" stroke-width="1" /><path d="M 264,111 264,113 272,113 273,114 273,115 272,116 265,116 264,115 264,116 273,116 273,111 Z" fill="none" stroke="black" stroke-width="1" /><path d="M 292,109 292,111 296,111 293,111 292,110 Z" fill="none" stroke="black" stroke-width="1" /><path d="M 192,109 Z" fill="none" stroke="black" stroke-width="1" /><path d="M 188,109 188,111 191,111 189,111 188,110 Z" fill="none" stroke="black" stroke-width="1" /><path d="M 276,108 276,117 277,118 278,117 278,108 Z" fill="none" stroke="black" stroke-width="1" /><path d="M 260,108 260,109 261,108 262,109 262,110 261,111 260,111 260,112 259,113 259,117 261,117 261,114 262,113 262,108 Z" fill="none" stroke="black" stroke-width="1" /><path d="M 206,107 217,107 Z" fill="none" stroke="black" stroke-width="1" /><path d="M 112,107 112,109 125,109 113,109 112,108 113,107 124,107 Z" fill="none" stroke="black" stroke-width="1" /><path d="M 300,105 300,106 301,105 302,106 302,107 301,108 299,108 299,111 298,112 298,114 301,114 300,113 301,112 301,108 302,107 302,105 Z" fill="none" stroke="black" stroke-width="1" /><path d="M 206,105 217,105 Z" fill="none" stroke="black" stroke-width="1" /><path d="M 288,104 289,104 291,106 291,107 290,108 289,108 289,109 288,110 287,110 287,111 288,112 289,111 290,111 289,111 288,110 291,107 291,106 290,105 290,104 Z" fill="none" stroke="black" stroke-width="1" /><path d="M 112,103 112,105 125,105 113,105 112,104 113,103 124,103 Z" fill="none" stroke="black" stroke-width="1" /><path d="M 288,102 291,102 292,103 292,104 294,102 296,102 297,103 296,104 295,104 293,106 293,107 294,108 294,109 296,109 295,109 293,107 293,106 294,105 295,105 296,104 297,104 297,102 294,102 293,103 292,103 291,102 Z" fill="none" stroke="black" stroke-width="1" /><path d="M 139,102 138,103 135,103 134,104 134,108 133,109 133,111 135,111 135,110 136,109 136,108 137,107 137,106 136,107 136,109 134,111 133,110 133,109 134,108 134,104 135,103 139,103 140,102 142,104 142,105 141,106 140,105 139,106 139,109 138,110 138,111 141,111 141,106 142,105 142,103 141,102 Z" fill="none" stroke="black" stroke-width="1" /><path d="M 166,101 165,102 165,104 164,105 165,106 165,111 164,112 164,115 165,115 166,116 171,116 173,114 173,111 172,110 167,110 172,110 173,111 173,114 171,116 166,116 165,115 166,114 170,114 171,113 171,112 166,112 165,111 165,106 164,105 165,104 165,102 166,101 169,101 170,102 169,103 167,103 167,108 168,107 169,107 170,108 171,108 172,107 172,102 170,102 169,101 Z" fill="none" stroke="black" stroke-width="1" /><path d="M 156,101 155,102 154,102 154,104 153,105 153,109 155,111 156,111 157,112 159,112 160,111 161,111 162,110 162,108 163,107 162,106 162,103 161,102 160,102 159,101 Z" fill="none" stroke="black" stroke-width="1" /><path d="M 29,101 28,102 28,111 27,112 27,115 27,112 29,110 35,110 36,111 36,114 34,116 29,116 34,116 36,114 36,111 35,110 29,110 28,109 28,103 30,101 32,101 33,102 32,103 31,103 30,104 30,108 31,107 32,107 33,108 34,108 35,107 35,105 36,104 35,104 35,106 34,107 33,106 33,104 32,103 33,102 36,102 33,102 32,101 Z" fill="none" stroke="black" stroke-width="1" /><path d="M 19,101 17,103 17,104 16,105 16,108 17,109 17,110 18,111 19,111 20,112 22,112 23,111 24,111 25,110 25,109 26,108 26,105 25,104 25,103 24,102 23,102 22,101 Z" fill="none" stroke="black" stroke-width="1" /><path d="M 229,98 229,99 230,98 232,98 233,99 233,103 232,104 231,103 231,100 231,102 230,103 230,104 227,107 227,108 225,110 226,111 226,109 230,105 230,104 231,103 232,104 232,106 233,107 233,109 234,109 235,110 234,111 232,111 231,110 231,109 230,108 228,110 228,111 229,110 229,109 230,108 231,109 231,111 234,111 235,110 235,109 234,109 233,108 233,107 232,106 232,104 233,103 233,99 232,98 Z" fill="none" stroke="black" stroke-width="1" /><path d="M 193,98 193,100 196,103 196,110 193,113 193,115 193,114 195,112 196,113 196,114 195,115 197,113 197,112 198,111 198,103 197,102 197,100 195,98 197,100 197,102 196,103 195,102 195,101 193,99 Z" fill="none" stroke="black" stroke-width="1" /><path d="M 186,98 188,98 189,99 188,100 188,102 187,103 187,104 184,107 184,108 182,110 183,111 185,111 186,110 186,109 184,111 183,111 182,110 187,105 187,104 188,103 189,104 189,106 190,107 190,109 190,107 189,106 189,104 188,103 188,100 189,99 190,100 190,102 190,100 189,99 189,98 Z" fill="none" stroke="black" stroke-width="1" /><path d="M 177,98 176,99 176,100 175,101 175,104 174,105 174,108 175,109 175,112 177,114 177,115 178,115 176,113 176,112 177,111 180,114 180,115 180,114 177,111 177,108 176,107 176,106 177,105 177,102 180,99 177,102 177,105 176,106 176,107 177,108 177,111 176,112 175,111 175,109 174,108 174,105 175,104 175,101 178,98 Z" fill="none" stroke="black" stroke-width="1" /><path d="M 88,98 87,99 86,99 87,100 87,101 88,102 88,104 85,107 85,108 83,110 82,110 84,110 84,109 88,105 88,102 87,101 87,99 88,98 89,98 90,99 90,102 93,99 91,101 90,100 90,99 89,98 Z" fill="none" stroke="black" stroke-width="1" /><path d="M 68,98 68,99 69,98 71,98 72,99 72,103 71,104 70,103 70,100 70,102 69,103 69,104 66,107 66,108 64,110 65,111 65,109 69,105 69,104 70,103 71,104 71,106 72,107 72,109 73,109 74,110 73,111 71,111 70,110 70,109 69,108 67,110 67,111 68,110 68,109 69,108 70,109 70,111 73,111 74,110 74,109 73,109 72,108 72,107 71,106 71,104 72,103 72,99 71,98 Z" fill="none" stroke="black" stroke-width="1" /><path d="M 148,97 149,98 148,99 149,100 149,109 148,110 149,111 151,111 151,99 149,97 Z" fill="none" stroke="black" stroke-width="1" /><path d="M 95,97 99,97 103,101 103,103 104,104 104,109 103,110 103,112 100,115 99,115 98,114 101,111 101,109 102,108 102,105 101,104 101,102 98,99 95,99 95,100 91,104 91,105 92,106 92,108 93,109 93,111 92,112 90,110 90,108 89,107 86,110 88,108 89,108 90,109 90,111 91,111 92,112 93,111 94,112 93,111 94,110 92,108 92,106 91,105 91,104 92,103 93,103 94,102 94,101 96,99 98,99 101,102 101,104 102,105 102,108 101,109 101,111 98,114 99,115 101,115 102,114 102,113 103,112 103,110 104,109 104,104 103,103 103,101 102,100 102,99 100,97 Z" fill="none" stroke="black" stroke-width="1" /><path d="M 86,97 Z" fill="none" stroke="black" stroke-width="1" /><path d="M 78,97 76,99 76,114 77,115 78,115 Z" fill="none" stroke="black" stroke-width="1" /><path d="M 61,97 60,98 59,98 59,99 57,101 57,111 58,112 58,113 60,115 58,113 58,112 59,111 62,114 62,115 62,114 59,111 59,102 62,99 62,97 Z" fill="none" stroke="black" stroke-width="1" /><path d="M 48,97 46,99 46,103 45,104 45,107 44,108 44,109 43,110 42,110 43,110 44,111 43,112 42,112 43,112 44,111 46,111 47,112 53,112 55,110 55,109 54,108 53,108 53,109 52,110 48,110 47,109 47,107 48,106 48,103 49,102 49,100 50,99 51,99 50,99 49,98 50,97 51,97 50,97 49,98 Z" fill="none" stroke="black" stroke-width="1" /><path d="M 11,97 12,98 11,99 12,100 12,111 13,112 14,111 14,97 Z" fill="none" stroke="black" stroke-width="1" /><path d="M 243,95 241,97 243,99 243,100 246,103 246,104 248,106 246,108 246,109 243,112 243,113 241,115 241,117 256,117 256,115 257,114 257,113 257,114 256,115 256,116 255,117 242,117 241,116 243,114 243,113 244,112 244,111 247,108 247,107 248,106 248,105 246,103 246,102 243,99 243,98 242,97 242,96 243,95 255,95 257,97 257,99 256,100 255,99 255,98 254,97 246,97 246,99 249,102 249,103 251,105 250,106 250,107 249,108 249,109 246,112 246,113 247,114 254,114 255,113 255,112 256,111 257,111 256,111 255,112 255,113 254,114 247,114 246,113 247,112 247,111 250,108 250,107 251,106 251,104 249,102 249,101 246,98 247,97 253,97 255,99 255,100 257,100 257,96 256,96 255,95 Z" fill="none" stroke="black" stroke-width="1" /><path d="M 260,94 260,96 259,97 259,100 261,100 261,98 261,99 260,100 259,99 259,97 260,96 260,95 261,94 262,95 262,96 262,95 263,94 264,94 265,95 265,99 264,100 263,99 263,98 263,100 265,100 265,94 Z" fill="none" stroke="black" stroke-width="1" /><path d="M 173,69 174,69 Z" fill="none" stroke="black" stroke-width="1" /><path d="M 205,67 205,68 206,67 207,68 207,67 Z" fill="none" stroke="black" stroke-width="1" /><path d="M 90,67 90,68 Z" fill="none" stroke="black" stroke-width="1" /><path d="M 87,66 87,67 88,68 88,67 Z" fill="none" stroke="black" stroke-width="1" /><path d="M 71,63 70,64 69,64 69,65 71,63 73,65 73,64 72,64 Z" fill="none" stroke="black" stroke-width="1" /><path d="M 205,60 205,61 206,60 207,61 207,60 Z" fill="none" stroke="black" stroke-width="1" /><path d="M 142,60 140,62 140,65 142,67 143,66 144,66 144,61 143,61 Z" fill="none" stroke="black" stroke-width="1" /><path d="M 89,59 89,61 88,62 88,64 89,65 89,64 88,63 88,62 90,60 Z" fill="none" stroke="black" stroke-width="1" /><path d="M 198,58 197,59 195,59 195,68 196,68 197,67 197,62 199,60 200,61 200,62 201,63 201,68 202,68 203,67 203,62 202,61 202,59 201,59 200,58 Z" fill="none" stroke="black" stroke-width="1" /><path d="M 187,58 185,60 185,63 185,61 187,59 188,60 190,60 191,61 190,62 187,62 191,62 191,61 192,60 193,61 193,63 192,64 187,64 187,66 188,66 189,67 190,67 191,68 190,69 188,69 187,68 186,68 185,67 185,65 185,67 186,68 187,68 188,69 190,69 191,68 192,68 193,67 193,66 193,67 192,68 191,68 190,67 191,66 190,66 189,67 187,65 188,64 192,64 193,63 193,60 192,59 191,59 190,58 Z" fill="none" stroke="black" stroke-width="1" /><path d="M 159,58 158,59 157,59 157,63 158,64 160,64 162,66 161,67 160,67 159,66 160,67 161,67 162,68 161,69 159,69 157,67 157,66 157,68 158,68 159,69 161,69 162,68 164,68 164,64 163,63 161,63 159,61 160,60 161,60 162,61 161,60 162,59 163,59 164,60 163,59 162,59 161,58 Z" fill="none" stroke="black" stroke-width="1" /><path d="M 122,58 121,59 120,59 119,60 119,61 119,60 120,59 121,59 122,60 121,61 121,62 120,63 120,64 121,65 121,66 122,67 121,68 120,68 119,67 119,66 119,67 120,68 121,68 122,69 124,69 125,68 126,68 127,67 127,60 126,59 125,59 124,58 Z" fill="none" stroke="black" stroke-width="1" /><path d="M 63,58 62,59 60,59 60,61 61,62 61,65 60,66 60,68 62,68 63,69 62,70 60,70 62,70 63,71 64,71 65,72 64,73 62,73 61,72 60,72 61,72 62,73 64,73 65,72 66,72 67,71 67,66 66,65 66,63 65,62 65,61 64,60 65,59 66,59 67,60 67,61 68,62 67,61 67,59 65,59 64,58 Z" fill="none" stroke="black" stroke-width="1" /><path d="M 53,58 52,59 51,59 50,60 50,61 50,60 51,59 52,59 53,60 52,61 52,62 51,63 51,64 52,65 52,66 53,67 52,68 51,68 50,67 50,66 50,67 51,68 52,68 53,69 55,69 56,68 57,68 58,67 58,64 58,67 57,68 56,68 55,69 53,69 52,68 53,67 54,67 55,66 56,66 56,61 55,61 54,60 53,60 52,59 53,58 55,58 56,59 57,59 58,60 58,62 58,60 57,59 56,59 55,58 Z" fill="none" stroke="black" stroke-width="1" /><path d="M 171,56 171,57 170,58 170,60 171,61 171,68 171,60 170,59 171,58 171,57 172,56 173,57 173,67 174,67 175,66 175,62 176,61 177,62 177,67 176,68 177,68 177,62 179,60 180,60 181,61 181,67 182,68 183,68 183,59 182,59 181,58 178,58 177,57 177,56 176,56 175,57 175,58 176,59 176,61 175,62 175,66 174,67 173,66 173,61 174,60 173,59 173,56 Z" fill="none" stroke="black" stroke-width="1" /><path d="M 153,56 153,68 155,68 155,56 Z" fill="none" stroke="black" stroke-width="1" /><path d="M 145,56 144,57 144,59 144,57 145,56 146,57 146,67 145,68 144,68 143,69 141,69 138,66 138,61 141,58 142,58 141,58 140,59 139,59 137,61 136,60 136,59 134,59 133,58 132,58 131,59 129,59 129,61 130,62 130,65 129,66 129,68 131,68 132,69 133,69 134,68 136,68 136,67 137,66 139,68 140,68 141,69 143,69 144,68 146,68 146,56 Z" fill="none" stroke="black" stroke-width="1" /><path d="M 105,56 105,68 107,68 107,60 108,59 109,60 109,68 111,68 111,62 113,60 115,62 115,68 117,68 117,60 116,59 115,59 114,58 112,58 111,57 111,56 109,56 109,58 108,59 107,58 107,56 Z" fill="none" stroke="black" stroke-width="1" /><path d="M 102,56 101,57 101,60 100,61 99,60 99,59 97,59 96,58 95,58 94,59 92,59 92,61 91,62 91,65 92,66 92,67 93,68 94,68 95,69 97,69 98,68 99,68 99,66 99,67 97,69 95,69 94,68 95,67 96,67 97,66 96,67 95,67 93,65 94,64 98,64 99,63 100,63 101,64 101,67 102,68 103,68 103,56 Z" fill="none" stroke="black" stroke-width="1" /><path d="M 83,56 83,68 85,68 85,65 86,64 85,64 85,67 84,68 83,67 83,57 84,56 85,57 85,61 86,61 87,60 87,59 87,60 86,61 85,60 85,56 Z" fill="none" stroke="black" stroke-width="1" /><path d="M 79,56 79,68 81,68 81,56 Z" fill="none" stroke="black" stroke-width="1" /><path d="M 75,56 75,68 77,68 77,56 Z" fill="none" stroke="black" stroke-width="1" /><path d="M 48,56 48,68 Z" fill="none" stroke="black" stroke-width="1" /><path d="M 46,56 46,68 Z" fill="none" stroke="black" stroke-width="1" /><path d="M 12,55 11,56 11,57 13,57 14,58 14,67 15,68 16,68 16,59 18,57 20,57 20,56 21,55 22,56 22,68 23,68 24,67 24,62 26,60 27,61 27,62 28,63 28,68 29,68 31,66 32,67 32,68 34,68 35,69 36,69 37,68 39,68 39,66 37,66 36,67 35,67 33,65 34,64 38,64 40,62 39,61 39,59 37,59 36,58 35,58 34,59 32,59 32,60 31,61 31,66 29,68 28,67 28,63 27,62 27,61 26,60 25,61 24,61 24,67 23,68 22,67 22,57 23,56 24,57 24,59 25,58 27,58 29,60 29,61 29,59 28,59 27,58 25,58 23,56 22,56 21,55 20,56 19,55 Z" fill="none" stroke="black" stroke-width="1" /><path d="M 51,26 53,26 Z" fill="none" stroke="black" stroke-width="1" /><path d="M 124,25 124,28 123,29 123,31 122,32 123,31 126,31 125,30 126,29 126,28 127,27 136,27 137,28 137,29 136,30 129,30 128,29 128,30 137,30 137,25 128,25 128,26 127,27 126,26 126,25 Z" fill="none" stroke="black" stroke-width="1" /><path d="M 140,22 140,31 141,32 142,31 142,22 Z" fill="none" stroke="black" stroke-width="1" /><path d="M 125,22 125,23 126,22 127,23 127,22 Z" fill="none" stroke="black" stroke-width="1" /><path d="M 82,21 93,21 94,22 93,23 82,23 94,23 94,21 Z" fill="none" stroke="black" stroke-width="1" /><path d="M 82,17 93,17 94,18 93,19 82,19 94,19 94,17 Z" fill="none" stroke="black" stroke-width="1" /><path d="M 172,13 172,15 180,15 181,14 181,13 Z" fill="none" stroke="black" stroke-width="1" /><path d="M 21,13 Z" fill="none" stroke="black" stroke-width="1" /><path d="M 191,12 192,13 192,14 190,16 191,16 192,15 192,12 Z" fill="none" stroke="black" stroke-width="1" /><path d="M 156,12 155,13 155,14 156,14 157,15 157,17 155,19 155,20 152,23 152,25 153,26 154,25 155,25 155,24 156,23 158,25 161,25 158,25 156,23 156,22 156,23 153,26 152,25 152,24 154,22 154,21 157,18 157,14 156,14 155,13 156,12 158,12 159,13 159,23 160,23 161,22 162,22 163,23 163,25 164,25 165,26 167,26 168,25 169,25 169,23 168,23 167,22 168,21 169,21 170,20 170,17 169,16 167,16 166,17 165,17 163,19 163,20 160,23 159,22 159,12 Z" fill="none" stroke="black" stroke-width="1" /><path d="M 46,12 46,29 47,29 48,28 48,13 47,12 Z" fill="none" stroke="black" stroke-width="1" /><path d="M 37,12 37,14 38,14 39,15 39,17 37,19 37,20 34,23 34,25 36,25 37,24 37,23 38,22 37,23 37,24 36,25 35,25 34,24 35,23 35,22 39,18 39,14 38,14 37,13 38,12 40,12 41,13 41,23 42,23 43,24 42,25 40,25 39,24 39,25 42,25 43,24 43,23 42,23 41,22 41,12 Z" fill="none" stroke="black" stroke-width="1" /><path d="M 55,11 56,12 55,13 57,15 57,19 52,24 51,24 53,24 54,23 55,24 55,25 55,24 58,21 59,22 59,24 61,26 62,25 63,26 62,25 63,24 62,23 62,22 61,21 61,18 64,15 64,14 65,13 67,13 71,17 71,24 68,27 68,29 68,28 70,26 71,27 71,28 70,29 72,27 72,26 73,25 73,17 72,16 72,14 69,11 64,11 61,14 61,15 60,16 59,15 59,12 58,12 57,11 56,12 Z" fill="none" stroke="black" stroke-width="1" /><path d="M 15,11 16,12 16,14 15,15 15,19 14,20 14,23 13,24 14,25 13,26 12,26 13,26 14,25 15,26 23,26 24,25 24,24 25,23 27,25 27,27 29,29 28,28 28,27 27,26 27,25 28,24 30,26 30,27 31,28 31,29 31,27 28,24 28,17 30,15 30,14 31,13 31,12 29,12 27,14 27,16 26,17 26,22 25,23 24,22 23,22 21,24 17,24 16,23 17,22 17,19 18,18 18,15 19,14 19,12 20,11 21,11 19,11 18,12 16,12 Z" fill="none" stroke="black" stroke-width="1" /><path d="M 195,10 194,11 195,10 196,10 197,11 195,13 195,15 196,16 195,17 194,17 196,17 196,16 197,15 198,16 198,19 199,19 200,18 200,14 201,13 201,12 199,12 199,13 196,16 195,15 195,13 196,12 197,12 197,10 Z" fill="none" stroke="black" stroke-width="1" /><path d="M 191,10 192,10 Z" fill="none" stroke="black" stroke-width="1" /><path d="M 186,10 186,11 184,13 184,14 182,16 183,17 188,17 189,18 192,18 189,18 188,17 186,17 185,16 184,17 183,17 182,16 186,12 Z" fill="none" stroke="black" stroke-width="1" /><path d="M 103,9 104,9 105,10 104,11 103,11 104,11 105,12 105,28 104,29 104,30 105,31 108,31 109,30 109,29 108,28 108,12 109,11 115,11 116,12 116,28 115,29 115,30 116,31 119,31 120,30 120,29 119,28 119,12 120,11 121,11 119,11 119,28 120,29 120,30 119,31 116,31 115,30 116,29 116,11 108,11 108,29 109,30 108,31 105,31 104,30 105,29 105,10 106,9 121,9 Z" fill="none" stroke="black" stroke-width="1" /><path d="M 185,8 187,8 188,9 188,15 188,8 Z" fill="none" stroke="black" stroke-width="1" /><path d="M 124,8 124,11 123,12 123,14 125,14 125,12 126,11 127,12 127,15 128,15 129,14 129,11 130,10 130,8 Z" fill="none" stroke="black" stroke-width="1" /></svg>